CSLSans-ThinItalic.ufo
<glyph name="comma" format="2">
  <advance width="300"/>
  <unicode hex="002C"/>
  <outline>
    <contour>
      <point x="1" y="-147" type="line"/>
      <point x="82" y="-76"/>
      <point x="102" y="-5" type="qcurve"/>
      <point x="75" y="-5"/>
      <point x="75" y="14" type="qcurve" smooth="yes"/>
      <point x="75" y="53"/>
      <point x="107" y="53" type="qcurve" smooth="yes"/>
      <point x="132" y="53"/>
      <point x="132" y="34" type="qcurve" smooth="yes"/>
      <point x="132" y="27"/>
      <point x="129" y="15" type="qcurve" smooth="yes"/>
      <point x="119" y="-27"/>
      <point x="60" y="-116"/>
      <point x="22" y="-147" type="qcurve"/>
    </contour>
  </outline>
</glyph>
<glyph name="period" format="2">
  <advance width="300"/>
  <unicode hex="002E"/>
  <outline>
    <contour>
      <point x="101" y="-5" type="qcurve" smooth="yes"/>
      <point x="75" y="-5"/>
      <point x="75" y="14" type="qcurve" smooth="yes"/>
      <point x="75" y="53"/>
      <point x="107" y="53" type="qcurve" smooth="yes"/>
      <point x="132" y="53"/>
      <point x="132" y="34" type="qcurve" smooth="yes"/>
      <point x="132" y="28"/>
      <point x="127" y="7"/>
      <point x="116" y="-5"/>
    </contour>
  </outline>
</glyph>
<glyph name="eight" format="2">
  <advance width="600"/>
  <unicode hex="0038"/>
  <outline>
    <contour>
      <point x="245" y="-12" type="qcurve" smooth="yes"/>
      <point x="149" y="-12"/>
      <point x="47" y="79"/>
      <point x="47" y="154" type="qcurve" smooth="yes"/>
      <point x="47" y="238"/>
      <point x="154" y="352"/>
      <point x="242" y="367" type="qcurve"/>
      <point x="242" y="371" type="line"/>
      <point x="139" y="397"/>
      <point x="139" y="506" type="qcurve" smooth="yes"/>
      <point x="139" y="598"/>
      <point x="270" y="710"/>
      <point x="372" y="710" type="qcurve" smooth="yes"/>
      <point x="459" y="710"/>
      <point x="553" y="630"/>
      <point x="553" y="561" type="qcurve" smooth="yes"/>
      <point x="553" y="485"/>
      <point x="462" y="381"/>
      <point x="389" y="366" type="qcurve"/>
      <point x="388" y="362" type="line"/>
      <point x="506" y="331"/>
      <point x="506" y="209" type="qcurve" smooth="yes"/>
      <point x="506" y="112"/>
      <point x="359" y="-12"/>
    </contour>
    <contour>
      <point x="322" y="376" type="qcurve" smooth="yes"/>
      <point x="404" y="376"/>
      <point x="510" y="450"/>
      <point x="523" y="516" type="qcurve" smooth="yes"/>
      <point x="530" y="553"/>
      <point x="530" y="565" type="qcurve" smooth="yes"/>
      <point x="530" y="623"/>
      <point x="448" y="690"/>
      <point x="370" y="690" type="qcurve" smooth="yes"/>
      <point x="288" y="690"/>
      <point x="182" y="616"/>
      <point x="168" y="550" type="qcurve" smooth="yes"/>
      <point x="162" y="521"/>
      <point x="162" y="501" type="qcurve" smooth="yes"/>
      <point x="162" y="443"/>
      <point x="244" y="376"/>
    </contour>
    <contour>
      <point x="246" y="8" type="qcurve" smooth="yes"/>
      <point x="336" y="8"/>
      <point x="463" y="93"/>
      <point x="477" y="164" type="qcurve"/>
      <point x="481" y="189"/>
      <point x="484" y="207"/>
      <point x="484" y="214" type="qcurve" smooth="yes"/>
      <point x="484" y="277"/>
      <point x="393" y="356"/>
      <point x="307" y="356" type="qcurve" smooth="yes"/>
      <point x="217" y="356"/>
      <point x="91" y="271"/>
      <point x="76" y="200" type="qcurve" smooth="yes"/>
      <point x="70" y="168"/>
      <point x="70" y="150" type="qcurve" smooth="yes"/>
      <point x="70" y="87"/>
      <point x="160" y="8"/>
    </contour>
  </outline>
</glyph>
<glyph name="colon" format="2">
  <advance width="258"/>
  <unicode hex="003A"/>
  <outline>
    <contour>
      <point x="168" y="436" type="qcurve" smooth="yes"/>
      <point x="142" y="436"/>
      <point x="142" y="455" type="qcurve" smooth="yes"/>
      <point x="142" y="494"/>
      <point x="174" y="494" type="qcurve" smooth="yes"/>
      <point x="199" y="494"/>
      <point x="199" y="475" type="qcurve" smooth="yes"/>
      <point x="199" y="469"/>
      <point x="194" y="448"/>
      <point x="183" y="436"/>
    </contour>
    <contour>
      <point x="78" y="-5" type="qcurve" smooth="yes"/>
      <point x="52" y="-5"/>
      <point x="52" y="14" type="qcurve" smooth="yes"/>
      <point x="52" y="53"/>
      <point x="84" y="53" type="qcurve" smooth="yes"/>
      <point x="109" y="53"/>
      <point x="109" y="34" type="qcurve" smooth="yes"/>
      <point x="109" y="28"/>
      <point x="104" y="7"/>
      <point x="93" y="-5"/>
    </contour>
  </outline>
</glyph>
<glyph name="semicolon" format="2">
  <advance width="300"/>
  <unicode hex="003B"/>
  <outline>
    <contour>
      <point x="8" y="-147" type="line"/>
      <point x="89" y="-76"/>
      <point x="109" y="-5" type="qcurve"/>
      <point x="82" y="-5"/>
      <point x="82" y="14" type="qcurve" smooth="yes"/>
      <point x="82" y="53"/>
      <point x="114" y="53" type="qcurve" smooth="yes"/>
      <point x="139" y="53"/>
      <point x="139" y="34" type="qcurve" smooth="yes"/>
      <point x="139" y="27"/>
      <point x="136" y="15" type="qcurve" smooth="yes"/>
      <point x="126" y="-27"/>
      <point x="67" y="-116"/>
      <point x="29" y="-147" type="qcurve"/>
    </contour>
    <contour>
      <point x="198" y="436" type="qcurve" smooth="yes"/>
      <point x="172" y="436"/>
      <point x="172" y="455" type="qcurve" smooth="yes"/>
      <point x="172" y="494"/>
      <point x="204" y="494" type="qcurve" smooth="yes"/>
      <point x="229" y="494"/>
      <point x="229" y="475" type="qcurve" smooth="yes"/>
      <point x="229" y="469"/>
      <point x="224" y="448"/>
      <point x="213" y="436"/>
    </contour>
  </outline>
</glyph>
<glyph name="question" format="2">
  <advance width="453"/>
  <unicode hex="003F"/>
  <outline>
    <contour>
      <point x="157" y="-5" type="qcurve" smooth="yes"/>
      <point x="131" y="-5"/>
      <point x="131" y="14" type="qcurve" smooth="yes"/>
      <point x="131" y="53"/>
      <point x="163" y="53" type="qcurve" smooth="yes"/>
      <point x="188" y="53"/>
      <point x="188" y="34" type="qcurve" smooth="yes"/>
      <point x="188" y="28"/>
      <point x="183" y="7"/>
      <point x="172" y="-5"/>
    </contour>
    <contour>
      <point x="179" y="176" type="line"/>
      <point x="212" y="349" type="line"/>
      <point x="425" y="364"/>
      <point x="442" y="508" type="qcurve"/>
      <point x="447" y="534"/>
      <point x="447" y="554" type="qcurve" smooth="yes"/>
      <point x="447" y="618"/>
      <point x="371" y="691"/>
      <point x="299" y="691" type="qcurve" smooth="yes"/>
      <point x="224" y="691"/>
      <point x="136" y="618"/>
      <point x="110" y="554" type="qcurve"/>
      <point x="91" y="560" type="line"/>
      <point x="148" y="710"/>
      <point x="300" y="710" type="qcurve" smooth="yes"/>
      <point x="378" y="710"/>
      <point x="469" y="625"/>
      <point x="469" y="554" type="qcurve" smooth="yes"/>
      <point x="469" y="459"/>
      <point x="354" y="343"/>
      <point x="231" y="331" type="qcurve"/>
      <point x="201" y="176" type="line"/>
    </contour>
  </outline>
</glyph>
<glyph name="at" format="2">
  <advance width="880"/>
  <unicode hex="0040"/>
  <outline>
    <contour>
      <point x="401" y="87" type="qcurve" smooth="yes"/>
      <point x="455" y="87"/>
      <point x="552" y="161"/>
      <point x="564" y="212" type="qcurve"/>
      <point x="594" y="362" type="line"/>
      <point x="596" y="376"/>
      <point x="596" y="388" type="qcurve" smooth="yes"/>
      <point x="596" y="428"/>
      <point x="572" y="455" type="qcurve"/>
      <point x="538" y="490"/>
      <point x="482" y="490" type="qcurve" smooth="yes"/>
      <point x="409" y="490"/>
      <point x="313" y="393"/>
      <point x="295" y="306" type="qcurve" smooth="yes"/>
      <point x="288" y="268" type="line" smooth="yes"/>
      <point x="282" y="236"/>
      <point x="282" y="210" type="qcurve" smooth="yes"/>
      <point x="282" y="153"/>
      <point x="341" y="87"/>
    </contour>
    <contour>
      <point x="364" y="-121" type="line" smooth="yes"/>
      <point x="226" y="-121"/>
      <point x="147" y="-41" type="qcurve"/>
      <point x="66" y="38"/>
      <point x="66" y="186" type="qcurve" smooth="yes"/>
      <point x="66" y="238"/>
      <point x="98" y="392"/>
      <point x="139" y="469" type="qcurve"/>
      <point x="223" y="620"/>
      <point x="374" y="681" type="qcurve" smooth="yes"/>
      <point x="448" y="710"/>
      <point x="532" y="710" type="qcurve" smooth="yes"/>
      <point x="663" y="710"/>
      <point x="749" y="635" type="qcurve"/>
      <point x="834" y="558"/>
      <point x="834" y="414" type="qcurve" smooth="yes"/>
      <point x="834" y="371"/>
      <point x="824" y="320" type="qcurve"/>
      <point x="805" y="210"/>
      <point x="756" y="141" type="qcurve" smooth="yes"/>
      <point x="704" y="69"/>
      <point x="630" y="69" type="qcurve" smooth="yes"/>
      <point x="594" y="69"/>
      <point x="552" y="107"/>
      <point x="552" y="138" type="qcurve" smooth="yes"/>
      <point x="552" y="150" type="line"/>
      <point x="549" y="150" type="line"/>
      <point x="529" y="120"/>
      <point x="452" y="69"/>
      <point x="398" y="69" type="qcurve" smooth="yes"/>
      <point x="332" y="69"/>
      <point x="261" y="144"/>
      <point x="261" y="210" type="qcurve" smooth="yes"/>
      <point x="261" y="245"/>
      <point x="269" y="287" type="qcurve" smooth="yes"/>
      <point x="290" y="400"/>
      <point x="402" y="508"/>
      <point x="486" y="508" type="qcurve" smooth="yes"/>
      <point x="534" y="508"/>
      <point x="598" y="459"/>
      <point x="605" y="426" type="qcurve"/>
      <point x="608" y="426" type="line"/>
      <point x="621" y="496" type="line"/>
      <point x="641" y="496" type="line"/>
      <point x="575" y="162"/>
      <point x="574" y="161" type="qcurve"/>
      <point x="573" y="155"/>
      <point x="573" y="138" type="qcurve"/>
      <point x="575" y="87"/>
      <point x="633" y="87" type="qcurve" smooth="yes"/>
      <point x="687" y="87"/>
      <point x="777" y="195"/>
      <point x="797" y="295" type="qcurve" smooth="yes"/>
      <point x="806" y="342" type="line"/>
      <point x="814" y="378"/>
      <point x="814" y="414" type="qcurve" smooth="yes"/>
      <point x="814" y="548"/>
      <point x="656" y="692"/>
      <point x="528" y="692" type="qcurve" smooth="yes"/>
      <point x="377" y="692"/>
      <point x="257" y="587" type="qcurve" smooth="yes"/>
      <point x="141" y="485"/>
      <point x="106" y="326" type="qcurve" smooth="yes"/>
      <point x="95" y="274" type="line" smooth="yes"/>
      <point x="85" y="228"/>
      <point x="85" y="186" type="qcurve" smooth="yes"/>
      <point x="85" y="50"/>
      <point x="240" y="-103"/>
      <point x="367" y="-103" type="qcurve" smooth="yes"/>
      <point x="603" y="-103" type="line"/>
      <point x="600" y="-121" type="line"/>
    </contour>
  </outline>
</glyph>
<glyph name="Q" format="2">
  <advance width="658"/>
  <unicode hex="0051"/>
  <outline>
    <contour>
      <point x="291" y="8" type="qcurve" smooth="yes"/>
      <point x="399" y="8"/>
      <point x="551" y="173"/>
      <point x="580" y="314" type="qcurve" smooth="yes"/>
      <point x="601" y="419"/>
      <point x="601" y="478" type="qcurve" smooth="yes"/>
      <point x="601" y="576"/>
      <point x="498" y="690"/>
      <point x="401" y="690" type="qcurve" smooth="yes"/>
      <point x="293" y="690"/>
      <point x="142" y="526"/>
      <point x="112" y="384" type="qcurve" smooth="yes"/>
      <point x="91" y="279"/>
      <point x="91" y="220" type="qcurve" smooth="yes"/>
      <point x="91" y="122"/>
      <point x="194" y="8"/>
    </contour>
    <contour>
      <point x="291" y="-12" type="qcurve" smooth="yes"/>
      <point x="191" y="-12"/>
      <point x="131" y="48" type="qcurve"/>
      <point x="69" y="106"/>
      <point x="69" y="220" type="qcurve" smooth="yes"/>
      <point x="69" y="318"/>
      <point x="101" y="435" type="qcurve"/>
      <point x="134" y="547"/>
      <point x="207" y="627" type="qcurve" smooth="yes"/>
      <point x="284" y="710"/>
      <point x="401" y="710" type="qcurve" smooth="yes"/>
      <point x="499" y="710"/>
      <point x="623" y="592"/>
      <point x="623" y="478" type="qcurve" smooth="yes"/>
      <point x="623" y="366"/>
      <point x="592" y="263" type="qcurve" smooth="yes"/>
      <point x="559" y="151"/>
      <point x="486" y="71" type="qcurve"/>
      <point x="407" y="-12"/>
    </contour>
    <contour>
      <point x="383" y="203" type="line"/>
      <point x="409" y="203" type="line"/>
      <point x="594" y="-12" type="line"/>
      <point x="568" y="-12" type="line"/>
    </contour>
  </outline>
</glyph>
<glyph name="i" format="2">
  <advance width="235"/>
  <unicode hex="0069"/>
  <outline>
    <contour>
      <point x="200" y="673" type="qcurve" smooth="yes"/>
      <point x="180" y="673"/>
      <point x="180" y="689" type="qcurve" smooth="yes"/>
      <point x="180" y="693"/>
      <point x="181" y="699"/>
      <point x="182" y="703" type="qcurve"/>
      <point x="184" y="722"/>
      <point x="209" y="722" type="qcurve" smooth="yes"/>
      <point x="229" y="722"/>
      <point x="229" y="706" type="qcurve" smooth="yes"/>
      <point x="229" y="702"/>
      <point x="228" y="696"/>
      <point x="227" y="692" type="qcurve"/>
      <point x="226" y="673"/>
    </contour>
    <contour>
      <point x="81" y="0" type="line" smooth="yes"/>
      <point x="58" y="0"/>
      <point x="58" y="19" type="qcurve" smooth="yes"/>
      <point x="58" y="25"/>
      <point x="155" y="506" type="qcurve"/>
      <point x="176" y="506" type="line"/>
      <point x="78" y="19" type="line"/>
      <point x="163" y="19" type="line"/>
      <point x="159" y="0" type="line"/>
    </contour>
  </outline>
</glyph>
<glyph name="section" format="2">
  <advance width="564"/>
  <unicode hex="00A7"/>
  <outline>
    <contour>
      <point x="310" y="130" type="qcurve"/>
      <point x="378" y="153"/>
      <point x="456" y="224"/>
      <point x="456" y="283" type="qcurve" smooth="yes"/>
      <point x="456" y="327"/>
      <point x="414" y="375"/>
      <point x="361" y="391" type="qcurve"/>
      <point x="263" y="423"/>
      <point x="256" y="426" type="qcurve"/>
      <point x="188" y="404"/>
      <point x="110" y="332"/>
      <point x="110" y="273" type="qcurve" smooth="yes"/>
      <point x="110" y="229"/>
      <point x="152" y="181"/>
      <point x="205" y="165" type="qcurve"/>
      <point x="303" y="133"/>
    </contour>
    <contour>
      <point x="200" y="-154" type="qcurve" smooth="yes"/>
      <point x="107" y="-154"/>
      <point x="54" y="-101" type="qcurve"/>
      <point x="68" y="-87" type="line"/>
      <point x="117" y="-135"/>
      <point x="201" y="-135" type="qcurve" smooth="yes"/>
      <point x="279" y="-135"/>
      <point x="369" y="-65"/>
      <point x="369" y="3" type="qcurve" smooth="yes"/>
      <point x="369" y="54"/>
      <point x="319" y="109"/>
      <point x="273" y="123" type="qcurve"/>
      <point x="197" y="148" type="line" smooth="yes"/>
      <point x="142" y="165"/>
      <point x="89" y="220"/>
      <point x="89" y="273" type="qcurve" smooth="yes"/>
      <point x="89" y="335"/>
      <point x="167" y="412"/>
      <point x="237" y="433" type="qcurve"/>
      <point x="237" y="436" type="line"/>
      <point x="176" y="475"/>
      <point x="176" y="553" type="qcurve" smooth="yes"/>
      <point x="176" y="630"/>
      <point x="282" y="710"/>
      <point x="366" y="710" type="qcurve" smooth="yes"/>
      <point x="459" y="710"/>
      <point x="512" y="657" type="qcurve"/>
      <point x="498" y="643" type="line"/>
      <point x="449" y="691"/>
      <point x="365" y="691" type="qcurve" smooth="yes"/>
      <point x="287" y="691"/>
      <point x="197" y="621"/>
      <point x="197" y="553" type="qcurve" smooth="yes"/>
      <point x="197" y="502"/>
      <point x="247" y="447"/>
      <point x="293" y="433" type="qcurve"/>
      <point x="369" y="408" type="line" smooth="yes"/>
      <point x="424" y="391"/>
      <point x="477" y="336"/>
      <point x="477" y="283" type="qcurve" smooth="yes"/>
      <point x="477" y="221"/>
      <point x="399" y="144"/>
      <point x="329" y="123" type="qcurve"/>
      <point x="329" y="120" type="line"/>
      <point x="390" y="81"/>
      <point x="390" y="3" type="qcurve" smooth="yes"/>
      <point x="390" y="-73"/>
      <point x="284" y="-154"/>
    </contour>
  </outline>
</glyph>
<glyph name="ordfeminine" format="2">
  <advance width="354"/>
  <unicode hex="00AA"/>
  <outline>
    <contour>
      <point x="170" y="384" type="qcurve" smooth="yes"/>
      <point x="217" y="384"/>
      <point x="293" y="430"/>
      <point x="304" y="473" type="qcurve"/>
      <point x="316" y="531" type="line"/>
      <point x="220" y="531" type="line" smooth="yes"/>
      <point x="112" y="531"/>
      <point x="101" y="468" type="qcurve"/>
      <point x="97" y="452"/>
      <point x="97" y="443" type="qcurve" smooth="yes"/>
      <point x="97" y="384"/>
    </contour>
    <contour>
      <point x="170" y="367" type="qcurve" smooth="yes"/>
      <point x="124" y="367"/>
      <point x="76" y="408"/>
      <point x="76" y="443" type="qcurve" smooth="yes"/>
      <point x="76" y="487"/>
      <point x="108" y="517" type="qcurve"/>
      <point x="146" y="548"/>
      <point x="222" y="548" type="qcurve" smooth="yes"/>
      <point x="319" y="548" type="line"/>
      <point x="330" y="604" type="line" smooth="yes"/>
      <point x="332" y="615"/>
      <point x="332" y="625" type="qcurve" smooth="yes"/>
      <point x="332" y="693"/>
      <point x="249" y="693" type="qcurve" smooth="yes"/>
      <point x="214" y="693"/>
      <point x="159" y="667"/>
      <point x="139" y="635" type="qcurve"/>
      <point x="124" y="643" type="line"/>
      <point x="165" y="710"/>
      <point x="252" y="710" type="qcurve" smooth="yes"/>
      <point x="350" y="710"/>
      <point x="350" y="625" type="qcurve" smooth="yes"/>
      <point x="350" y="615"/>
      <point x="348" y="605" type="qcurve" smooth="yes"/>
      <point x="306" y="391" type="line"/>
      <point x="354" y="391" type="line"/>
      <point x="350" y="374" type="line"/>
      <point x="302" y="374" type="line" smooth="yes"/>
      <point x="287" y="374"/>
      <point x="287" y="386" type="qcurve"/>
      <point x="294" y="422" type="line"/>
      <point x="292" y="422" type="line"/>
      <point x="255" y="367"/>
    </contour>
  </outline>
</glyph>
<glyph name="guillemotleft" format="2">
  <advance width="463"/>
  <unicode hex="00AB"/>
  <outline>
    <contour>
      <point x="219" y="284" type="line"/>
      <point x="223" y="304" type="line"/>
      <point x="457" y="482" type="line"/>
      <point x="463" y="465" type="line"/>
      <point x="244" y="291" type="line"/>
      <point x="393" y="118" type="line"/>
      <point x="381" y="106" type="line"/>
    </contour>
    <contour>
      <point x="42" y="284" type="line"/>
      <point x="46" y="304" type="line"/>
      <point x="280" y="482" type="line"/>
      <point x="286" y="465" type="line"/>
      <point x="67" y="291" type="line"/>
      <point x="216" y="118" type="line"/>
      <point x="204" y="106" type="line"/>
    </contour>
  </outline>
</glyph>
<glyph name="macron" format="2">
  <advance width="600"/>
  <unicode hex="00AF"/>
  <outline>
    <contour>
      <point x="193" y="658" type="line"/>
      <point x="196" y="676" type="line"/>
      <point x="454" y="676" type="line"/>
      <point x="451" y="658" type="line"/>
    </contour>
  </outline>
</glyph>
<glyph name="u00B3" format="2">
  <advance width="345"/>
  <unicode hex="00B3"/>
  <outline>
    <contour>
      <point x="192" y="323" type="qcurve" smooth="yes"/>
      <point x="103" y="323"/>
      <point x="74" y="380" type="qcurve"/>
      <point x="88" y="390" type="line"/>
      <point x="101" y="367"/>
      <point x="148" y="340"/>
      <point x="193" y="340" type="qcurve" smooth="yes"/>
      <point x="290" y="340"/>
      <point x="307" y="420" type="qcurve"/>
      <point x="310" y="432"/>
      <point x="310" y="444" type="qcurve" smooth="yes"/>
      <point x="310" y="477"/>
      <point x="271" y="512"/>
      <point x="222" y="512" type="qcurve" smooth="yes"/>
      <point x="169" y="512" type="line"/>
      <point x="172" y="529" type="line"/>
      <point x="218" y="529" type="line" smooth="yes"/>
      <point x="323" y="529"/>
      <point x="335" y="598" type="qcurve"/>
      <point x="336" y="601" type="line"/>
      <point x="337" y="606"/>
      <point x="337" y="617" type="qcurve" smooth="yes"/>
      <point x="337" y="687"/>
      <point x="252" y="687" type="qcurve" smooth="yes"/>
      <point x="212" y="687"/>
      <point x="163" y="663"/>
      <point x="143" y="641" type="qcurve"/>
      <point x="130" y="651" type="line"/>
      <point x="170" y="704"/>
      <point x="254" y="704" type="qcurve" smooth="yes"/>
      <point x="305" y="704"/>
      <point x="357" y="657"/>
      <point x="357" y="617" type="qcurve" smooth="yes"/>
      <point x="357" y="539"/>
      <point x="266" y="522" type="qcurve"/>
      <point x="266" y="520" type="line"/>
      <point x="329" y="510"/>
      <point x="329" y="445" type="qcurve" smooth="yes"/>
      <point x="329" y="388"/>
      <point x="255" y="323"/>
    </contour>
  </outline>
</glyph>
<glyph name="periodcentered" format="2">
  <advance width="298"/>
  <unicode hex="00B7"/>
  <outline>
    <contour>
      <point x="157" y="277" type="qcurve" smooth="yes"/>
      <point x="131" y="277"/>
      <point x="131" y="296" type="qcurve" smooth="yes"/>
      <point x="131" y="335"/>
      <point x="163" y="335" type="qcurve" smooth="yes"/>
      <point x="188" y="335"/>
      <point x="188" y="316" type="qcurve" smooth="yes"/>
      <point x="188" y="310"/>
      <point x="183" y="289"/>
      <point x="172" y="277"/>
    </contour>
  </outline>
</glyph>
<glyph name="ordmasculine" format="2">
  <advance width="364"/>
  <unicode hex="00BA"/>
  <outline>
    <contour>
      <point x="210" y="384" type="qcurve" smooth="yes"/>
      <point x="267" y="384"/>
      <point x="339" y="457"/>
      <point x="350" y="515" type="qcurve"/>
      <point x="354" y="533"/>
      <point x="361" y="567"/>
      <point x="361" y="583" type="qcurve" smooth="yes"/>
      <point x="361" y="630"/>
      <point x="316" y="693"/>
      <point x="266" y="693" type="qcurve" smooth="yes"/>
      <point x="209" y="693"/>
      <point x="137" y="620"/>
      <point x="126" y="562" type="qcurve" smooth="yes"/>
      <point x="123" y="545"/>
      <point x="115" y="511"/>
      <point x="115" y="494" type="qcurve" smooth="yes"/>
      <point x="115" y="447"/>
      <point x="160" y="384"/>
    </contour>
    <contour>
      <point x="209" y="367" type="qcurve" smooth="yes"/>
      <point x="158" y="367"/>
      <point x="96" y="436"/>
      <point x="96" y="494" type="qcurve" smooth="yes"/>
      <point x="96" y="574"/>
      <point x="140" y="643" type="qcurve"/>
      <point x="188" y="710"/>
      <point x="267" y="710" type="qcurve" smooth="yes"/>
      <point x="319" y="710"/>
      <point x="380" y="641"/>
      <point x="380" y="583" type="qcurve" smooth="yes"/>
      <point x="380" y="504"/>
      <point x="336" y="435" type="qcurve"/>
      <point x="289" y="367"/>
    </contour>
  </outline>
</glyph>
<glyph name="onequarter" format="2">
  <advance width="793"/>
  <unicode hex="00BC"/>
  <outline>
    <contour>
      <point x="711" y="349" type="line"/>
      <point x="708" y="349" type="line"/>
      <point x="471" y="106" type="line"/>
      <point x="663" y="106" type="line"/>
    </contour>
    <contour>
      <point x="641" y="0" type="line"/>
      <point x="659" y="89" type="line"/>
      <point x="446" y="89" type="line"/>
      <point x="450" y="108" type="line"/>
      <point x="706" y="369" type="line"/>
      <point x="734" y="369" type="line"/>
      <point x="682" y="106" type="line"/>
      <point x="748" y="106" type="line"/>
      <point x="744" y="89" type="line"/>
      <point x="678" y="89" type="line"/>
      <point x="660" y="0" type="line"/>
    </contour>
    <contour>
      <point x="111" y="0" type="line"/>
      <point x="716" y="698" type="line"/>
      <point x="739" y="698" type="line"/>
      <point x="133" y="0" type="line"/>
    </contour>
    <contour>
      <point x="277" y="698" type="line"/>
      <point x="205" y="329" type="line"/>
      <point x="186" y="329" type="line"/>
      <point x="254" y="680" type="line"/>
      <point x="166" y="639" type="line"/>
      <point x="170" y="659" type="line"/>
      <point x="254" y="698" type="line"/>
    </contour>
  </outline>
</glyph>
<glyph name="questiondown" format="2">
  <advance width="453"/>
  <unicode hex="00BF"/>
  <outline>
    <contour>
      <point x="160" y="-204" type="qcurve" smooth="yes"/>
      <point x="82" y="-204"/>
      <point x="-9" y="-119"/>
      <point x="-9" y="-48" type="qcurve" smooth="yes"/>
      <point x="-9" y="46"/>
      <point x="107" y="163"/>
      <point x="229" y="175" type="qcurve"/>
      <point x="259" y="330" type="line"/>
      <point x="281" y="330" type="line"/>
      <point x="248" y="157" type="line"/>
      <point x="36" y="142"/>
      <point x="18" y="-2" type="qcurve"/>
      <point x="13" y="-28"/>
      <point x="13" y="-48" type="qcurve" smooth="yes"/>
      <point x="13" y="-112"/>
      <point x="89" y="-185"/>
      <point x="161" y="-185" type="qcurve" smooth="yes"/>
      <point x="236" y="-185"/>
      <point x="324" y="-112"/>
      <point x="350" y="-48" type="qcurve"/>
      <point x="369" y="-54" type="line"/>
      <point x="312" y="-204"/>
    </contour>
    <contour>
      <point x="297" y="453" type="qcurve" smooth="yes"/>
      <point x="272" y="453"/>
      <point x="272" y="472" type="qcurve" smooth="yes"/>
      <point x="272" y="478"/>
      <point x="277" y="499"/>
      <point x="288" y="511"/>
      <point x="303" y="511" type="qcurve" smooth="yes"/>
      <point x="329" y="511"/>
      <point x="329" y="492" type="qcurve" smooth="yes"/>
      <point x="329" y="453"/>
    </contour>
  </outline>
</glyph>
<glyph name="Icircumflex" format="2">
  <advance width="232"/>
  <unicode hex="00CE"/>
  <outline>
    <contour>
      <point x="54" y="0" type="line"/>
      <point x="194" y="698" type="line"/>
      <point x="216" y="698" type="line"/>
      <point x="76" y="0" type="line"/>
    </contour>
    <contour>
      <point x="263" y="906" type="line"/>
      <point x="115" y="779" type="line"/>
      <point x="102" y="791" type="line"/>
      <point x="252" y="923" type="line"/>
      <point x="276" y="923" type="line"/>
      <point x="382" y="789" type="line"/>
      <point x="367" y="779" type="line"/>
    </contour>
  </outline>
</glyph>
<glyph name="Ugrave" format="2">
  <advance width="639"/>
  <unicode hex="00D9"/>
  <outline>
    <contour>
      <point x="273" y="-12" type="qcurve" smooth="yes"/>
      <point x="182" y="-12"/>
      <point x="82" y="68"/>
      <point x="82" y="148" type="qcurve" smooth="yes"/>
      <point x="82" y="197"/>
      <point x="97" y="256" type="qcurve"/>
      <point x="185" y="698" type="line"/>
      <point x="207" y="698" type="line"/>
      <point x="112" y="221"/>
      <point x="109" y="199" type="qcurve"/>
      <point x="104" y="171"/>
      <point x="104" y="148" type="qcurve" smooth="yes"/>
      <point x="104" y="8"/>
      <point x="273" y="8" type="qcurve" smooth="yes"/>
      <point x="387" y="8"/>
      <point x="496" y="124"/>
      <point x="523" y="271" type="qcurve" smooth="yes"/>
      <point x="609" y="698" type="line"/>
      <point x="631" y="698" type="line"/>
      <point x="545" y="270" type="line" smooth="yes"/>
      <point x="516" y="112"/>
      <point x="398" y="-12"/>
    </contour>
    <contour>
      <point x="342" y="921" type="line"/>
      <point x="361" y="932" type="line"/>
      <point x="442" y="777" type="line"/>
      <point x="426" y="768" type="line"/>
    </contour>
  </outline>
</glyph>
<glyph name="Udieresis" format="2">
  <advance width="639"/>
  <unicode hex="00DC"/>
  <outline>
    <contour>
      <point x="343" y="819" type="qcurve" smooth="yes"/>
      <point x="323" y="819"/>
      <point x="323" y="836" type="qcurve" smooth="yes"/>
      <point x="323" y="842"/>
      <point x="328" y="857"/>
      <point x="337" y="868"/>
      <point x="349" y="868" type="qcurve" smooth="yes"/>
      <point x="369" y="868"/>
      <point x="369" y="851" type="qcurve" smooth="yes"/>
      <point x="369" y="819"/>
    </contour>
    <contour>
      <point x="525" y="819" type="qcurve" smooth="yes"/>
      <point x="505" y="819"/>
      <point x="505" y="836" type="qcurve" smooth="yes"/>
      <point x="505" y="842"/>
      <point x="510" y="857"/>
      <point x="519" y="868"/>
      <point x="531" y="868" type="qcurve" smooth="yes"/>
      <point x="551" y="868"/>
      <point x="551" y="851" type="qcurve" smooth="yes"/>
      <point x="551" y="819"/>
    </contour>
    <contour>
      <point x="273" y="-12" type="qcurve" smooth="yes"/>
      <point x="182" y="-12"/>
      <point x="82" y="68"/>
      <point x="82" y="148" type="qcurve" smooth="yes"/>
      <point x="82" y="197"/>
      <point x="97" y="256" type="qcurve"/>
      <point x="185" y="698" type="line"/>
      <point x="207" y="698" type="line"/>
      <point x="112" y="221"/>
      <point x="109" y="199" type="qcurve"/>
      <point x="104" y="171"/>
      <point x="104" y="148" type="qcurve" smooth="yes"/>
      <point x="104" y="8"/>
      <point x="273" y="8" type="qcurve" smooth="yes"/>
      <point x="387" y="8"/>
      <point x="496" y="124"/>
      <point x="523" y="271" type="qcurve" smooth="yes"/>
      <point x="609" y="698" type="line"/>
      <point x="631" y="698" type="line"/>
      <point x="545" y="270" type="line" smooth="yes"/>
      <point x="516" y="112"/>
      <point x="398" y="-12"/>
    </contour>
  </outline>
</glyph>
<glyph name="acircumflex" format="2">
  <advance width="567"/>
  <unicode hex="00E2"/>
  <outline>
    <contour>
      <point x="368" y="726" type="line"/>
      <point x="220" y="599" type="line"/>
      <point x="207" y="611" type="line"/>
      <point x="357" y="743" type="line"/>
      <point x="381" y="743" type="line"/>
      <point x="487" y="609" type="line"/>
      <point x="472" y="599" type="line"/>
    </contour>
    <contour>
      <point x="223" y="-12" type="qcurve" smooth="yes"/>
      <point x="145" y="-12"/>
      <point x="60" y="97"/>
      <point x="60" y="176" type="qcurve" smooth="yes"/>
      <point x="60" y="314"/>
      <point x="125" y="416" type="qcurve" smooth="yes"/>
      <point x="192" y="518"/>
      <point x="309" y="518" type="qcurve" smooth="yes"/>
      <point x="373" y="518"/>
      <point x="451" y="461"/>
      <point x="465" y="413" type="qcurve"/>
      <point x="468" y="413" type="line"/>
      <point x="486" y="506" type="line"/>
      <point x="507" y="506" type="line"/>
      <point x="410" y="19" type="line"/>
      <point x="495" y="19" type="line"/>
      <point x="491" y="0" type="line"/>
      <point x="413" y="0" type="line" smooth="yes"/>
      <point x="390" y="0"/>
      <point x="390" y="19" type="qcurve" smooth="yes"/>
      <point x="390" y="24"/>
      <point x="392" y="32"/>
      <point x="392" y="35" type="qcurve"/>
      <point x="407" y="111" type="line"/>
      <point x="404" y="111" type="line"/>
      <point x="372" y="54"/>
      <point x="287" y="-12"/>
    </contour>
    <contour>
      <point x="223" y="7" type="qcurve" smooth="yes"/>
      <point x="288" y="7"/>
      <point x="333" y="47" type="qcurve"/>
      <point x="398" y="96"/>
      <point x="426" y="204" type="qcurve"/>
      <point x="454" y="346" type="line"/>
      <point x="457" y="359"/>
      <point x="457" y="372" type="qcurve" smooth="yes"/>
      <point x="457" y="411"/>
      <point x="431" y="448" type="qcurve"/>
      <point x="393" y="499"/>
      <point x="309" y="499" type="qcurve" smooth="yes"/>
      <point x="223" y="499"/>
      <point x="113" y="382"/>
      <point x="94" y="282" type="qcurve" smooth="yes"/>
      <point x="87" y="247" type="line" smooth="yes"/>
      <point x="81" y="218"/>
      <point x="81" y="176" type="qcurve" smooth="yes"/>
      <point x="81" y="106"/>
      <point x="153" y="7"/>
    </contour>
  </outline>
</glyph>
<glyph name="igrave" format="2">
  <advance width="235"/>
  <unicode hex="00EC"/>
  <outline>
    <contour>
      <point x="108" y="740" type="line"/>
      <point x="127" y="751" type="line"/>
      <point x="208" y="596" type="line"/>
      <point x="192" y="587" type="line"/>
    </contour>
    <contour>
      <point x="81" y="0" type="line" smooth="yes"/>
      <point x="58" y="0"/>
      <point x="58" y="19" type="qcurve" smooth="yes"/>
      <point x="58" y="25"/>
      <point x="155" y="506" type="qcurve"/>
      <point x="176" y="506" type="line"/>
      <point x="78" y="19" type="line"/>
      <point x="163" y="19" type="line"/>
      <point x="159" y="0" type="line"/>
    </contour>
  </outline>
</glyph>
<glyph name="iacute" format="2">
  <advance width="235"/>
  <unicode hex="00ED"/>
  <outline>
    <contour>
      <point x="148" y="598" type="line"/>
      <point x="291" y="751" type="line"/>
      <point x="308" y="738" type="line"/>
      <point x="161" y="587" type="line"/>
    </contour>
    <contour>
      <point x="81" y="0" type="line" smooth="yes"/>
      <point x="58" y="0"/>
      <point x="58" y="19" type="qcurve" smooth="yes"/>
      <point x="58" y="25"/>
      <point x="155" y="506" type="qcurve"/>
      <point x="176" y="506" type="line"/>
      <point x="78" y="19" type="line"/>
      <point x="163" y="19" type="line"/>
      <point x="159" y="0" type="line"/>
    </contour>
  </outline>
</glyph>
<glyph name="idieresis" format="2">
  <advance width="235"/>
  <unicode hex="00EF"/>
  <outline>
    <contour>
      <point x="81" y="0" type="line" smooth="yes"/>
      <point x="58" y="0"/>
      <point x="58" y="19" type="qcurve" smooth="yes"/>
      <point x="58" y="25"/>
      <point x="155" y="506" type="qcurve"/>
      <point x="176" y="506" type="line"/>
      <point x="78" y="19" type="line"/>
      <point x="163" y="19" type="line"/>
      <point x="159" y="0" type="line"/>
    </contour>
    <contour>
      <point x="104" y="642" type="qcurve" smooth="yes"/>
      <point x="84" y="642"/>
      <point x="84" y="659" type="qcurve" smooth="yes"/>
      <point x="84" y="665"/>
      <point x="89" y="680"/>
      <point x="98" y="691"/>
      <point x="110" y="691" type="qcurve" smooth="yes"/>
      <point x="130" y="691"/>
      <point x="130" y="674" type="qcurve" smooth="yes"/>
      <point x="130" y="642"/>
    </contour>
    <contour>
      <point x="286" y="642" type="qcurve" smooth="yes"/>
      <point x="266" y="642"/>
      <point x="266" y="659" type="qcurve" smooth="yes"/>
      <point x="266" y="665"/>
      <point x="271" y="680"/>
      <point x="280" y="691"/>
      <point x="292" y="691" type="qcurve" smooth="yes"/>
      <point x="312" y="691"/>
      <point x="312" y="674" type="qcurve" smooth="yes"/>
      <point x="312" y="642"/>
    </contour>
  </outline>
</glyph>
<glyph name="ntilde" format="2">
  <advance width="548"/>
  <unicode hex="00F1"/>
  <outline>
    <contour>
      <point x="403" y="0" type="line" smooth="yes"/>
      <point x="380" y="0"/>
      <point x="380" y="19" type="qcurve" smooth="yes"/>
      <point x="380" y="25"/>
      <point x="439" y="320" type="qcurve"/>
      <point x="446" y="361"/>
      <point x="446" y="383" type="qcurve" smooth="yes"/>
      <point x="446" y="499"/>
      <point x="332" y="499" type="qcurve" smooth="yes"/>
      <point x="253" y="499"/>
      <point x="199" y="437" type="qcurve" smooth="yes"/>
      <point x="152" y="384"/>
      <point x="136" y="312" type="qcurve"/>
      <point x="74" y="0" type="line"/>
      <point x="53" y="0" type="line"/>
      <point x="154" y="506" type="line"/>
      <point x="175" y="506" type="line"/>
      <point x="154" y="401" type="line"/>
      <point x="157" y="401" type="line"/>
      <point x="187" y="458"/>
      <point x="272" y="518"/>
      <point x="335" y="518" type="qcurve" smooth="yes"/>
      <point x="399" y="518"/>
      <point x="467" y="449"/>
      <point x="467" y="386" type="qcurve" smooth="yes"/>
      <point x="467" y="356"/>
      <point x="460" y="321" type="qcurve" smooth="yes"/>
      <point x="400" y="19" type="line"/>
      <point x="485" y="19" type="line"/>
      <point x="481" y="0" type="line"/>
    </contour>
    <contour>
      <point x="424" y="628" type="qcurve" smooth="yes"/>
      <point x="404" y="628"/>
      <point x="375" y="643"/>
      <point x="352" y="659" type="qcurve" smooth="yes"/>
      <point x="334" y="672"/>
      <point x="305" y="684"/>
      <point x="288" y="684" type="qcurve" smooth="yes"/>
      <point x="257" y="684"/>
      <point x="219" y="651" type="qcurve"/>
      <point x="208" y="663" type="line"/>
      <point x="251" y="702"/>
      <point x="293" y="702" type="qcurve" smooth="yes"/>
      <point x="313" y="702"/>
      <point x="343" y="688"/>
      <point x="365" y="672" type="qcurve" smooth="yes"/>
      <point x="383" y="659"/>
      <point x="412" y="646"/>
      <point x="429" y="646" type="qcurve" smooth="yes"/>
      <point x="464" y="646"/>
      <point x="498" y="679" type="qcurve"/>
      <point x="509" y="667" type="line"/>
      <point x="466" y="628"/>
    </contour>
  </outline>
</glyph>
<glyph name="ograve" format="2">
  <advance width="534"/>
  <unicode hex="00F2"/>
  <outline>
    <contour>
      <point x="249" y="740" type="line"/>
      <point x="268" y="751" type="line"/>
      <point x="349" y="596" type="line"/>
      <point x="333" y="587" type="line"/>
    </contour>
    <contour>
      <point x="225" y="-12" type="qcurve" smooth="yes"/>
      <point x="146" y="-12"/>
      <point x="59" y="93"/>
      <point x="59" y="169" type="qcurve" smooth="yes"/>
      <point x="59" y="309"/>
      <point x="123" y="414" type="qcurve"/>
      <point x="190" y="518"/>
      <point x="309" y="518" type="qcurve" smooth="yes"/>
      <point x="389" y="518"/>
      <point x="475" y="411"/>
      <point x="475" y="337" type="qcurve" smooth="yes"/>
      <point x="475" y="267"/>
      <point x="444" y="141"/>
      <point x="381" y="44"/>
      <point x="287" y="-12"/>
    </contour>
    <contour>
      <point x="227" y="7" type="qcurve" smooth="yes"/>
      <point x="312" y="7"/>
      <point x="421" y="122"/>
      <point x="441" y="225" type="qcurve" smooth="yes"/>
      <point x="449" y="265" type="line"/>
      <point x="454" y="297"/>
      <point x="454" y="337" type="qcurve" smooth="yes"/>
      <point x="454" y="403"/>
      <point x="419" y="451" type="qcurve"/>
      <point x="380" y="499"/>
      <point x="307" y="499" type="qcurve" smooth="yes"/>
      <point x="222" y="499"/>
      <point x="114" y="384"/>
      <point x="93" y="281" type="qcurve" smooth="yes"/>
      <point x="85" y="241" type="line"/>
      <point x="80" y="210"/>
      <point x="80" y="169" type="qcurve" smooth="yes"/>
      <point x="80" y="103"/>
      <point x="115" y="55" type="qcurve"/>
      <point x="154" y="7"/>
    </contour>
  </outline>
</glyph>
<glyph name="divide" format="2">
  <advance width="600"/>
  <unicode hex="00F7"/>
  <outline>
    <contour>
      <point x="270" y="81" type="qcurve" smooth="yes"/>
      <point x="241" y="81"/>
      <point x="241" y="100" type="qcurve" smooth="yes"/>
      <point x="241" y="107"/>
      <point x="244" y="122" type="qcurve" smooth="yes"/>
      <point x="248" y="143"/>
      <point x="276" y="143" type="qcurve" smooth="yes"/>
      <point x="304" y="143"/>
      <point x="304" y="124" type="qcurve" smooth="yes"/>
      <point x="304" y="117"/>
      <point x="301" y="102" type="qcurve" smooth="yes"/>
      <point x="299" y="93"/>
      <point x="287" y="81"/>
    </contour>
    <contour>
      <point x="348" y="468" type="qcurve" smooth="yes"/>
      <point x="319" y="468"/>
      <point x="319" y="487" type="qcurve" smooth="yes"/>
      <point x="319" y="494"/>
      <point x="322" y="509" type="qcurve" smooth="yes"/>
      <point x="326" y="530"/>
      <point x="354" y="530" type="qcurve" smooth="yes"/>
      <point x="382" y="530"/>
      <point x="382" y="511" type="qcurve" smooth="yes"/>
      <point x="382" y="504"/>
      <point x="379" y="489" type="qcurve" smooth="yes"/>
      <point x="377" y="480"/>
      <point x="365" y="468"/>
    </contour>
    <contour>
      <point x="71" y="296" type="line"/>
      <point x="75" y="315" type="line"/>
      <point x="551" y="315" type="line"/>
      <point x="547" y="296" type="line"/>
    </contour>
  </outline>
</glyph>
<glyph name="Aogonek" format="2">
  <advance width="594"/>
  <unicode hex="0104"/>
  <outline>
    <contour>
      <point x="367" y="673" type="line"/>
      <point x="364" y="673" type="line"/>
      <point x="144" y="253" type="line"/>
      <point x="448" y="253" type="line"/>
    </contour>
    <contour>
      <point x="422" y="-202" type="qcurve" smooth="yes"/>
      <point x="391" y="-202"/>
      <point x="350" y="-170"/>
      <point x="350" y="-136" type="qcurve" smooth="yes"/>
      <point x="350" y="-107"/>
      <point x="409" y="-42"/>
      <point x="496" y="0" type="qcurve"/>
      <point x="452" y="234" type="line"/>
      <point x="134" y="234" type="line"/>
      <point x="12" y="0" type="line"/>
      <point x="-12" y="0" type="line"/>
      <point x="354" y="698" type="line"/>
      <point x="384" y="698" type="line"/>
      <point x="519" y="0" type="line"/>
      <point x="442" y="-42"/>
      <point x="371" y="-98"/>
      <point x="371" y="-136" type="qcurve" smooth="yes"/>
      <point x="371" y="-160"/>
      <point x="400" y="-184"/>
      <point x="422" y="-184" type="qcurve" smooth="yes"/>
      <point x="463" y="-184"/>
      <point x="487" y="-159" type="qcurve"/>
      <point x="500" y="-170" type="line"/>
      <point x="475" y="-202"/>
    </contour>
  </outline>
</glyph>
<glyph name="aogonek" format="2">
  <advance width="567"/>
  <unicode hex="0105"/>
  <outline>
    <contour>
      <point x="394" y="-202" type="qcurve" smooth="yes"/>
      <point x="363" y="-202"/>
      <point x="322" y="-170"/>
      <point x="322" y="-136" type="qcurve" smooth="yes"/>
      <point x="322" y="-106"/>
      <point x="379" y="-44"/>
      <point x="461" y="-3" type="qcurve"/>
      <point x="460" y="0" type="line"/>
      <point x="414" y="0" type="line" smooth="yes"/>
      <point x="390" y="0"/>
      <point x="390" y="19" type="qcurve" smooth="yes"/>
      <point x="390" y="24"/>
      <point x="392" y="32"/>
      <point x="392" y="35" type="qcurve"/>
      <point x="407" y="111" type="line"/>
      <point x="404" y="111" type="line"/>
      <point x="372" y="54"/>
      <point x="287" y="-12"/>
      <point x="223" y="-12" type="qcurve" smooth="yes"/>
      <point x="145" y="-12"/>
      <point x="60" y="97"/>
      <point x="60" y="176" type="qcurve" smooth="yes"/>
      <point x="60" y="314"/>
      <point x="125" y="416" type="qcurve" smooth="yes"/>
      <point x="192" y="518"/>
      <point x="309" y="518" type="qcurve" smooth="yes"/>
      <point x="373" y="518"/>
      <point x="451" y="461"/>
      <point x="465" y="413" type="qcurve"/>
      <point x="468" y="413" type="line"/>
      <point x="486" y="506" type="line"/>
      <point x="507" y="506" type="line"/>
      <point x="410" y="19" type="line"/>
      <point x="495" y="19" type="line"/>
      <point x="491" y="0" type="line"/>
      <point x="414" y="-42"/>
      <point x="343" y="-98"/>
      <point x="343" y="-136" type="qcurve" smooth="yes"/>
      <point x="343" y="-160"/>
      <point x="372" y="-184"/>
      <point x="394" y="-184" type="qcurve" smooth="yes"/>
      <point x="435" y="-184"/>
      <point x="459" y="-159" type="qcurve"/>
      <point x="472" y="-170" type="line"/>
      <point x="447" y="-202"/>
    </contour>
    <contour>
      <point x="223" y="7" type="qcurve" smooth="yes"/>
      <point x="288" y="7"/>
      <point x="333" y="47" type="qcurve"/>
      <point x="398" y="96"/>
      <point x="426" y="204" type="qcurve"/>
      <point x="454" y="346" type="line"/>
      <point x="457" y="359"/>
      <point x="457" y="372" type="qcurve" smooth="yes"/>
      <point x="457" y="411"/>
      <point x="431" y="448" type="qcurve"/>
      <point x="393" y="499"/>
      <point x="309" y="499" type="qcurve" smooth="yes"/>
      <point x="223" y="499"/>
      <point x="113" y="382"/>
      <point x="94" y="282" type="qcurve" smooth="yes"/>
      <point x="87" y="247" type="line" smooth="yes"/>
      <point x="81" y="218"/>
      <point x="81" y="176" type="qcurve" smooth="yes"/>
      <point x="81" y="106"/>
      <point x="153" y="7"/>
    </contour>
  </outline>
</glyph>
<glyph name="Dcaron" format="2">
  <advance width="648"/>
  <unicode hex="010E"/>
  <outline>
    <contour>
      <point x="282" y="20" type="line" smooth="yes"/>
      <point x="395" y="20"/>
      <point x="472" y="104" type="qcurve"/>
      <point x="544" y="186"/>
      <point x="567" y="303" type="qcurve" smooth="yes"/>
      <point x="588" y="408"/>
      <point x="588" y="468" type="qcurve" smooth="yes"/>
      <point x="588" y="565"/>
      <point x="483" y="678"/>
      <point x="375" y="678" type="qcurve" smooth="yes"/>
      <point x="211" y="678" type="line"/>
      <point x="81" y="20" type="line"/>
    </contour>
    <contour>
      <point x="55" y="0" type="line"/>
      <point x="193" y="698" type="line"/>
      <point x="378" y="698" type="line" smooth="yes"/>
      <point x="493" y="698"/>
      <point x="610" y="577"/>
      <point x="610" y="468" type="qcurve" smooth="yes"/>
      <point x="610" y="383"/>
      <point x="572" y="216"/>
      <point x="492" y="81"/>
      <point x="367" y="0"/>
      <point x="282" y="0" type="qcurve" smooth="yes"/>
    </contour>
    <contour>
      <point x="373" y="783" type="line"/>
      <point x="267" y="917" type="line"/>
      <point x="282" y="927" type="line"/>
      <point x="386" y="800" type="line"/>
      <point x="534" y="927" type="line"/>
      <point x="547" y="915" type="line"/>
      <point x="397" y="783" type="line"/>
    </contour>
  </outline>
</glyph>
<glyph name="Ebreve" format="2">
  <advance width="553"/>
  <unicode hex="0114"/>
  <outline>
    <contour>
      <point x="54" y="0" type="line"/>
      <point x="194" y="698" type="line"/>
      <point x="572" y="698" type="line"/>
      <point x="568" y="678" type="line"/>
      <point x="212" y="678" type="line"/>
      <point x="149" y="364" type="line"/>
      <point x="493" y="364" type="line"/>
      <point x="489" y="344" type="line"/>
      <point x="145" y="344" type="line"/>
      <point x="80" y="20" type="line"/>
      <point x="436" y="20" type="line"/>
      <point x="432" y="0" type="line"/>
    </contour>
    <contour>
      <point x="398" y="786" type="qcurve" smooth="yes"/>
      <point x="349" y="786"/>
      <point x="300" y="847"/>
      <point x="283" y="903" type="qcurve"/>
      <point x="299" y="910" type="line"/>
      <point x="314" y="873" type="line"/>
      <point x="337" y="805"/>
      <point x="398" y="805" type="qcurve" smooth="yes"/>
      <point x="432" y="805"/>
      <point x="479" y="836"/>
      <point x="505" y="874" type="qcurve" smooth="yes"/>
      <point x="530" y="910" type="line"/>
      <point x="546" y="903" type="line"/>
      <point x="543" y="899" type="line"/>
      <point x="511" y="847"/>
      <point x="451" y="786"/>
    </contour>
  </outline>
</glyph>
<glyph name="Itilde" format="2">
  <advance width="232"/>
  <unicode hex="0128"/>
  <outline>
    <contour>
      <point x="54" y="0" type="line"/>
      <point x="194" y="698" type="line"/>
      <point x="216" y="698" type="line"/>
      <point x="76" y="0" type="line"/>
    </contour>
    <contour>
      <point x="288" y="808" type="qcurve" smooth="yes"/>
      <point x="268" y="808"/>
      <point x="239" y="823"/>
      <point x="216" y="839" type="qcurve" smooth="yes"/>
      <point x="198" y="852"/>
      <point x="169" y="864"/>
      <point x="152" y="864" type="qcurve" smooth="yes"/>
      <point x="121" y="864"/>
      <point x="83" y="831" type="qcurve"/>
      <point x="72" y="843" type="line"/>
      <point x="115" y="882"/>
      <point x="157" y="882" type="qcurve" smooth="yes"/>
      <point x="177" y="882"/>
      <point x="207" y="868"/>
      <point x="229" y="852" type="qcurve" smooth="yes"/>
      <point x="247" y="839"/>
      <point x="276" y="826"/>
      <point x="293" y="826" type="qcurve" smooth="yes"/>
      <point x="328" y="826"/>
      <point x="362" y="859" type="qcurve"/>
      <point x="373" y="847" type="line"/>
      <point x="330" y="808"/>
    </contour>
  </outline>
</glyph>
<glyph name="Ibreve" format="2">
  <advance width="232"/>
  <unicode hex="012C"/>
  <outline>
    <contour>
      <point x="223" y="786" type="qcurve" smooth="yes"/>
      <point x="174" y="786"/>
      <point x="125" y="847"/>
      <point x="108" y="903" type="qcurve"/>
      <point x="124" y="910" type="line"/>
      <point x="139" y="873" type="line"/>
      <point x="162" y="805"/>
      <point x="223" y="805" type="qcurve" smooth="yes"/>
      <point x="257" y="805"/>
      <point x="304" y="836"/>
      <point x="330" y="874" type="qcurve" smooth="yes"/>
      <point x="355" y="910" type="line"/>
      <point x="371" y="903" type="line"/>
      <point x="368" y="899" type="line"/>
      <point x="336" y="847"/>
      <point x="276" y="786"/>
    </contour>
    <contour>
      <point x="54" y="0" type="line"/>
      <point x="194" y="698" type="line"/>
      <point x="216" y="698" type="line"/>
      <point x="76" y="0" type="line"/>
    </contour>
  </outline>
</glyph>
<glyph name="iogonek" format="2">
  <advance width="235"/>
  <unicode hex="012F"/>
  <outline>
    <contour>
      <point x="62" y="-202" type="qcurve" smooth="yes"/>
      <point x="31" y="-202"/>
      <point x="-10" y="-170"/>
      <point x="-10" y="-136" type="qcurve" smooth="yes"/>
      <point x="-10" y="-106"/>
      <point x="47" y="-44"/>
      <point x="129" y="-3" type="qcurve"/>
      <point x="128" y="0" type="line"/>
      <point x="82" y="0" type="line" smooth="yes"/>
      <point x="58" y="0"/>
      <point x="58" y="19" type="qcurve" smooth="yes"/>
      <point x="58" y="25"/>
      <point x="155" y="506" type="qcurve"/>
      <point x="176" y="506" type="line"/>
      <point x="78" y="19" type="line"/>
      <point x="163" y="19" type="line"/>
      <point x="159" y="0" type="line"/>
      <point x="82" y="-42"/>
      <point x="11" y="-98"/>
      <point x="11" y="-136" type="qcurve" smooth="yes"/>
      <point x="11" y="-160"/>
      <point x="40" y="-184"/>
      <point x="62" y="-184" type="qcurve" smooth="yes"/>
      <point x="103" y="-184"/>
      <point x="127" y="-159" type="qcurve"/>
      <point x="140" y="-170" type="line"/>
      <point x="115" y="-202"/>
    </contour>
    <contour>
      <point x="200" y="673" type="qcurve" smooth="yes"/>
      <point x="180" y="673"/>
      <point x="180" y="689" type="qcurve" smooth="yes"/>
      <point x="180" y="693"/>
      <point x="181" y="699"/>
      <point x="182" y="703" type="qcurve"/>
      <point x="184" y="722"/>
      <point x="209" y="722" type="qcurve" smooth="yes"/>
      <point x="229" y="722"/>
      <point x="229" y="706" type="qcurve" smooth="yes"/>
      <point x="229" y="702"/>
      <point x="228" y="696"/>
      <point x="227" y="692" type="qcurve"/>
      <point x="226" y="673"/>
    </contour>
  </outline>
</glyph>
<glyph name="ij" format="2">
  <advance width="465"/>
  <unicode hex="0133"/>
  <outline>
    <contour>
      <point x="200" y="673" type="qcurve" smooth="yes"/>
      <point x="180" y="673"/>
      <point x="180" y="689" type="qcurve" smooth="yes"/>
      <point x="180" y="693"/>
      <point x="181" y="699"/>
      <point x="182" y="703" type="qcurve"/>
      <point x="184" y="722"/>
      <point x="209" y="722" type="qcurve" smooth="yes"/>
      <point x="229" y="722"/>
      <point x="229" y="706" type="qcurve" smooth="yes"/>
      <point x="229" y="702"/>
      <point x="228" y="696"/>
      <point x="227" y="692" type="qcurve"/>
      <point x="226" y="673"/>
    </contour>
    <contour>
      <point x="435" y="673" type="qcurve" smooth="yes"/>
      <point x="415" y="673"/>
      <point x="415" y="689" type="qcurve" smooth="yes"/>
      <point x="415" y="693"/>
      <point x="416" y="699"/>
      <point x="417" y="703" type="qcurve"/>
      <point x="419" y="722"/>
      <point x="444" y="722" type="qcurve" smooth="yes"/>
      <point x="464" y="722"/>
      <point x="464" y="706" type="qcurve" smooth="yes"/>
      <point x="464" y="702"/>
      <point x="463" y="696"/>
      <point x="462" y="692" type="qcurve"/>
      <point x="461" y="673"/>
    </contour>
    <contour>
      <point x="81" y="0" type="line" smooth="yes"/>
      <point x="58" y="0"/>
      <point x="58" y="19" type="qcurve" smooth="yes"/>
      <point x="58" y="25"/>
      <point x="155" y="506" type="qcurve"/>
      <point x="176" y="506" type="line"/>
      <point x="78" y="19" type="line"/>
      <point x="163" y="19" type="line"/>
      <point x="159" y="0" type="line"/>
    </contour>
    <contour>
      <point x="164" y="-200" type="line"/>
      <point x="168" y="-181" type="line"/>
      <point x="253" y="-181" type="line"/>
      <point x="390" y="506" type="line"/>
      <point x="411" y="506" type="line"/>
      <point x="277" y="-167" type="line"/>
      <point x="274" y="-187"/>
      <point x="257" y="-200"/>
      <point x="236" y="-200" type="qcurve" smooth="yes"/>
    </contour>
  </outline>
</glyph>
<glyph name="jcircumflex" format="2">
  <advance width="229"/>
  <unicode hex="0135"/>
  <outline>
    <contour>
      <point x="211" y="726" type="line"/>
      <point x="63" y="599" type="line"/>
      <point x="50" y="611" type="line"/>
      <point x="200" y="743" type="line"/>
      <point x="224" y="743" type="line"/>
      <point x="330" y="609" type="line"/>
      <point x="315" y="599" type="line"/>
    </contour>
    <contour>
      <point x="-72" y="-200" type="line"/>
      <point x="-68" y="-181" type="line"/>
      <point x="17" y="-181" type="line"/>
      <point x="154" y="506" type="line"/>
      <point x="175" y="506" type="line"/>
      <point x="41" y="-167" type="line"/>
      <point x="38" y="-187"/>
      <point x="21" y="-200"/>
      <point x="0" y="-200" type="qcurve" smooth="yes"/>
    </contour>
  </outline>
</glyph>
<glyph name="Kcedilla" format="2">
  <advance width="564"/>
  <unicode hex="0136"/>
  <outline>
    <contour>
      <point x="474" y="0" type="line"/>
      <point x="290" y="388" type="line"/>
      <point x="125" y="237" type="line"/>
      <point x="76" y="0" type="line"/>
      <point x="54" y="0" type="line"/>
      <point x="194" y="698" type="line"/>
      <point x="216" y="698" type="line"/>
      <point x="131" y="271" type="line"/>
      <point x="134" y="271" type="line"/>
      <point x="368" y="485"/>
      <point x="604" y="698" type="qcurve"/>
      <point x="633" y="698" type="line"/>
      <point x="307" y="402" type="line"/>
      <point x="497" y="0" type="line"/>
    </contour>
    <contour>
      <point x="191" y="-212" type="line"/>
      <point x="237" y="-155"/>
      <point x="247" y="-115" type="qcurve"/>
      <point x="222" y="-115"/>
      <point x="222" y="-99" type="qcurve" smooth="yes"/>
      <point x="222" y="-93"/>
      <point x="226" y="-77"/>
      <point x="237" y="-66"/>
      <point x="250" y="-66" type="qcurve" smooth="yes"/>
      <point x="271" y="-66"/>
      <point x="271" y="-82" type="qcurve"/>
      <point x="269" y="-99" type="line"/>
      <point x="265" y="-123"/>
      <point x="233" y="-186"/>
      <point x="209" y="-212" type="qcurve"/>
    </contour>
  </outline>
</glyph>
<glyph name="Lacute" format="2">
  <advance width="468"/>
  <unicode hex="0139"/>
  <outline>
    <contour>
      <point x="54" y="0" type="line"/>
      <point x="194" y="698" type="line"/>
      <point x="216" y="698" type="line"/>
      <point x="80" y="20" type="line"/>
      <point x="405" y="20" type="line"/>
      <point x="401" y="0" type="line"/>
    </contour>
    <contour>
      <point x="208" y="778" type="line"/>
      <point x="351" y="931" type="line"/>
      <point x="368" y="918" type="line"/>
      <point x="221" y="767" type="line"/>
    </contour>
  </outline>
</glyph>
<glyph name="lcommaaccent" format="2">
  <advance width="235"/>
  <unicode hex="013C"/>
  <outline>
    <contour>
      <point x="31" y="-212" type="line"/>
      <point x="77" y="-155"/>
      <point x="87" y="-115" type="qcurve"/>
      <point x="62" y="-115"/>
      <point x="62" y="-99" type="qcurve" smooth="yes"/>
      <point x="62" y="-93"/>
      <point x="66" y="-77"/>
      <point x="77" y="-66"/>
      <point x="90" y="-66" type="qcurve" smooth="yes"/>
      <point x="111" y="-66"/>
      <point x="111" y="-82" type="qcurve"/>
      <point x="109" y="-99" type="line"/>
      <point x="105" y="-123"/>
      <point x="73" y="-186"/>
      <point x="49" y="-212" type="qcurve"/>
    </contour>
    <contour>
      <point x="81" y="0" type="line" smooth="yes"/>
      <point x="58" y="0"/>
      <point x="58" y="19" type="qcurve" smooth="yes"/>
      <point x="58" y="25"/>
      <point x="201" y="740" type="qcurve"/>
      <point x="222" y="740" type="line"/>
      <point x="78" y="19" type="line"/>
      <point x="163" y="19" type="line"/>
      <point x="159" y="0" type="line"/>
    </contour>
  </outline>
</glyph>
<glyph name="Ldot" format="2">
  <advance width="468"/>
  <unicode hex="013F"/>
  <outline>
    <contour>
      <point x="345" y="274" type="qcurve" smooth="yes"/>
      <point x="325" y="274"/>
      <point x="325" y="291" type="qcurve" smooth="yes"/>
      <point x="325" y="297"/>
      <point x="330" y="312"/>
      <point x="339" y="323"/>
      <point x="351" y="323" type="qcurve" smooth="yes"/>
      <point x="371" y="323"/>
      <point x="371" y="306" type="qcurve" smooth="yes"/>
      <point x="371" y="274"/>
    </contour>
    <contour>
      <point x="54" y="0" type="line"/>
      <point x="194" y="698" type="line"/>
      <point x="216" y="698" type="line"/>
      <point x="80" y="20" type="line"/>
      <point x="405" y="20" type="line"/>
      <point x="401" y="0" type="line"/>
    </contour>
  </outline>
</glyph>
<glyph name="Ncedilla" format="2">
  <advance width="680"/>
  <unicode hex="0145"/>
  <outline>
    <contour>
      <point x="494" y="0" type="line"/>
      <point x="212" y="671" type="line"/>
      <point x="209" y="671" type="line"/>
      <point x="75" y="0" type="line"/>
      <point x="54" y="0" type="line"/>
      <point x="194" y="698" type="line"/>
      <point x="224" y="698" type="line"/>
      <point x="506" y="27" type="line"/>
      <point x="509" y="27" type="line"/>
      <point x="643" y="698" type="line"/>
      <point x="664" y="698" type="line"/>
      <point x="524" y="0" type="line"/>
    </contour>
    <contour>
      <point x="225" y="-212" type="line"/>
      <point x="271" y="-155"/>
      <point x="281" y="-115" type="qcurve"/>
      <point x="256" y="-115"/>
      <point x="256" y="-99" type="qcurve" smooth="yes"/>
      <point x="256" y="-93"/>
      <point x="260" y="-77"/>
      <point x="271" y="-66"/>
      <point x="284" y="-66" type="qcurve" smooth="yes"/>
      <point x="305" y="-66"/>
      <point x="305" y="-82" type="qcurve"/>
      <point x="303" y="-99" type="line"/>
      <point x="299" y="-123"/>
      <point x="267" y="-186"/>
      <point x="243" y="-212" type="qcurve"/>
    </contour>
  </outline>
</glyph>
<glyph name="Ncaron" format="2">
  <advance width="680"/>
  <unicode hex="0147"/>
  <outline>
    <contour>
      <point x="494" y="0" type="line"/>
      <point x="212" y="671" type="line"/>
      <point x="209" y="671" type="line"/>
      <point x="75" y="0" type="line"/>
      <point x="54" y="0" type="line"/>
      <point x="194" y="698" type="line"/>
      <point x="224" y="698" type="line"/>
      <point x="506" y="27" type="line"/>
      <point x="509" y="27" type="line"/>
      <point x="643" y="698" type="line"/>
      <point x="664" y="698" type="line"/>
      <point x="524" y="0" type="line"/>
    </contour>
    <contour>
      <point x="444" y="783" type="line"/>
      <point x="338" y="917" type="line"/>
      <point x="353" y="927" type="line"/>
      <point x="457" y="800" type="line"/>
      <point x="605" y="927" type="line"/>
      <point x="618" y="915" type="line"/>
      <point x="468" y="783" type="line"/>
    </contour>
  </outline>
</glyph>
<glyph name="eng" format="2">
  <advance width="548"/>
  <unicode hex="014B"/>
  <outline>
    <contour>
      <point x="250" y="-200" type="line"/>
      <point x="254" y="-181" type="line"/>
      <point x="339" y="-181" type="line"/>
      <point x="439" y="320" type="line"/>
      <point x="446" y="361"/>
      <point x="446" y="383" type="qcurve" smooth="yes"/>
      <point x="446" y="499"/>
      <point x="332" y="499" type="qcurve" smooth="yes"/>
      <point x="253" y="499"/>
      <point x="199" y="437" type="qcurve" smooth="yes"/>
      <point x="152" y="384"/>
      <point x="136" y="312" type="qcurve"/>
      <point x="74" y="0" type="line"/>
      <point x="53" y="0" type="line"/>
      <point x="154" y="506" type="line"/>
      <point x="175" y="506" type="line"/>
      <point x="154" y="401" type="line"/>
      <point x="157" y="401" type="line"/>
      <point x="187" y="458"/>
      <point x="272" y="518"/>
      <point x="335" y="518" type="qcurve" smooth="yes"/>
      <point x="399" y="518"/>
      <point x="467" y="449"/>
      <point x="467" y="386" type="qcurve" smooth="yes"/>
      <point x="467" y="356"/>
      <point x="460" y="321" type="qcurve" smooth="yes"/>
      <point x="363" y="-167" type="line"/>
      <point x="360" y="-187"/>
      <point x="341" y="-200"/>
      <point x="320" y="-200" type="qcurve" smooth="yes"/>
    </contour>
  </outline>
</glyph>
<glyph name="Obreve" format="2">
  <advance width="658"/>
  <unicode hex="014E"/>
  <outline>
    <contour>
      <point x="439" y="786" type="qcurve" smooth="yes"/>
      <point x="390" y="786"/>
      <point x="341" y="847"/>
      <point x="324" y="903" type="qcurve"/>
      <point x="340" y="910" type="line"/>
      <point x="355" y="873" type="line"/>
      <point x="378" y="805"/>
      <point x="439" y="805" type="qcurve" smooth="yes"/>
      <point x="473" y="805"/>
      <point x="520" y="836"/>
      <point x="546" y="874" type="qcurve" smooth="yes"/>
      <point x="571" y="910" type="line"/>
      <point x="587" y="903" type="line"/>
      <point x="584" y="899" type="line"/>
      <point x="552" y="847"/>
      <point x="492" y="786"/>
    </contour>
    <contour>
      <point x="291" y="-12" type="qcurve" smooth="yes"/>
      <point x="191" y="-12"/>
      <point x="131" y="48" type="qcurve"/>
      <point x="69" y="106"/>
      <point x="69" y="220" type="qcurve" smooth="yes"/>
      <point x="69" y="318"/>
      <point x="101" y="435" type="qcurve"/>
      <point x="134" y="547"/>
      <point x="207" y="627" type="qcurve" smooth="yes"/>
      <point x="284" y="710"/>
      <point x="401" y="710" type="qcurve" smooth="yes"/>
      <point x="499" y="710"/>
      <point x="623" y="592"/>
      <point x="623" y="478" type="qcurve" smooth="yes"/>
      <point x="623" y="366"/>
      <point x="592" y="263" type="qcurve" smooth="yes"/>
      <point x="559" y="151"/>
      <point x="486" y="71" type="qcurve"/>
      <point x="407" y="-12"/>
    </contour>
    <contour>
      <point x="291" y="8" type="qcurve" smooth="yes"/>
      <point x="399" y="8"/>
      <point x="551" y="173"/>
      <point x="580" y="314" type="qcurve" smooth="yes"/>
      <point x="601" y="419"/>
      <point x="601" y="478" type="qcurve" smooth="yes"/>
      <point x="601" y="576"/>
      <point x="498" y="690"/>
      <point x="401" y="690" type="qcurve" smooth="yes"/>
      <point x="293" y="690"/>
      <point x="142" y="526"/>
      <point x="112" y="384" type="qcurve" smooth="yes"/>
      <point x="91" y="279"/>
      <point x="91" y="220" type="qcurve" smooth="yes"/>
      <point x="91" y="122"/>
      <point x="194" y="8"/>
    </contour>
  </outline>
</glyph>
<glyph name="OE" format="2">
  <advance width="928"/>
  <unicode hex="0152"/>
  <outline>
    <contour>
      <point x="312" y="-12" type="qcurve" smooth="yes"/>
      <point x="204" y="-12"/>
      <point x="69" y="103"/>
      <point x="69" y="217" type="qcurve" smooth="yes"/>
      <point x="69" y="298"/>
      <point x="90" y="391" type="qcurve" smooth="yes"/>
      <point x="117" y="520"/>
      <point x="189" y="605" type="qcurve" smooth="yes"/>
      <point x="276" y="710"/>
      <point x="426" y="710" type="qcurve" smooth="yes"/>
      <point x="506" y="710"/>
      <point x="569" y="698" type="qcurve"/>
      <point x="947" y="698" type="line"/>
      <point x="943" y="678" type="line"/>
      <point x="587" y="678" type="line"/>
      <point x="524" y="364" type="line"/>
      <point x="868" y="364" type="line"/>
      <point x="864" y="344" type="line"/>
      <point x="520" y="344" type="line"/>
      <point x="455" y="20" type="line"/>
      <point x="811" y="20" type="line"/>
      <point x="807" y="0" type="line"/>
      <point x="432" y="0" type="line"/>
      <point x="391" y="-12"/>
    </contour>
    <contour>
      <point x="341" y="8" type="line" smooth="yes"/>
      <point x="395" y="8"/>
      <point x="433" y="22" type="qcurve"/>
      <point x="565" y="677" type="line"/>
      <point x="507" y="690"/>
      <point x="424" y="690" type="qcurve" smooth="yes"/>
      <point x="302" y="690"/>
      <point x="220" y="607" type="qcurve" smooth="yes"/>
      <point x="142" y="527"/>
      <point x="116" y="400" type="qcurve" smooth="yes"/>
      <point x="104" y="341" type="line"/>
      <point x="91" y="265"/>
      <point x="91" y="217" type="qcurve" smooth="yes"/>
      <point x="91" y="115"/>
      <point x="206" y="8"/>
      <point x="312" y="8" type="qcurve" smooth="yes"/>
    </contour>
  </outline>
</glyph>
<glyph name="oe" format="2">
  <advance width="884"/>
  <unicode hex="0153"/>
  <outline>
    <contour>
      <point x="617" y="-12" type="qcurve" smooth="yes"/>
      <point x="460" y="-12"/>
      <point x="444" y="157" type="qcurve"/>
      <point x="441" y="157" type="line"/>
      <point x="411" y="76"/>
      <point x="303" y="-12"/>
      <point x="225" y="-12" type="qcurve" smooth="yes"/>
      <point x="146" y="-12"/>
      <point x="59" y="93"/>
      <point x="59" y="169" type="qcurve" smooth="yes"/>
      <point x="59" y="309"/>
      <point x="123" y="414" type="qcurve"/>
      <point x="190" y="518"/>
      <point x="309" y="518" type="qcurve" smooth="yes"/>
      <point x="383" y="518"/>
      <point x="467" y="428"/>
      <point x="473" y="358" type="qcurve"/>
      <point x="476" y="358" type="line"/>
      <point x="502" y="422"/>
      <point x="610" y="518"/>
      <point x="688" y="518" type="qcurve" smooth="yes"/>
      <point x="760" y="518"/>
      <point x="846" y="452"/>
      <point x="846" y="395" type="qcurve" smooth="yes"/>
      <point x="846" y="334"/>
      <point x="783" y="293" type="qcurve" smooth="yes"/>
      <point x="697" y="239"/>
      <point x="465" y="233" type="qcurve"/>
      <point x="462" y="207"/>
      <point x="462" y="193" type="qcurve" smooth="yes"/>
      <point x="462" y="7"/>
      <point x="617" y="7" type="qcurve" smooth="yes"/>
      <point x="742" y="7"/>
      <point x="806" y="132" type="qcurve"/>
      <point x="825" y="124" type="line"/>
      <point x="749" y="-12"/>
    </contour>
    <contour>
      <point x="227" y="7" type="qcurve" smooth="yes"/>
      <point x="312" y="7"/>
      <point x="421" y="122"/>
      <point x="441" y="225" type="qcurve" smooth="yes"/>
      <point x="449" y="265" type="line"/>
      <point x="454" y="297"/>
      <point x="454" y="337" type="qcurve" smooth="yes"/>
      <point x="454" y="403"/>
      <point x="419" y="451" type="qcurve"/>
      <point x="380" y="499"/>
      <point x="307" y="499" type="qcurve" smooth="yes"/>
      <point x="222" y="499"/>
      <point x="114" y="384"/>
      <point x="93" y="281" type="qcurve" smooth="yes"/>
      <point x="85" y="241" type="line"/>
      <point x="80" y="210"/>
      <point x="80" y="169" type="qcurve" smooth="yes"/>
      <point x="80" y="103"/>
      <point x="115" y="55" type="qcurve"/>
      <point x="154" y="7"/>
    </contour>
    <contour>
      <point x="467" y="252" type="line"/>
      <point x="685" y="258"/>
      <point x="758" y="300" type="qcurve"/>
      <point x="824" y="335"/>
      <point x="824" y="395" type="qcurve" smooth="yes"/>
      <point x="824" y="441"/>
      <point x="759" y="499"/>
      <point x="686" y="499" type="qcurve" smooth="yes"/>
      <point x="602" y="499"/>
      <point x="489" y="371"/>
      <point x="470" y="269" type="qcurve" smooth="yes"/>
    </contour>
  </outline>
</glyph>
<glyph name="racute" format="2">
  <advance width="338"/>
  <unicode hex="0155"/>
  <outline>
    <contour>
      <point x="243" y="598" type="line"/>
      <point x="386" y="751" type="line"/>
      <point x="403" y="738" type="line"/>
      <point x="256" y="587" type="line"/>
    </contour>
    <contour>
      <point x="53" y="0" type="line"/>
      <point x="154" y="506" type="line"/>
      <point x="175" y="506" type="line"/>
      <point x="152" y="392" type="line"/>
      <point x="155" y="392" type="line"/>
      <point x="179" y="443"/>
      <point x="220" y="474" type="qcurve"/>
      <point x="258" y="506"/>
      <point x="328" y="506" type="qcurve" smooth="yes"/>
      <point x="358" y="506" type="line"/>
      <point x="354" y="487" type="line"/>
      <point x="325" y="487" type="line" smooth="yes"/>
      <point x="252" y="487"/>
      <point x="199" y="431" type="qcurve"/>
      <point x="149" y="375"/>
      <point x="132" y="293" type="qcurve" smooth="yes"/>
      <point x="74" y="0" type="line"/>
    </contour>
  </outline>
</glyph>
<glyph name="Rcommaaccent" format="2">
  <advance width="630"/>
  <unicode hex="0156"/>
  <outline>
    <contour>
      <point x="388" y="342" type="line" smooth="yes"/>
      <point x="466" y="342"/>
      <point x="553" y="420"/>
      <point x="565" y="481" type="qcurve" smooth="yes"/>
      <point x="574" y="522"/>
      <point x="574" y="550" type="qcurve" smooth="yes"/>
      <point x="574" y="603"/>
      <point x="543" y="641" type="qcurve"/>
      <point x="511" y="678"/>
      <point x="443" y="678" type="qcurve" smooth="yes"/>
      <point x="211" y="678" type="line"/>
      <point x="145" y="342" type="line"/>
    </contour>
    <contour>
      <point x="200" y="-212" type="line"/>
      <point x="246" y="-155"/>
      <point x="256" y="-115" type="qcurve"/>
      <point x="231" y="-115"/>
      <point x="231" y="-99" type="qcurve" smooth="yes"/>
      <point x="231" y="-93"/>
      <point x="235" y="-77"/>
      <point x="246" y="-66"/>
      <point x="259" y="-66" type="qcurve" smooth="yes"/>
      <point x="280" y="-66"/>
      <point x="280" y="-82" type="qcurve"/>
      <point x="278" y="-99" type="line"/>
      <point x="274" y="-123"/>
      <point x="242" y="-186"/>
      <point x="218" y="-212" type="qcurve"/>
    </contour>
    <contour>
      <point x="484" y="0" type="line"/>
      <point x="359" y="322" type="line"/>
      <point x="141" y="322" type="line"/>
      <point x="76" y="0" type="line"/>
      <point x="54" y="0" type="line"/>
      <point x="194" y="698" type="line"/>
      <point x="445" y="698" type="line" smooth="yes"/>
      <point x="518" y="698"/>
      <point x="596" y="614"/>
      <point x="596" y="550" type="qcurve" smooth="yes"/>
      <point x="596" y="441"/>
      <point x="484" y="322"/>
      <point x="382" y="322" type="qcurve"/>
      <point x="507" y="0" type="line"/>
    </contour>
  </outline>
</glyph>
<glyph name="rcedilla" format="2">
  <advance width="338"/>
  <unicode hex="0157"/>
  <outline>
    <contour>
      <point x="53" y="0" type="line"/>
      <point x="154" y="506" type="line"/>
      <point x="175" y="506" type="line"/>
      <point x="152" y="392" type="line"/>
      <point x="155" y="392" type="line"/>
      <point x="179" y="443"/>
      <point x="220" y="474" type="qcurve"/>
      <point x="258" y="506"/>
      <point x="328" y="506" type="qcurve" smooth="yes"/>
      <point x="358" y="506" type="line"/>
      <point x="354" y="487" type="line"/>
      <point x="325" y="487" type="line" smooth="yes"/>
      <point x="252" y="487"/>
      <point x="199" y="431" type="qcurve"/>
      <point x="149" y="375"/>
      <point x="132" y="293" type="qcurve" smooth="yes"/>
      <point x="74" y="0" type="line"/>
    </contour>
    <contour>
      <point x="-8" y="-212" type="line"/>
      <point x="38" y="-155"/>
      <point x="48" y="-115" type="qcurve"/>
      <point x="23" y="-115"/>
      <point x="23" y="-99" type="qcurve" smooth="yes"/>
      <point x="23" y="-93"/>
      <point x="27" y="-77"/>
      <point x="38" y="-66"/>
      <point x="51" y="-66" type="qcurve" smooth="yes"/>
      <point x="72" y="-66"/>
      <point x="72" y="-82" type="qcurve"/>
      <point x="70" y="-99" type="line"/>
      <point x="66" y="-123"/>
      <point x="34" y="-186"/>
      <point x="10" y="-212" type="qcurve"/>
    </contour>
  </outline>
</glyph>
<glyph name="rcaron" format="2">
  <advance width="338"/>
  <unicode hex="0159"/>
  <outline>
    <contour>
      <point x="53" y="0" type="line"/>
      <point x="154" y="506" type="line"/>
      <point x="175" y="506" type="line"/>
      <point x="152" y="392" type="line"/>
      <point x="155" y="392" type="line"/>
      <point x="179" y="443"/>
      <point x="220" y="474" type="qcurve"/>
      <point x="258" y="506"/>
      <point x="328" y="506" type="qcurve" smooth="yes"/>
      <point x="358" y="506" type="line"/>
      <point x="354" y="487" type="line"/>
      <point x="325" y="487" type="line" smooth="yes"/>
      <point x="252" y="487"/>
      <point x="199" y="431" type="qcurve"/>
      <point x="149" y="375"/>
      <point x="132" y="293" type="qcurve" smooth="yes"/>
      <point x="74" y="0" type="line"/>
    </contour>
    <contour>
      <point x="267" y="603" type="line"/>
      <point x="161" y="737" type="line"/>
      <point x="176" y="747" type="line"/>
      <point x="280" y="620" type="line"/>
      <point x="428" y="747" type="line"/>
      <point x="441" y="735" type="line"/>
      <point x="291" y="603" type="line"/>
    </contour>
  </outline>
</glyph>
<glyph name="tcaron" format="2">
  <advance width="302"/>
  <unicode hex="0165"/>
  <outline>
    <contour>
      <point x="294" y="564" type="line"/>
      <point x="339" y="740" type="line"/>
      <point x="364" y="740" type="line"/>
      <point x="311" y="564" type="line"/>
    </contour>
    <contour>
      <point x="100" y="0" type="line" smooth="yes"/>
      <point x="77" y="0"/>
      <point x="77" y="19" type="qcurve" smooth="yes"/>
      <point x="77" y="25"/>
      <point x="169" y="487" type="qcurve"/>
      <point x="74" y="487" type="line"/>
      <point x="78" y="506" type="line"/>
      <point x="150" y="506" type="line" smooth="yes"/>
      <point x="164" y="506"/>
      <point x="176" y="517"/>
      <point x="178" y="531" type="qcurve"/>
      <point x="202" y="650" type="line"/>
      <point x="223" y="650" type="line"/>
      <point x="194" y="506" type="line"/>
      <point x="315" y="506" type="line"/>
      <point x="311" y="487" type="line"/>
      <point x="190" y="487" type="line"/>
      <point x="97" y="19" type="line"/>
      <point x="210" y="19" type="line"/>
      <point x="206" y="0" type="line"/>
    </contour>
  </outline>
</glyph>
<glyph name="Umacron" format="2">
  <advance width="639"/>
  <unicode hex="016A"/>
  <outline>
    <contour>
      <point x="306" y="838" type="line"/>
      <point x="309" y="856" type="line"/>
      <point x="567" y="856" type="line"/>
      <point x="564" y="838" type="line"/>
    </contour>
    <contour>
      <point x="273" y="-12" type="qcurve" smooth="yes"/>
      <point x="182" y="-12"/>
      <point x="82" y="68"/>
      <point x="82" y="148" type="qcurve" smooth="yes"/>
      <point x="82" y="197"/>
      <point x="97" y="256" type="qcurve"/>
      <point x="185" y="698" type="line"/>
      <point x="207" y="698" type="line"/>
      <point x="112" y="221"/>
      <point x="109" y="199" type="qcurve"/>
      <point x="104" y="171"/>
      <point x="104" y="148" type="qcurve" smooth="yes"/>
      <point x="104" y="8"/>
      <point x="273" y="8" type="qcurve" smooth="yes"/>
      <point x="387" y="8"/>
      <point x="496" y="124"/>
      <point x="523" y="271" type="qcurve" smooth="yes"/>
      <point x="609" y="698" type="line"/>
      <point x="631" y="698" type="line"/>
      <point x="545" y="270" type="line" smooth="yes"/>
      <point x="516" y="112"/>
      <point x="398" y="-12"/>
    </contour>
  </outline>
</glyph>
<glyph name="Ubreve" format="2">
  <advance width="639"/>
  <unicode hex="016C"/>
  <outline>
    <contour>
      <point x="273" y="-12" type="qcurve" smooth="yes"/>
      <point x="182" y="-12"/>
      <point x="82" y="68"/>
      <point x="82" y="148" type="qcurve" smooth="yes"/>
      <point x="82" y="197"/>
      <point x="97" y="256" type="qcurve"/>
      <point x="185" y="698" type="line"/>
      <point x="207" y="698" type="line"/>
      <point x="112" y="221"/>
      <point x="109" y="199" type="qcurve"/>
      <point x="104" y="171"/>
      <point x="104" y="148" type="qcurve" smooth="yes"/>
      <point x="104" y="8"/>
      <point x="273" y="8" type="qcurve" smooth="yes"/>
      <point x="387" y="8"/>
      <point x="496" y="124"/>
      <point x="523" y="271" type="qcurve" smooth="yes"/>
      <point x="609" y="698" type="line"/>
      <point x="631" y="698" type="line"/>
      <point x="545" y="270" type="line" smooth="yes"/>
      <point x="516" y="112"/>
      <point x="398" y="-12"/>
    </contour>
    <contour>
      <point x="426" y="786" type="qcurve" smooth="yes"/>
      <point x="377" y="786"/>
      <point x="328" y="847"/>
      <point x="311" y="903" type="qcurve"/>
      <point x="327" y="910" type="line"/>
      <point x="342" y="873" type="line"/>
      <point x="365" y="805"/>
      <point x="426" y="805" type="qcurve" smooth="yes"/>
      <point x="460" y="805"/>
      <point x="507" y="836"/>
      <point x="533" y="874" type="qcurve" smooth="yes"/>
      <point x="558" y="910" type="line"/>
      <point x="574" y="903" type="line"/>
      <point x="571" y="899" type="line"/>
      <point x="539" y="847"/>
      <point x="479" y="786"/>
    </contour>
  </outline>
</glyph>
<glyph name="Uring" format="2">
  <advance width="639"/>
  <unicode hex="016E"/>
  <outline>
    <contour>
      <point x="427" y="769" type="qcurve" smooth="yes"/>
      <point x="384" y="769"/>
      <point x="351" y="817"/>
      <point x="351" y="841" type="qcurve" smooth="yes"/>
      <point x="351" y="891"/>
      <point x="408" y="951"/>
      <point x="456" y="951" type="qcurve" smooth="yes"/>
      <point x="517" y="951"/>
      <point x="529" y="904" type="qcurve"/>
      <point x="533" y="891"/>
      <point x="533" y="879" type="qcurve" smooth="yes"/>
      <point x="533" y="829"/>
      <point x="475" y="769"/>
    </contour>
    <contour>
      <point x="431" y="787" type="qcurve" smooth="yes"/>
      <point x="462" y="787"/>
      <point x="505" y="821"/>
      <point x="511" y="853" type="qcurve"/>
      <point x="513" y="867"/>
      <point x="515" y="876"/>
      <point x="515" y="880" type="qcurve" smooth="yes"/>
      <point x="515" y="904"/>
      <point x="484" y="933"/>
      <point x="452" y="933" type="qcurve" smooth="yes"/>
      <point x="422" y="933"/>
      <point x="379" y="899"/>
      <point x="373" y="867" type="qcurve"/>
      <point x="372" y="854"/>
      <point x="369" y="847"/>
      <point x="369" y="840" type="qcurve"/>
      <point x="370" y="787"/>
    </contour>
    <contour>
      <point x="273" y="-12" type="qcurve" smooth="yes"/>
      <point x="182" y="-12"/>
      <point x="82" y="68"/>
      <point x="82" y="148" type="qcurve" smooth="yes"/>
      <point x="82" y="197"/>
      <point x="97" y="256" type="qcurve"/>
      <point x="185" y="698" type="line"/>
      <point x="207" y="698" type="line"/>
      <point x="112" y="221"/>
      <point x="109" y="199" type="qcurve"/>
      <point x="104" y="171"/>
      <point x="104" y="148" type="qcurve" smooth="yes"/>
      <point x="104" y="8"/>
      <point x="273" y="8" type="qcurve" smooth="yes"/>
      <point x="387" y="8"/>
      <point x="496" y="124"/>
      <point x="523" y="271" type="qcurve" smooth="yes"/>
      <point x="609" y="698" type="line"/>
      <point x="631" y="698" type="line"/>
      <point x="545" y="270" type="line" smooth="yes"/>
      <point x="516" y="112"/>
      <point x="398" y="-12"/>
    </contour>
  </outline>
</glyph>
<glyph name="Ydieresis" format="2">
  <advance width="540"/>
  <unicode hex="0178"/>
  <outline>
    <contour>
      <point x="208" y="0" type="line"/>
      <point x="267" y="294" type="line"/>
      <point x="109" y="698" type="line"/>
      <point x="132" y="698" type="line"/>
      <point x="280" y="320" type="line"/>
      <point x="283" y="320" type="line"/>
      <point x="583" y="698" type="line"/>
      <point x="609" y="698" type="line"/>
      <point x="289" y="294" type="line"/>
      <point x="230" y="0" type="line"/>
    </contour>
    <contour>
      <point x="294" y="819" type="qcurve" smooth="yes"/>
      <point x="274" y="819"/>
      <point x="274" y="836" type="qcurve" smooth="yes"/>
      <point x="274" y="842"/>
      <point x="279" y="857"/>
      <point x="288" y="868"/>
      <point x="300" y="868" type="qcurve" smooth="yes"/>
      <point x="320" y="868"/>
      <point x="320" y="851" type="qcurve" smooth="yes"/>
      <point x="320" y="819"/>
    </contour>
    <contour>
      <point x="476" y="819" type="qcurve" smooth="yes"/>
      <point x="456" y="819"/>
      <point x="456" y="836" type="qcurve" smooth="yes"/>
      <point x="456" y="842"/>
      <point x="461" y="857"/>
      <point x="470" y="868"/>
      <point x="482" y="868" type="qcurve" smooth="yes"/>
      <point x="502" y="868"/>
      <point x="502" y="851" type="qcurve" smooth="yes"/>
      <point x="502" y="819"/>
    </contour>
  </outline>
</glyph>
<glyph name="zacute" format="2">
  <advance width="430"/>
  <unicode hex="017A"/>
  <outline>
    <contour>
      <point x="-1" y="0" type="line"/>
      <point x="3" y="20" type="line"/>
      <point x="402" y="487" type="line"/>
      <point x="92" y="487" type="line"/>
      <point x="96" y="506" type="line"/>
      <point x="430" y="506" type="line"/>
      <point x="426" y="486" type="line"/>
      <point x="28" y="19" type="line"/>
      <point x="350" y="19" type="line"/>
      <point x="346" y="0" type="line"/>
    </contour>
    <contour>
      <point x="239" y="598" type="line"/>
      <point x="382" y="751" type="line"/>
      <point x="399" y="738" type="line"/>
      <point x="252" y="587" type="line"/>
    </contour>
  </outline>
</glyph>
<glyph name="zcaron" format="2">
  <advance width="430"/>
  <unicode hex="017E"/>
  <outline>
    <contour>
      <point x="263" y="603" type="line"/>
      <point x="157" y="737" type="line"/>
      <point x="172" y="747" type="line"/>
      <point x="276" y="620" type="line"/>
      <point x="424" y="747" type="line"/>
      <point x="437" y="735" type="line"/>
      <point x="287" y="603" type="line"/>
    </contour>
    <contour>
      <point x="-1" y="0" type="line"/>
      <point x="3" y="20" type="line"/>
      <point x="402" y="487" type="line"/>
      <point x="92" y="487" type="line"/>
      <point x="96" y="506" type="line"/>
      <point x="430" y="506" type="line"/>
      <point x="426" y="486" type="line"/>
      <point x="28" y="19" type="line"/>
      <point x="350" y="19" type="line"/>
      <point x="346" y="0" type="line"/>
    </contour>
  </outline>
</glyph>
<glyph name="Aringacute" format="2">
  <advance width="594"/>
  <unicode hex="01FA"/>
  <outline>
    <contour>
      <point x="388" y="769" type="qcurve" smooth="yes"/>
      <point x="345" y="769"/>
      <point x="312" y="817"/>
      <point x="312" y="841" type="qcurve" smooth="yes"/>
      <point x="312" y="891"/>
      <point x="369" y="951"/>
      <point x="417" y="951" type="qcurve"/>
      <point x="417" y="951"/>
      <point x="417" y="951" type="qcurve"/>
      <point x="417" y="951"/>
      <point x="418" y="951" type="qcurve"/>
      <point x="418" y="951"/>
      <point x="418" y="951" type="qcurve"/>
      <point x="418" y="951"/>
      <point x="418" y="951" type="qcurve"/>
      <point x="419" y="951" type="line"/>
      <point x="503" y="1041" type="line"/>
      <point x="518" y="1028" type="line"/>
      <point x="441" y="949" type="line"/>
      <point x="481" y="941"/>
      <point x="490" y="904" type="qcurve"/>
      <point x="494" y="891"/>
      <point x="494" y="879" type="qcurve" smooth="yes"/>
      <point x="494" y="829"/>
      <point x="436" y="769"/>
    </contour>
    <contour>
      <point x="392" y="787" type="qcurve" smooth="yes"/>
      <point x="423" y="787"/>
      <point x="466" y="821"/>
      <point x="472" y="853" type="qcurve"/>
      <point x="474" y="867"/>
      <point x="476" y="876"/>
      <point x="476" y="880" type="qcurve" smooth="yes"/>
      <point x="476" y="904"/>
      <point x="461" y="919" type="qcurve"/>
      <point x="448" y="930"/>
      <point x="425" y="932" type="qcurve"/>
      <point x="424" y="931" type="line"/>
      <point x="422" y="933" type="line"/>
      <point x="421" y="933" type="line"/>
      <point x="421" y="933"/>
      <point x="421" y="933" type="qcurve"/>
      <point x="421" y="933"/>
      <point x="420" y="933" type="qcurve"/>
      <point x="420" y="933"/>
      <point x="420" y="933" type="qcurve"/>
      <point x="420" y="933"/>
      <point x="419" y="933" type="qcurve"/>
      <point x="419" y="933"/>
      <point x="419" y="933" type="qcurve"/>
      <point x="418" y="933" type="line"/>
      <point x="418" y="933"/>
      <point x="418" y="933" type="qcurve"/>
      <point x="415" y="933" type="line" smooth="yes"/>
      <point x="414" y="933"/>
      <point x="413" y="933" type="qcurve"/>
      <point x="413" y="933"/>
      <point x="413" y="933" type="qcurve"/>
      <point x="383" y="933"/>
      <point x="340" y="899"/>
      <point x="334" y="867" type="qcurve"/>
      <point x="333" y="854"/>
      <point x="330" y="847"/>
      <point x="330" y="840" type="qcurve"/>
      <point x="331" y="787"/>
    </contour>
    <contour>
      <point x="497" y="0" type="line"/>
      <point x="452" y="234" type="line"/>
      <point x="134" y="234" type="line"/>
      <point x="12" y="0" type="line"/>
      <point x="-12" y="0" type="line"/>
      <point x="354" y="698" type="line"/>
      <point x="384" y="698" type="line"/>
      <point x="519" y="0" type="line"/>
    </contour>
    <contour>
      <point x="367" y="673" type="line"/>
      <point x="364" y="673" type="line"/>
      <point x="144" y="253" type="line"/>
      <point x="448" y="253" type="line"/>
    </contour>
  </outline>
</glyph>
<glyph name="dotlessj" format="2">
  <advance width="229"/>
  <unicode hex="0237"/>
  <outline>
    <contour>
      <point x="-72" y="-200" type="line"/>
      <point x="-68" y="-181" type="line"/>
      <point x="17" y="-181" type="line"/>
      <point x="154" y="506" type="line"/>
      <point x="175" y="506" type="line"/>
      <point x="41" y="-167" type="line"/>
      <point x="38" y="-187"/>
      <point x="21" y="-200"/>
      <point x="0" y="-200" type="qcurve" smooth="yes"/>
    </contour>
  </outline>
</glyph>
<glyph name="u02BB" format="2">
  <advance width="600"/>
  <unicode hex="02BB"/>
  <outline>
    <contour>
      <point x="312" y="599" type="qcurve" smooth="yes"/>
      <point x="291" y="599"/>
      <point x="291" y="615" type="qcurve"/>
      <point x="293" y="632" type="line"/>
      <point x="297" y="656"/>
      <point x="329" y="719"/>
      <point x="353" y="745" type="qcurve"/>
      <point x="371" y="745" type="line"/>
      <point x="325" y="688"/>
      <point x="315" y="648" type="qcurve"/>
      <point x="340" y="648"/>
      <point x="340" y="632" type="qcurve" smooth="yes"/>
      <point x="340" y="626"/>
      <point x="336" y="610"/>
      <point x="326" y="599"/>
    </contour>
  </outline>
</glyph>
<glyph name="afii57929" format="2">
  <advance width="600"/>
  <unicode hex="02BC"/>
  <outline>
    <contour>
      <point x="270" y="564" type="line"/>
      <point x="315" y="740" type="line"/>
      <point x="340" y="740" type="line"/>
      <point x="287" y="564" type="line"/>
    </contour>
  </outline>
</glyph>
<glyph name="hungarumlaut" format="2">
  <advance width="600"/>
  <unicode hex="02DD"/>
  <outline>
    <contour>
      <point x="373" y="598" type="line"/>
      <point x="516" y="751" type="line"/>
      <point x="533" y="738" type="line"/>
      <point x="386" y="587" type="line"/>
    </contour>
    <contour>
      <point x="213" y="598" type="line"/>
      <point x="356" y="751" type="line"/>
      <point x="373" y="738" type="line"/>
      <point x="226" y="587" type="line"/>
    </contour>
  </outline>
</glyph>
<glyph name="gravecmb" format="2">
  <unicode hex="0300"/>
  <outline>
    <contour>
      <point x="-64" y="740" type="line"/>
      <point x="-45" y="751" type="line"/>
      <point x="36" y="596" type="line"/>
      <point x="20" y="587" type="line"/>
    </contour>
  </outline>
</glyph>
<glyph name="tildecomb" format="2">
  <advance width="0"/>
  <unicode hex="0303"/>
  <outline>
    <contour>
      <point x="90" y="628" type="qcurve" smooth="yes"/>
      <point x="70" y="628"/>
      <point x="41" y="643"/>
      <point x="18" y="659" type="qcurve" smooth="yes"/>
      <point x="0" y="672"/>
      <point x="-29" y="684"/>
      <point x="-46" y="684" type="qcurve" smooth="yes"/>
      <point x="-77" y="684"/>
      <point x="-115" y="651" type="qcurve"/>
      <point x="-126" y="663" type="line"/>
      <point x="-83" y="702"/>
      <point x="-41" y="702" type="qcurve" smooth="yes"/>
      <point x="-21" y="702"/>
      <point x="9" y="688"/>
      <point x="31" y="672" type="qcurve" smooth="yes"/>
      <point x="49" y="659"/>
      <point x="78" y="646"/>
      <point x="95" y="646" type="qcurve" smooth="yes"/>
      <point x="130" y="646"/>
      <point x="164" y="679" type="qcurve"/>
      <point x="175" y="667" type="line"/>
      <point x="132" y="628"/>
    </contour>
  </outline>
</glyph>
<glyph name="brevecomb" format="2">
  <unicode hex="0306"/>
  <outline>
    <contour>
      <point x="15" y="606" type="qcurve" smooth="yes"/>
      <point x="-34" y="606"/>
      <point x="-83" y="667"/>
      <point x="-100" y="723" type="qcurve"/>
      <point x="-84" y="730" type="line"/>
      <point x="-69" y="693" type="line"/>
      <point x="-46" y="625"/>
      <point x="15" y="625" type="qcurve" smooth="yes"/>
      <point x="49" y="625"/>
      <point x="96" y="656"/>
      <point x="122" y="694" type="qcurve" smooth="yes"/>
      <point x="147" y="730" type="line"/>
      <point x="163" y="723" type="line"/>
      <point x="160" y="719" type="line"/>
      <point x="128" y="667"/>
      <point x="68" y="606"/>
    </contour>
  </outline>
</glyph>
<glyph name="hookabovecomb" format="2">
  <advance width="0"/>
  <unicode hex="0309"/>
  <outline>
    <contour>
      <point x="4" y="594" type="line"/>
      <point x="106" y="719" type="line"/>
      <point x="-34" y="719" type="line"/>
      <point x="-31" y="737" type="line"/>
      <point x="102" y="737" type="line" smooth="yes"/>
      <point x="126" y="737"/>
      <point x="126" y="722" type="qcurve" smooth="yes"/>
      <point x="126" y="716"/>
      <point x="114" y="697"/>
      <point x="99" y="679" type="qcurve" smooth="yes"/>
      <point x="19" y="585" type="line"/>
    </contour>
  </outline>
</glyph>
<glyph name="ringcomb" format="2">
  <unicode hex="030A"/>
  <outline>
    <contour>
      <point x="14" y="607" type="qcurve" smooth="yes"/>
      <point x="45" y="607"/>
      <point x="88" y="641"/>
      <point x="94" y="673" type="qcurve"/>
      <point x="96" y="687"/>
      <point x="98" y="696"/>
      <point x="98" y="700" type="qcurve" smooth="yes"/>
      <point x="98" y="724"/>
      <point x="67" y="753"/>
      <point x="35" y="753" type="qcurve" smooth="yes"/>
      <point x="5" y="753"/>
      <point x="-38" y="719"/>
      <point x="-44" y="687" type="qcurve"/>
      <point x="-45" y="674"/>
      <point x="-48" y="667"/>
      <point x="-48" y="660" type="qcurve"/>
      <point x="-47" y="607"/>
    </contour>
    <contour>
      <point x="10" y="589" type="qcurve" smooth="yes"/>
      <point x="-33" y="589"/>
      <point x="-66" y="637"/>
      <point x="-66" y="661" type="qcurve" smooth="yes"/>
      <point x="-66" y="711"/>
      <point x="-9" y="771"/>
      <point x="39" y="771" type="qcurve" smooth="yes"/>
      <point x="100" y="771"/>
      <point x="112" y="724" type="qcurve"/>
      <point x="116" y="711"/>
      <point x="116" y="699" type="qcurve" smooth="yes"/>
      <point x="116" y="649"/>
      <point x="58" y="589"/>
    </contour>
  </outline>
</glyph>
<glyph name="dotbelowcomb" format="2">
  <advance width="0"/>
  <unicode hex="0323"/>
  <outline>
    <contour>
      <point x="-22" y="-134" type="qcurve" smooth="yes"/>
      <point x="-42" y="-134"/>
      <point x="-42" y="-117" type="qcurve" smooth="yes"/>
      <point x="-42" y="-111"/>
      <point x="-37" y="-96"/>
      <point x="-28" y="-85"/>
      <point x="-16" y="-85" type="qcurve" smooth="yes"/>
      <point x="4" y="-85"/>
      <point x="4" y="-102" type="qcurve" smooth="yes"/>
      <point x="4" y="-134"/>
    </contour>
  </outline>
</glyph>
<glyph name="u0326" format="2">
  <unicode hex="0326"/>
  <outline>
    <contour>
      <point x="-72" y="-212" type="line"/>
      <point x="-26" y="-155"/>
      <point x="-16" y="-115" type="qcurve"/>
      <point x="-41" y="-115"/>
      <point x="-41" y="-99" type="qcurve" smooth="yes"/>
      <point x="-41" y="-93"/>
      <point x="-37" y="-77"/>
      <point x="-26" y="-66"/>
      <point x="-13" y="-66" type="qcurve" smooth="yes"/>
      <point x="8" y="-66"/>
      <point x="8" y="-82" type="qcurve"/>
      <point x="6" y="-99" type="line"/>
      <point x="2" y="-123"/>
      <point x="-30" y="-186"/>
      <point x="-54" y="-212" type="qcurve"/>
    </contour>
  </outline>
</glyph>
<glyph name="u0328" format="2">
  <advance width="0"/>
  <unicode hex="0328"/>
  <outline>
    <contour>
      <point x="-96" y="-202" type="qcurve" smooth="yes"/>
      <point x="-127" y="-202"/>
      <point x="-168" y="-170"/>
      <point x="-168" y="-136" type="qcurve" smooth="yes"/>
      <point x="-168" y="-107"/>
      <point x="-111" y="-41"/>
      <point x="-25" y="0" type="qcurve"/>
      <point x="-28" y="12" type="line"/>
      <point x="-3" y="16" type="line"/>
      <point x="1" y="0" type="line"/>
      <point x="-76" y="-42"/>
      <point x="-147" y="-98"/>
      <point x="-147" y="-136" type="qcurve" smooth="yes"/>
      <point x="-147" y="-160"/>
      <point x="-118" y="-184"/>
      <point x="-96" y="-184" type="qcurve" smooth="yes"/>
      <point x="-55" y="-184"/>
      <point x="-31" y="-159" type="qcurve"/>
      <point x="-18" y="-170" type="line"/>
      <point x="-43" y="-202"/>
    </contour>
  </outline>
</glyph>
<glyph name="u037E" format="2">
  <advance width="258"/>
  <unicode hex="037E"/>
  <outline>
    <contour>
      <point x="84" y="53" type="qcurve" smooth="yes"/>
      <point x="98" y="53"/>
      <point x="109" y="41"/>
      <point x="109" y="34" type="qcurve" smooth="yes"/>
      <point x="109" y="30"/>
      <point x="107" y="18"/>
      <point x="106" y="15" type="qcurve"/>
      <point x="101" y="-5"/>
      <point x="81" y="-50"/>
      <point x="52" y="-93"/>
      <point x="18" y="-132"/>
      <point x="-1" y="-147" type="qcurve"/>
      <point x="-22" y="-147" type="line"/>
      <point x="23" y="-109"/>
      <point x="71" y="-33"/>
      <point x="79" y="-5" type="qcurve"/>
      <point x="62" y="-5"/>
      <point x="52" y="7"/>
      <point x="52" y="14" type="qcurve" smooth="yes"/>
      <point x="52" y="18"/>
      <point x="54" y="29"/>
      <point x="55" y="32" type="qcurve"/>
      <point x="57" y="40"/>
      <point x="69" y="53"/>
    </contour>
    <contour>
      <point x="168" y="436" type="qcurve" smooth="yes"/>
      <point x="153" y="436"/>
      <point x="142" y="448"/>
      <point x="142" y="455" type="qcurve" smooth="yes"/>
      <point x="142" y="459"/>
      <point x="144" y="470"/>
      <point x="145" y="473" type="qcurve"/>
      <point x="147" y="481"/>
      <point x="159" y="494"/>
      <point x="174" y="494" type="qcurve" smooth="yes"/>
      <point x="188" y="494"/>
      <point x="199" y="482"/>
      <point x="199" y="475" type="qcurve" smooth="yes"/>
      <point x="199" y="471"/>
      <point x="197" y="460"/>
      <point x="196" y="457" type="qcurve"/>
      <point x="194" y="449"/>
      <point x="183" y="436"/>
    </contour>
  </outline>
</glyph>
<glyph name="Omegatonos" format="2">
  <advance width="684"/>
  <unicode hex="038F"/>
  <outline>
    <contour>
      <point x="63" y="587" type="line"/>
      <point x="48" y="594" type="line"/>
      <point x="145" y="751" type="line"/>
      <point x="163" y="742" type="line"/>
    </contour>
    <contour>
      <point x="36" y="20" type="line"/>
      <point x="208" y="20" type="line"/>
      <point x="212" y="41" type="line"/>
      <point x="190" y="58"/>
      <point x="148" y="99"/>
      <point x="116" y="153"/>
      <point x="96" y="224"/>
      <point x="96" y="272" type="qcurve" smooth="yes"/>
      <point x="96" y="315"/>
      <point x="109" y="413"/>
      <point x="139" y="510"/>
      <point x="187" y="600"/>
      <point x="259" y="669"/>
      <point x="355" y="710"/>
      <point x="418" y="710" type="qcurve" smooth="yes"/>
      <point x="523" y="710"/>
      <point x="638" y="599"/>
      <point x="638" y="492" type="qcurve" smooth="yes"/>
      <point x="638" y="404"/>
      <point x="603" y="260"/>
      <point x="539" y="148"/>
      <point x="449" y="66"/>
      <point x="394" y="40" type="qcurve"/>
      <point x="390" y="20" type="line"/>
      <point x="560" y="20" type="line"/>
      <point x="557" y="0" type="line"/>
      <point x="365" y="0" type="line"/>
      <point x="374" y="49" type="line"/>
      <point x="455" y="86"/>
      <point x="575" y="227"/>
      <point x="595" y="327" type="qcurve" smooth="yes"/>
      <point x="607" y="389" type="line" smooth="yes"/>
      <point x="612" y="415"/>
      <point x="616" y="468"/>
      <point x="616" y="492" type="qcurve" smooth="yes"/>
      <point x="616" y="589"/>
      <point x="514" y="690"/>
      <point x="418" y="690" type="qcurve" smooth="yes"/>
      <point x="313" y="690"/>
      <point x="162" y="550"/>
      <point x="136" y="416" type="qcurve" smooth="yes"/>
      <point x="124" y="354" type="line" smooth="yes"/>
      <point x="121" y="337"/>
      <point x="118" y="293"/>
      <point x="118" y="272" type="qcurve" smooth="yes"/>
      <point x="118" y="227"/>
      <point x="136" y="159"/>
      <point x="167" y="106"/>
      <point x="210" y="66"/>
      <point x="235" y="49" type="qcurve"/>
      <point x="225" y="0" type="line"/>
      <point x="33" y="0" type="line"/>
    </contour>
  </outline>
</glyph>
<glyph name="Phi" format="2">
  <advance width="809"/>
  <unicode hex="03A6"/>
  <outline>
    <contour>
      <point x="411" y="57" type="line" smooth="yes"/>
      <point x="486" y="57"/>
      <point x="600" y="103"/>
      <point x="680" y="173"/>
      <point x="726" y="258"/>
      <point x="734" y="296" type="qcurve" smooth="yes"/>
      <point x="743" y="341" type="line" smooth="yes"/>
      <point x="746" y="356"/>
      <point x="749" y="378"/>
      <point x="751" y="395"/>
      <point x="751" y="403" type="qcurve" smooth="yes"/>
      <point x="751" y="418" type="line" smooth="yes"/>
      <point x="751" y="471"/>
      <point x="723" y="557"/>
      <point x="667" y="618"/>
      <point x="584" y="651"/>
      <point x="529" y="651" type="qcurve" smooth="yes"/>
      <point x="495" y="651" type="line"/>
      <point x="376" y="57" type="line"/>
    </contour>
    <contour>
      <point x="473" y="651" type="line"/>
      <point x="438" y="651" type="line" smooth="yes"/>
      <point x="363" y="651"/>
      <point x="249" y="605"/>
      <point x="169" y="534"/>
      <point x="122" y="450"/>
      <point x="115" y="412" type="qcurve" smooth="yes"/>
      <point x="106" y="367" type="line" smooth="yes"/>
      <point x="103" y="352"/>
      <point x="100" y="330"/>
      <point x="98" y="313"/>
      <point x="98" y="306" type="qcurve" smooth="yes"/>
      <point x="98" y="290" type="line" smooth="yes"/>
      <point x="98" y="183"/>
      <point x="210" y="57"/>
      <point x="320" y="57" type="qcurve" smooth="yes"/>
      <point x="354" y="57" type="line"/>
    </contour>
    <contour>
      <point x="350" y="37" type="line"/>
      <point x="317" y="37" type="line" smooth="yes"/>
      <point x="258" y="37"/>
      <point x="168" y="73"/>
      <point x="107" y="139"/>
      <point x="76" y="233"/>
      <point x="76" y="290" type="qcurve" smooth="yes"/>
      <point x="76" y="372"/>
      <point x="126" y="511"/>
      <point x="220" y="613"/>
      <point x="354" y="671"/>
      <point x="439" y="671" type="qcurve" smooth="yes"/>
      <point x="477" y="671" type="line"/>
      <point x="488" y="725" type="line"/>
      <point x="510" y="725" type="line"/>
      <point x="499" y="671" type="line"/>
      <point x="532" y="671" type="line" smooth="yes"/>
      <point x="591" y="671"/>
      <point x="681" y="635"/>
      <point x="742" y="569"/>
      <point x="773" y="475"/>
      <point x="773" y="418" type="qcurve" smooth="yes"/>
      <point x="773" y="336"/>
      <point x="723" y="197"/>
      <point x="629" y="95"/>
      <point x="495" y="37"/>
      <point x="410" y="37" type="qcurve" smooth="yes"/>
      <point x="372" y="37" type="line"/>
      <point x="359" y="-29" type="line"/>
      <point x="337" y="-29" type="line"/>
    </contour>
  </outline>
</glyph>
<glyph name="Upsilondieresis" format="2">
  <advance width="540"/>
  <unicode hex="03AB"/>
  <outline>
    <contour>
      <point x="347" y="0" type="line"/>
      <point x="406" y="294" type="line"/>
      <point x="248" y="698" type="line"/>
      <point x="271" y="698" type="line"/>
      <point x="419" y="320" type="line"/>
      <point x="422" y="320" type="line"/>
      <point x="722" y="698" type="line"/>
      <point x="748" y="698" type="line"/>
      <point x="428" y="294" type="line"/>
      <point x="369" y="0" type="line"/>
    </contour>
    <contour>
      <point x="433" y="819" type="qcurve" smooth="yes"/>
      <point x="421" y="819"/>
      <point x="413" y="830"/>
      <point x="413" y="836" type="qcurve" smooth="yes"/>
      <point x="413" y="842"/>
      <point x="416" y="851" type="qcurve"/>
      <point x="418" y="858"/>
      <point x="427" y="868"/>
      <point x="439" y="868" type="qcurve" smooth="yes"/>
      <point x="451" y="868"/>
      <point x="459" y="857"/>
      <point x="459" y="851" type="qcurve" smooth="yes"/>
      <point x="459" y="845"/>
      <point x="456" y="836" type="qcurve"/>
      <point x="454" y="829"/>
      <point x="445" y="819"/>
    </contour>
    <contour>
      <point x="615" y="819" type="qcurve" smooth="yes"/>
      <point x="603" y="819"/>
      <point x="595" y="830"/>
      <point x="595" y="836" type="qcurve" smooth="yes"/>
      <point x="595" y="842"/>
      <point x="598" y="851" type="qcurve"/>
      <point x="600" y="858"/>
      <point x="609" y="868"/>
      <point x="621" y="868" type="qcurve" smooth="yes"/>
      <point x="633" y="868"/>
      <point x="641" y="857"/>
      <point x="641" y="851" type="qcurve" smooth="yes"/>
      <point x="641" y="845"/>
      <point x="638" y="836" type="qcurve"/>
      <point x="636" y="829"/>
      <point x="627" y="819"/>
    </contour>
  </outline>
</glyph>
<glyph name="upsilondieresistonos" format="2">
  <advance width="533"/>
  <unicode hex="03B0"/>
  <outline>
    <contour>
      <point x="109" y="221" type="line" smooth="yes"/>
      <point x="105" y="203"/>
      <point x="100" y="158"/>
      <point x="100" y="135" type="qcurve" smooth="yes"/>
      <point x="100" y="7"/>
      <point x="225" y="7" type="qcurve" smooth="yes"/>
      <point x="262" y="7"/>
      <point x="320" y="25"/>
      <point x="363" y="71"/>
      <point x="396" y="150"/>
      <point x="408" y="211" type="qcurve" smooth="yes"/>
      <point x="467" y="506" type="line"/>
      <point x="488" y="506" type="line"/>
      <point x="429" y="210" type="line" smooth="yes"/>
      <point x="417" y="148"/>
      <point x="382" y="63"/>
      <point x="332" y="11"/>
      <point x="266" y="-12"/>
      <point x="223" y="-12" type="qcurve" smooth="yes"/>
      <point x="152" y="-12"/>
      <point x="79" y="66"/>
      <point x="79" y="135" type="qcurve" smooth="yes"/>
      <point x="79" y="156"/>
      <point x="84" y="203"/>
      <point x="89" y="226" type="qcurve" smooth="yes"/>
      <point x="145" y="506" type="line"/>
      <point x="166" y="506" type="line"/>
    </contour>
    <contour>
      <point x="318" y="587" type="line"/>
      <point x="303" y="594" type="line"/>
      <point x="400" y="751" type="line"/>
      <point x="418" y="742" type="line"/>
    </contour>
    <contour>
      <point x="269" y="642" type="qcurve" smooth="yes"/>
      <point x="257" y="642"/>
      <point x="249" y="653"/>
      <point x="249" y="659" type="qcurve" smooth="yes"/>
      <point x="249" y="665"/>
      <point x="252" y="674" type="qcurve"/>
      <point x="254" y="681"/>
      <point x="263" y="691"/>
      <point x="275" y="691" type="qcurve" smooth="yes"/>
      <point x="287" y="691"/>
      <point x="295" y="680"/>
      <point x="295" y="674" type="qcurve" smooth="yes"/>
      <point x="295" y="668"/>
      <point x="292" y="659" type="qcurve"/>
      <point x="290" y="652"/>
      <point x="281" y="642"/>
    </contour>
    <contour>
      <point x="443" y="642" type="qcurve" smooth="yes"/>
      <point x="431" y="642"/>
      <point x="423" y="653"/>
      <point x="423" y="659" type="qcurve" smooth="yes"/>
      <point x="423" y="665"/>
      <point x="426" y="674" type="qcurve"/>
      <point x="428" y="681"/>
      <point x="437" y="691"/>
      <point x="449" y="691" type="qcurve" smooth="yes"/>
      <point x="461" y="691"/>
      <point x="469" y="680"/>
      <point x="469" y="674" type="qcurve" smooth="yes"/>
      <point x="469" y="668"/>
      <point x="466" y="659" type="qcurve"/>
      <point x="464" y="652"/>
      <point x="455" y="642"/>
    </contour>
  </outline>
</glyph>
<glyph name="beta" format="2">
  <advance width="547"/>
  <unicode hex="03B2"/>
  <outline>
    <contour>
      <point x="157" y="521" type="line" smooth="yes"/>
      <point x="167" y="573"/>
      <point x="205" y="659"/>
      <point x="259" y="719"/>
      <point x="331" y="752"/>
      <point x="377" y="752" type="qcurve" smooth="yes"/>
      <point x="416" y="752"/>
      <point x="470" y="730"/>
      <point x="503" y="693"/>
      <point x="518" y="645"/>
      <point x="518" y="620" type="qcurve" smooth="yes"/>
      <point x="518" y="577"/>
      <point x="493" y="506"/>
      <point x="451" y="451"/>
      <point x="397" y="414"/>
      <point x="369" y="407" type="qcurve"/>
      <point x="369" y="404" type="line"/>
      <point x="423" y="395"/>
      <point x="483" y="316"/>
      <point x="483" y="263" type="qcurve" smooth="yes"/>
      <point x="483" y="201"/>
      <point x="448" y="100"/>
      <point x="387" y="28"/>
      <point x="302" y="-12"/>
      <point x="253" y="-12" type="qcurve" smooth="yes"/>
      <point x="187" y="-12"/>
      <point x="109" y="46"/>
      <point x="95" y="93" type="qcurve"/>
      <point x="92" y="93" type="line"/>
      <point x="34" y="-200" type="line"/>
      <point x="13" y="-200" type="line"/>
    </contour>
    <contour>
      <point x="237" y="415" type="line"/>
      <point x="321" y="415" type="line" smooth="yes"/>
      <point x="354" y="415"/>
      <point x="409" y="439"/>
      <point x="452" y="478"/>
      <point x="481" y="529"/>
      <point x="489" y="557" type="qcurve" smooth="yes"/>
      <point x="494" y="574"/>
      <point x="497" y="606"/>
      <point x="497" y="620" type="qcurve" smooth="yes"/>
      <point x="497" y="671"/>
      <point x="441" y="733"/>
      <point x="375" y="733" type="qcurve" smooth="yes"/>
      <point x="343" y="733"/>
      <point x="282" y="711"/>
      <point x="230" y="660"/>
      <point x="190" y="579"/>
      <point x="178" y="521" type="qcurve" smooth="yes"/>
      <point x="106" y="160" type="line"/>
      <point x="104" y="148"/>
      <point x="104" y="136" type="qcurve" smooth="yes"/>
      <point x="104" y="122"/>
      <point x="112" y="81"/>
      <point x="146" y="36"/>
      <point x="207" y="7"/>
      <point x="253" y="7" type="qcurve" smooth="yes"/>
      <point x="297" y="7"/>
      <point x="367" y="38"/>
      <point x="418" y="91"/>
      <point x="450" y="161"/>
      <point x="456" y="199" type="qcurve" smooth="yes"/>
      <point x="462" y="235"/>
      <point x="462" y="263" type="qcurve" smooth="yes"/>
      <point x="462" y="291"/>
      <point x="444" y="339"/>
      <point x="408" y="375"/>
      <point x="354" y="396"/>
      <point x="318" y="396" type="qcurve" smooth="yes"/>
      <point x="233" y="396" type="line"/>
    </contour>
  </outline>
</glyph>
<glyph name="zeta" format="2">
  <advance width="417"/>
  <unicode hex="03B6"/>
  <outline>
    <contour>
      <point x="176" y="740" type="line"/>
      <point x="493" y="740" type="line"/>
      <point x="489" y="720" type="line"/>
      <point x="191" y="424" type="line" smooth="yes"/>
      <point x="157" y="390"/>
      <point x="113" y="332"/>
      <point x="87" y="278"/>
      <point x="77" y="226"/>
      <point x="77" y="199" type="qcurve" smooth="yes"/>
      <point x="77" y="166"/>
      <point x="96" y="114"/>
      <point x="136" y="72"/>
      <point x="201" y="40"/>
      <point x="246" y="26" type="qcurve" smooth="yes"/>
      <point x="308" y="7" type="line" smooth="yes"/>
      <point x="325" y="2"/>
      <point x="325" y="-10" type="qcurve" smooth="yes"/>
      <point x="325" y="-16"/>
      <point x="318" y="-31" type="qcurve" smooth="yes"/>
      <point x="257" y="-160" type="line"/>
      <point x="240" y="-152" type="line"/>
      <point x="306" y="-13" type="line"/>
      <point x="244" y="6" type="line" smooth="yes"/>
      <point x="193" y="22"/>
      <point x="121" y="58"/>
      <point x="76" y="104"/>
      <point x="56" y="162"/>
      <point x="56" y="198" type="qcurve" smooth="yes"/>
      <point x="56" y="228"/>
      <point x="68" y="286"/>
      <point x="98" y="346"/>
      <point x="149" y="411"/>
      <point x="188" y="449" type="qcurve" smooth="yes"/>
      <point x="467" y="723" type="line"/>
      <point x="467" y="724" type="line"/>
      <point x="413" y="721" type="line"/>
      <point x="172" y="721" type="line"/>
    </contour>
  </outline>
</glyph>
<glyph name="mugreek" format="2">
  <advance width="555"/>
  <unicode hex="03BC"/>
  <outline>
    <contour>
      <point x="-25" y="-200" type="line"/>
      <point x="116" y="506" type="line"/>
      <point x="137" y="506" type="line"/>
      <point x="73" y="186" type="line" smooth="yes"/>
      <point x="70" y="169"/>
      <point x="66" y="133"/>
      <point x="66" y="123" type="qcurve" smooth="yes"/>
      <point x="66" y="7"/>
      <point x="180" y="7" type="qcurve" smooth="yes"/>
      <point x="214" y="7"/>
      <point x="283" y="34"/>
      <point x="313" y="69" type="qcurve" smooth="yes"/>
      <point x="330" y="89"/>
      <point x="367" y="149"/>
      <point x="376" y="194" type="qcurve" smooth="yes"/>
      <point x="438" y="506" type="line"/>
      <point x="459" y="506" type="line"/>
      <point x="362" y="19" type="line"/>
      <point x="447" y="19" type="line"/>
      <point x="443" y="0" type="line"/>
      <point x="365" y="0" type="line" smooth="yes"/>
      <point x="342" y="0"/>
      <point x="342" y="19" type="qcurve" smooth="yes"/>
      <point x="342" y="24"/>
      <point x="343" y="30"/>
      <point x="344" y="35" type="qcurve" smooth="yes"/>
      <point x="358" y="105" type="line"/>
      <point x="355" y="105" type="line"/>
      <point x="325" y="48"/>
      <point x="240" y="-12"/>
      <point x="177" y="-12" type="qcurve" smooth="yes"/>
      <point x="123" y="-12"/>
      <point x="59" y="37"/>
      <point x="49" y="80" type="qcurve"/>
      <point x="47" y="80" type="line"/>
      <point x="27" y="-44" type="line"/>
      <point x="-4" y="-200" type="line"/>
    </contour>
  </outline>
</glyph>
<glyph name="nu" format="2">
  <advance width="460"/>
  <unicode hex="03BD"/>
  <outline>
    <contour>
      <point x="163" y="0" type="line"/>
      <point x="86" y="487" type="line"/>
      <point x="41" y="487" type="line"/>
      <point x="45" y="506" type="line"/>
      <point x="83" y="506" type="line" smooth="yes"/>
      <point x="103" y="506"/>
      <point x="106" y="490" type="qcurve"/>
      <point x="179" y="24" type="line"/>
      <point x="182" y="24" type="line"/>
      <point x="281" y="149"/>
      <point x="416" y="392"/>
      <point x="454" y="506" type="qcurve"/>
      <point x="477" y="506" type="line"/>
      <point x="435" y="387"/>
      <point x="292" y="131"/>
      <point x="189" y="0" type="qcurve"/>
    </contour>
  </outline>
</glyph>
<glyph name="rho" format="2">
  <advance width="536"/>
  <unicode hex="03C1"/>
  <outline>
    <contour>
      <point x="227" y="7" type="qcurve" smooth="yes"/>
      <point x="313" y="7"/>
      <point x="422" y="125"/>
      <point x="442" y="224" type="qcurve" smooth="yes"/>
      <point x="450" y="265" type="line" smooth="yes"/>
      <point x="453" y="282"/>
      <point x="455" y="317"/>
      <point x="455" y="337" type="qcurve" smooth="yes"/>
      <point x="455" y="370"/>
      <point x="438" y="429"/>
      <point x="404" y="473"/>
      <point x="350" y="499"/>
      <point x="314" y="499" type="qcurve" smooth="yes"/>
      <point x="278" y="499"/>
      <point x="213" y="477"/>
      <point x="159" y="426"/>
      <point x="119" y="345"/>
      <point x="107" y="287" type="qcurve" smooth="yes"/>
      <point x="82" y="160" type="line"/>
      <point x="80" y="148"/>
      <point x="80" y="136" type="qcurve" smooth="yes"/>
      <point x="80" y="122"/>
      <point x="88" y="81"/>
      <point x="122" y="36"/>
      <point x="182" y="7"/>
    </contour>
    <contour>
      <point x="86" y="287" type="line" smooth="yes"/>
      <point x="96" y="339"/>
      <point x="134" y="425"/>
      <point x="190" y="485"/>
      <point x="266" y="518"/>
      <point x="316" y="518" type="qcurve" smooth="yes"/>
      <point x="354" y="518"/>
      <point x="414" y="490"/>
      <point x="455" y="440"/>
      <point x="476" y="374"/>
      <point x="476" y="337" type="qcurve" smooth="yes"/>
      <point x="476" y="267"/>
      <point x="444" y="141"/>
      <point x="382" y="45"/>
      <point x="288" y="-12"/>
      <point x="227" y="-12" type="qcurve" smooth="yes"/>
      <point x="163" y="-12"/>
      <point x="85" y="46"/>
      <point x="71" y="93" type="qcurve"/>
      <point x="68" y="93" type="line"/>
      <point x="10" y="-200" type="line"/>
      <point x="-11" y="-200" type="line"/>
    </contour>
  </outline>
</glyph>
<glyph name="sigma1" format="2">
  <advance width="466"/>
  <unicode hex="03C2"/>
  <outline>
    <contour>
      <point x="323" y="-13" type="line"/>
      <point x="261" y="6" type="line" smooth="yes"/>
      <point x="204" y="24"/>
      <point x="127" y="63"/>
      <point x="81" y="113"/>
      <point x="61" y="175"/>
      <point x="61" y="216" type="qcurve" smooth="yes"/>
      <point x="61" y="271"/>
      <point x="90" y="380"/>
      <point x="149" y="465"/>
      <point x="238" y="518"/>
      <point x="298" y="518" type="qcurve" smooth="yes"/>
      <point x="358" y="518"/>
      <point x="437" y="454"/>
      <point x="448" y="403" type="qcurve"/>
      <point x="429" y="398" type="line"/>
      <point x="418" y="447"/>
      <point x="347" y="499"/>
      <point x="296" y="499" type="qcurve" smooth="yes"/>
      <point x="222" y="499"/>
      <point x="117" y="401"/>
      <point x="97" y="316" type="qcurve" smooth="yes"/>
      <point x="89" y="280"/>
      <point x="82" y="234"/>
      <point x="82" y="216" type="qcurve" smooth="yes"/>
      <point x="82" y="178"/>
      <point x="101" y="121"/>
      <point x="144" y="76"/>
      <point x="213" y="41"/>
      <point x="263" y="26" type="qcurve" smooth="yes"/>
      <point x="325" y="7" type="line" smooth="yes"/>
      <point x="342" y="2"/>
      <point x="342" y="-10" type="qcurve" smooth="yes"/>
      <point x="342" y="-16"/>
      <point x="335" y="-31" type="qcurve" smooth="yes"/>
      <point x="274" y="-160" type="line"/>
      <point x="257" y="-152" type="line"/>
    </contour>
  </outline>
</glyph>
<glyph name="sigma" format="2">
  <advance width="542"/>
  <unicode hex="03C3"/>
  <outline>
    <contour>
      <point x="399" y="487" type="line"/>
      <point x="399" y="484" type="line"/>
      <point x="435" y="454"/>
      <point x="473" y="369"/>
      <point x="473" y="316" type="qcurve" smooth="yes"/>
      <point x="473" y="254"/>
      <point x="442" y="136"/>
      <point x="380" y="44"/>
      <point x="287" y="-12"/>
      <point x="225" y="-12" type="qcurve" smooth="yes"/>
      <point x="185" y="-12"/>
      <point x="123" y="16"/>
      <point x="81" y="66"/>
      <point x="59" y="131"/>
      <point x="59" y="169" type="qcurve" smooth="yes"/>
      <point x="59" y="240"/>
      <point x="95" y="363"/>
      <point x="163" y="454"/>
      <point x="261" y="506"/>
      <point x="324" y="506" type="qcurve" smooth="yes"/>
      <point x="551" y="506" type="line"/>
      <point x="547" y="487" type="line"/>
    </contour>
    <contour>
      <point x="322" y="487" type="line" smooth="yes"/>
      <point x="233" y="487"/>
      <point x="111" y="371"/>
      <point x="91" y="269" type="qcurve" smooth="yes"/>
      <point x="85" y="241" type="line"/>
      <point x="82" y="224"/>
      <point x="80" y="189"/>
      <point x="80" y="169" type="qcurve" smooth="yes"/>
      <point x="80" y="136"/>
      <point x="97" y="77"/>
      <point x="133" y="33"/>
      <point x="189" y="7"/>
      <point x="227" y="7" type="qcurve" smooth="yes"/>
      <point x="312" y="7"/>
      <point x="421" y="123"/>
      <point x="441" y="225" type="qcurve" smooth="yes"/>
      <point x="445" y="244" type="line" smooth="yes"/>
      <point x="449" y="261"/>
      <point x="452" y="299"/>
      <point x="452" y="316" type="qcurve" smooth="yes"/>
      <point x="452" y="368"/>
      <point x="420" y="448"/>
      <point x="378" y="487" type="qcurve"/>
    </contour>
  </outline>
</glyph>
<glyph name="iotadieresis" format="2">
  <advance width="253"/>
  <unicode hex="03CA"/>
  <outline>
    <contour>
      <point x="205" y="642" type="qcurve" smooth="yes"/>
      <point x="193" y="642"/>
      <point x="185" y="653"/>
      <point x="185" y="659" type="qcurve" smooth="yes"/>
      <point x="185" y="665"/>
      <point x="188" y="674" type="qcurve"/>
      <point x="190" y="681"/>
      <point x="199" y="691"/>
      <point x="211" y="691" type="qcurve" smooth="yes"/>
      <point x="223" y="691"/>
      <point x="231" y="680"/>
      <point x="231" y="674" type="qcurve" smooth="yes"/>
      <point x="231" y="668"/>
      <point x="228" y="659" type="qcurve"/>
      <point x="226" y="652"/>
      <point x="217" y="642"/>
    </contour>
    <contour>
      <point x="387" y="642" type="qcurve" smooth="yes"/>
      <point x="375" y="642"/>
      <point x="367" y="653"/>
      <point x="367" y="659" type="qcurve" smooth="yes"/>
      <point x="367" y="665"/>
      <point x="370" y="674" type="qcurve"/>
      <point x="372" y="681"/>
      <point x="381" y="691"/>
      <point x="393" y="691" type="qcurve" smooth="yes"/>
      <point x="405" y="691"/>
      <point x="413" y="680"/>
      <point x="413" y="674" type="qcurve" smooth="yes"/>
      <point x="413" y="668"/>
      <point x="410" y="659" type="qcurve"/>
      <point x="408" y="652"/>
      <point x="399" y="642"/>
    </contour>
    <contour>
      <point x="285" y="0" type="line"/>
      <point x="179" y="0" type="line" smooth="yes"/>
      <point x="156" y="0"/>
      <point x="156" y="19" type="qcurve" smooth="yes"/>
      <point x="156" y="24"/>
      <point x="157" y="30"/>
      <point x="158" y="35" type="qcurve" smooth="yes"/>
      <point x="253" y="506" type="line"/>
      <point x="274" y="506" type="line"/>
      <point x="176" y="19" type="line"/>
      <point x="289" y="19" type="line"/>
    </contour>
  </outline>
</glyph>
<glyph name="omicrontonos" format="2">
  <advance width="534"/>
  <unicode hex="03CC"/>
  <outline>
    <contour>
      <point x="272" y="7" type="qcurve" smooth="yes"/>
      <point x="357" y="7"/>
      <point x="466" y="123"/>
      <point x="486" y="225" type="qcurve" smooth="yes"/>
      <point x="494" y="265" type="line" smooth="yes"/>
      <point x="497" y="282"/>
      <point x="499" y="317"/>
      <point x="499" y="337" type="qcurve" smooth="yes"/>
      <point x="499" y="370"/>
      <point x="482" y="429"/>
      <point x="446" y="473"/>
      <point x="390" y="499"/>
      <point x="352" y="499" type="qcurve" smooth="yes"/>
      <point x="267" y="499"/>
      <point x="158" y="383"/>
      <point x="138" y="281" type="qcurve" smooth="yes"/>
      <point x="130" y="241" type="line" smooth="yes"/>
      <point x="127" y="224"/>
      <point x="125" y="189"/>
      <point x="125" y="169" type="qcurve" smooth="yes"/>
      <point x="125" y="136"/>
      <point x="142" y="77"/>
      <point x="178" y="33"/>
      <point x="234" y="7"/>
    </contour>
    <contour>
      <point x="270" y="-12" type="qcurve" smooth="yes"/>
      <point x="230" y="-12"/>
      <point x="168" y="16"/>
      <point x="126" y="66"/>
      <point x="104" y="131"/>
      <point x="104" y="169" type="qcurve" smooth="yes"/>
      <point x="104" y="239"/>
      <point x="136" y="366"/>
      <point x="199" y="462"/>
      <point x="292" y="518"/>
      <point x="354" y="518" type="qcurve" smooth="yes"/>
      <point x="394" y="518"/>
      <point x="456" y="490"/>
      <point x="498" y="440"/>
      <point x="520" y="374"/>
      <point x="520" y="337" type="qcurve" smooth="yes"/>
      <point x="520" y="267"/>
      <point x="488" y="140"/>
      <point x="425" y="44"/>
      <point x="332" y="-12"/>
    </contour>
    <contour>
      <point x="378" y="587" type="line"/>
      <point x="363" y="594" type="line"/>
      <point x="460" y="751" type="line"/>
      <point x="478" y="742" type="line"/>
    </contour>
  </outline>
</glyph>
<glyph name="uni0400" format="2">
  <advance width="553"/>
  <unicode hex="0400"/>
  <outline>
    <contour>
      <point x="314" y="921" type="line"/>
      <point x="333" y="932" type="line"/>
      <point x="414" y="777" type="line"/>
      <point x="398" y="768" type="line"/>
    </contour>
    <contour>
      <point x="54" y="0" type="line"/>
      <point x="194" y="698" type="line"/>
      <point x="572" y="698" type="line"/>
      <point x="568" y="678" type="line"/>
      <point x="212" y="678" type="line"/>
      <point x="149" y="364" type="line"/>
      <point x="493" y="364" type="line"/>
      <point x="489" y="344" type="line"/>
      <point x="145" y="344" type="line"/>
      <point x="80" y="20" type="line"/>
      <point x="436" y="20" type="line"/>
      <point x="432" y="0" type="line"/>
    </contour>
  </outline>
</glyph>
<glyph name="u0406" format="2">
  <advance width="232"/>
  <unicode hex="0406"/>
  <outline>
    <contour>
      <point x="54" y="0" type="line"/>
      <point x="194" y="698" type="line"/>
      <point x="216" y="698" type="line"/>
      <point x="76" y="0" type="line"/>
    </contour>
  </outline>
</glyph>
<glyph name="afii10058" format="2">
  <advance width="967"/>
  <unicode hex="0409"/>
  <outline>
    <contour>
      <point x="430" y="0" type="line"/>
      <point x="566" y="678" type="line"/>
      <point x="289" y="678" type="line"/>
      <point x="256" y="513" type="line" smooth="yes"/>
      <point x="216" y="315"/>
      <point x="119" y="77"/>
      <point x="70" y="30" type="qcurve" smooth="yes"/>
      <point x="52" y="12"/>
      <point x="23" y="0"/>
      <point x="5" y="0" type="qcurve" smooth="yes"/>
      <point x="-40" y="0" type="line"/>
      <point x="-36" y="20" type="line"/>
      <point x="27" y="20" type="line"/>
      <point x="81" y="55"/>
      <point x="191" y="299"/>
      <point x="234" y="513" type="qcurve" smooth="yes"/>
      <point x="271" y="698" type="line"/>
      <point x="592" y="698" type="line"/>
      <point x="531" y="395" type="line"/>
      <point x="739" y="395" type="line" smooth="yes"/>
      <point x="820" y="395"/>
      <point x="897" y="308"/>
      <point x="897" y="241" type="qcurve" smooth="yes"/>
      <point x="897" y="126"/>
      <point x="781" y="0"/>
      <point x="678" y="0" type="qcurve" smooth="yes"/>
    </contour>
    <contour>
      <point x="680" y="20" type="line" smooth="yes"/>
      <point x="763" y="20"/>
      <point x="808" y="62" type="qcurve"/>
      <point x="875" y="121"/>
      <point x="875" y="241" type="qcurve" smooth="yes"/>
      <point x="875" y="297"/>
      <point x="844" y="336" type="qcurve"/>
      <point x="809" y="375"/>
      <point x="737" y="375" type="qcurve" smooth="yes"/>
      <point x="527" y="375" type="line"/>
      <point x="456" y="20" type="line"/>
    </contour>
  </outline>
</glyph>
<glyph name="afii10060" format="2">
  <advance width="765"/>
  <unicode hex="040B"/>
  <outline>
    <contour>
      <point x="629" y="0" type="line"/>
      <point x="652" y="115" type="line"/>
      <point x="671" y="194"/>
      <point x="671" y="248" type="qcurve" smooth="yes"/>
      <point x="671" y="323"/>
      <point x="585" y="401"/>
      <point x="486" y="401" type="qcurve" smooth="yes"/>
      <point x="386" y="401"/>
      <point x="308" y="372" type="qcurve"/>
      <point x="234" y="0" type="line"/>
      <point x="212" y="0" type="line"/>
      <point x="348" y="678" type="line"/>
      <point x="99" y="678" type="line"/>
      <point x="103" y="698" type="line"/>
      <point x="623" y="698" type="line"/>
      <point x="619" y="678" type="line"/>
      <point x="370" y="678" type="line"/>
      <point x="312" y="392" type="line"/>
      <point x="314" y="392" type="line"/>
      <point x="390" y="421"/>
      <point x="490" y="421" type="qcurve" smooth="yes"/>
      <point x="693" y="421"/>
      <point x="693" y="248" type="qcurve" smooth="yes"/>
      <point x="693" y="219"/>
      <point x="684" y="164"/>
      <point x="651" y="0" type="qcurve"/>
    </contour>
  </outline>
</glyph>
<glyph name="Igravecyr" format="2">
  <advance width="680"/>
  <unicode hex="040D"/>
  <outline>
    <contour>
      <point x="503" y="0" type="line"/>
      <point x="608" y="524" type="line"/>
      <point x="637" y="658" type="line"/>
      <point x="634" y="658" type="line"/>
      <point x="547" y="554"/>
      <point x="73" y="0" type="qcurve"/>
      <point x="54" y="0" type="line"/>
      <point x="194" y="698" type="line"/>
      <point x="215" y="698" type="line"/>
      <point x="110" y="174" type="line"/>
      <point x="81" y="40" type="line"/>
      <point x="84" y="40" type="line"/>
      <point x="171" y="144"/>
      <point x="645" y="698" type="qcurve"/>
      <point x="664" y="698" type="line"/>
      <point x="524" y="0" type="line"/>
    </contour>
    <contour>
      <point x="355" y="921" type="line"/>
      <point x="374" y="932" type="line"/>
      <point x="455" y="777" type="line"/>
      <point x="439" y="768" type="line"/>
    </contour>
  </outline>
</glyph>
<glyph name="Ushortcyr" format="2">
  <advance width="556"/>
  <unicode hex="040E"/>
  <outline>
    <contour>
      <point x="92" y="0" type="line"/>
      <point x="96" y="19" type="line"/>
      <point x="187" y="19" type="line"/>
      <point x="266" y="150" type="line"/>
      <point x="116" y="698" type="line"/>
      <point x="138" y="698" type="line"/>
      <point x="280" y="177" type="line"/>
      <point x="282" y="177" type="line"/>
      <point x="594" y="698" type="line"/>
      <point x="617" y="698" type="line"/>
      <point x="212" y="22" type="line" smooth="yes"/>
      <point x="204" y="9"/>
      <point x="186" y="0"/>
      <point x="172" y="0" type="qcurve" smooth="yes"/>
    </contour>
    <contour>
      <point x="371" y="786" type="qcurve" smooth="yes"/>
      <point x="333" y="786"/>
      <point x="291" y="822"/>
      <point x="280" y="855" type="qcurve" smooth="yes"/>
      <point x="264" y="900" type="line"/>
      <point x="280" y="907" type="line"/>
      <point x="303" y="842" type="line"/>
      <point x="315" y="822"/>
      <point x="346" y="804"/>
      <point x="372" y="804" type="qcurve" smooth="yes"/>
      <point x="398" y="804"/>
      <point x="437" y="822"/>
      <point x="459" y="842" type="qcurve"/>
      <point x="506" y="907" type="line"/>
      <point x="521" y="899" type="line"/>
      <point x="488" y="855" type="line" smooth="yes"/>
      <point x="464" y="822"/>
      <point x="409" y="786"/>
    </contour>
  </outline>
</glyph>
<glyph name="afii10018" format="2">
  <advance width="597"/>
  <unicode hex="0411"/>
  <outline>
    <contour>
      <point x="54" y="0" type="line"/>
      <point x="194" y="698" type="line"/>
      <point x="545" y="698" type="line"/>
      <point x="541" y="678" type="line"/>
      <point x="212" y="678" type="line"/>
      <point x="155" y="395" type="line"/>
      <point x="364" y="395" type="line" smooth="yes"/>
      <point x="445" y="395"/>
      <point x="522" y="308"/>
      <point x="522" y="241" type="qcurve" smooth="yes"/>
      <point x="522" y="126"/>
      <point x="406" y="0"/>
      <point x="303" y="0" type="qcurve" smooth="yes"/>
    </contour>
    <contour>
      <point x="305" y="20" type="line" smooth="yes"/>
      <point x="388" y="20"/>
      <point x="433" y="62" type="qcurve"/>
      <point x="500" y="121"/>
      <point x="500" y="241" type="qcurve" smooth="yes"/>
      <point x="500" y="297"/>
      <point x="469" y="336" type="qcurve"/>
      <point x="434" y="375"/>
      <point x="362" y="375" type="qcurve" smooth="yes"/>
      <point x="151" y="375" type="line"/>
      <point x="80" y="20" type="line"/>
    </contour>
  </outline>
</glyph>
<glyph name="afii10020" format="2">
  <advance width="486"/>
  <unicode hex="0413"/>
  <outline>
    <contour>
      <point x="54" y="0" type="line"/>
      <point x="194" y="698" type="line"/>
      <point x="534" y="698" type="line"/>
      <point x="530" y="678" type="line"/>
      <point x="212" y="678" type="line"/>
      <point x="76" y="0" type="line"/>
    </contour>
  </outline>
</glyph>
<glyph name="u0414" format="2">
  <advance width="659"/>
  <unicode hex="0414"/>
  <outline>
    <contour>
      <point x="592" y="678" type="line"/>
      <point x="291" y="678" type="line"/>
      <point x="258" y="513" type="line" smooth="yes"/>
      <point x="218" y="317"/>
      <point x="123" y="83"/>
      <point x="69" y="23" type="qcurve"/>
      <point x="68" y="20" type="line"/>
      <point x="460" y="20" type="line"/>
    </contour>
    <contour>
      <point x="511" y="-150" type="line"/>
      <point x="541" y="0" type="line"/>
      <point x="-9" y="0" type="line"/>
      <point x="-39" y="-150" type="line"/>
      <point x="-61" y="-150" type="line"/>
      <point x="-27" y="20" type="line"/>
      <point x="41" y="20" type="line"/>
      <point x="97" y="82"/>
      <point x="195" y="313"/>
      <point x="236" y="512" type="qcurve" smooth="yes"/>
      <point x="273" y="698" type="line"/>
      <point x="618" y="698" type="line"/>
      <point x="482" y="20" type="line"/>
      <point x="567" y="20" type="line"/>
      <point x="533" y="-150" type="line"/>
    </contour>
  </outline>
</glyph>
<glyph name="Ishortcyr" format="2">
  <advance width="680"/>
  <unicode hex="0419"/>
  <outline>
    <contour>
      <point x="503" y="0" type="line"/>
      <point x="608" y="524" type="line"/>
      <point x="637" y="658" type="line"/>
      <point x="634" y="658" type="line"/>
      <point x="547" y="554"/>
      <point x="73" y="0" type="qcurve"/>
      <point x="54" y="0" type="line"/>
      <point x="194" y="698" type="line"/>
      <point x="215" y="698" type="line"/>
      <point x="110" y="174" type="line"/>
      <point x="81" y="40" type="line"/>
      <point x="84" y="40" type="line"/>
      <point x="171" y="144"/>
      <point x="645" y="698" type="qcurve"/>
      <point x="664" y="698" type="line"/>
      <point x="524" y="0" type="line"/>
    </contour>
    <contour>
      <point x="439" y="786" type="qcurve" smooth="yes"/>
      <point x="401" y="786"/>
      <point x="359" y="822"/>
      <point x="348" y="855" type="qcurve" smooth="yes"/>
      <point x="332" y="900" type="line"/>
      <point x="348" y="907" type="line"/>
      <point x="371" y="842" type="line"/>
      <point x="383" y="822"/>
      <point x="414" y="804"/>
      <point x="440" y="804" type="qcurve" smooth="yes"/>
      <point x="466" y="804"/>
      <point x="505" y="822"/>
      <point x="527" y="842" type="qcurve"/>
      <point x="574" y="907" type="line"/>
      <point x="589" y="899" type="line"/>
      <point x="556" y="855" type="line" smooth="yes"/>
      <point x="532" y="822"/>
      <point x="477" y="786"/>
    </contour>
  </outline>
</glyph>
<glyph name="Elcyr" format="2">
  <advance width="632"/>
  <unicode hex="041B"/>
  <outline>
    <contour>
      <point x="454" y="0" type="line"/>
      <point x="590" y="678" type="line"/>
      <point x="289" y="678" type="line"/>
      <point x="256" y="513" type="line" smooth="yes"/>
      <point x="216" y="315"/>
      <point x="119" y="77"/>
      <point x="70" y="30" type="qcurve" smooth="yes"/>
      <point x="52" y="12"/>
      <point x="23" y="0"/>
      <point x="5" y="0" type="qcurve" smooth="yes"/>
      <point x="-40" y="0" type="line"/>
      <point x="-36" y="20" type="line"/>
      <point x="27" y="20" type="line"/>
      <point x="81" y="55"/>
      <point x="191" y="299"/>
      <point x="234" y="513" type="qcurve" smooth="yes"/>
      <point x="271" y="698" type="line"/>
      <point x="616" y="698" type="line"/>
      <point x="476" y="0" type="line"/>
    </contour>
  </outline>
</glyph>
<glyph name="afii10034" format="2">
  <advance width="582"/>
  <unicode hex="0420"/>
  <outline>
    <contour>
      <point x="54" y="0" type="line"/>
      <point x="194" y="698" type="line"/>
      <point x="445" y="698" type="line" smooth="yes"/>
      <point x="518" y="698"/>
      <point x="596" y="614"/>
      <point x="596" y="550" type="qcurve" smooth="yes"/>
      <point x="596" y="441"/>
      <point x="484" y="322"/>
      <point x="386" y="322" type="qcurve" smooth="yes"/>
      <point x="141" y="322" type="line"/>
      <point x="76" y="0" type="line"/>
    </contour>
    <contour>
      <point x="388" y="342" type="line" smooth="yes"/>
      <point x="466" y="342"/>
      <point x="553" y="420"/>
      <point x="565" y="481" type="qcurve" smooth="yes"/>
      <point x="574" y="522"/>
      <point x="574" y="550" type="qcurve" smooth="yes"/>
      <point x="574" y="603"/>
      <point x="543" y="641" type="qcurve"/>
      <point x="511" y="678"/>
      <point x="443" y="678" type="qcurve" smooth="yes"/>
      <point x="211" y="678" type="line"/>
      <point x="145" y="342" type="line"/>
    </contour>
  </outline>
</glyph>
<glyph name="Tecyr" format="2">
  <advance width="548"/>
  <unicode hex="0422"/>
  <outline>
    <contour>
      <point x="212" y="0" type="line"/>
      <point x="348" y="678" type="line"/>
      <point x="99" y="678" type="line"/>
      <point x="103" y="698" type="line"/>
      <point x="623" y="698" type="line"/>
      <point x="619" y="678" type="line"/>
      <point x="370" y="678" type="line"/>
      <point x="234" y="0" type="line"/>
    </contour>
  </outline>
</glyph>
<glyph name="Ucyr" format="2">
  <advance width="556"/>
  <unicode hex="0423"/>
  <outline>
    <contour>
      <point x="92" y="0" type="line"/>
      <point x="96" y="19" type="line"/>
      <point x="187" y="19" type="line"/>
      <point x="266" y="150" type="line"/>
      <point x="116" y="698" type="line"/>
      <point x="138" y="698" type="line"/>
      <point x="280" y="177" type="line"/>
      <point x="282" y="177" type="line"/>
      <point x="594" y="698" type="line"/>
      <point x="617" y="698" type="line"/>
      <point x="212" y="22" type="line" smooth="yes"/>
      <point x="204" y="9"/>
      <point x="186" y="0"/>
      <point x="172" y="0" type="qcurve" smooth="yes"/>
    </contour>
  </outline>
</glyph>
<glyph name="afii10044" format="2">
  <advance width="706"/>
  <unicode hex="042A"/>
  <outline>
    <contour>
      <point x="168" y="0" type="line"/>
      <point x="304" y="678" type="line"/>
      <point x="99" y="678" type="line"/>
      <point x="103" y="698" type="line"/>
      <point x="330" y="698" type="line"/>
      <point x="269" y="395" type="line"/>
      <point x="478" y="395" type="line" smooth="yes"/>
      <point x="559" y="395"/>
      <point x="636" y="308"/>
      <point x="636" y="241" type="qcurve" smooth="yes"/>
      <point x="636" y="126"/>
      <point x="520" y="0"/>
      <point x="417" y="0" type="qcurve" smooth="yes"/>
    </contour>
    <contour>
      <point x="419" y="20" type="line" smooth="yes"/>
      <point x="502" y="20"/>
      <point x="547" y="62" type="qcurve"/>
      <point x="614" y="121"/>
      <point x="614" y="241" type="qcurve" smooth="yes"/>
      <point x="614" y="297"/>
      <point x="583" y="336" type="qcurve"/>
      <point x="548" y="375"/>
      <point x="476" y="375" type="qcurve" smooth="yes"/>
      <point x="265" y="375" type="line"/>
      <point x="194" y="20" type="line"/>
    </contour>
  </outline>
</glyph>
<glyph name="u042C" format="2">
  <advance width="602"/>
  <unicode hex="042C"/>
  <outline>
    <contour>
      <point x="315" y="20" type="line" smooth="yes"/>
      <point x="398" y="20"/>
      <point x="443" y="62" type="qcurve"/>
      <point x="510" y="121"/>
      <point x="510" y="241" type="qcurve" smooth="yes"/>
      <point x="510" y="297"/>
      <point x="479" y="336" type="qcurve"/>
      <point x="444" y="375"/>
      <point x="372" y="375" type="qcurve" smooth="yes"/>
      <point x="152" y="375" type="line"/>
      <point x="81" y="20" type="line"/>
    </contour>
    <contour>
      <point x="55" y="0" type="line"/>
      <point x="195" y="698" type="line"/>
      <point x="217" y="698" type="line"/>
      <point x="156" y="395" type="line"/>
      <point x="374" y="395" type="line" smooth="yes"/>
      <point x="455" y="395"/>
      <point x="532" y="308"/>
      <point x="532" y="241" type="qcurve" smooth="yes"/>
      <point x="532" y="126"/>
      <point x="416" y="0"/>
      <point x="313" y="0" type="qcurve" smooth="yes"/>
    </contour>
  </outline>
</glyph>
<glyph name="Yacyr" format="2">
  <advance width="610"/>
  <unicode hex="042F"/>
  <outline>
    <contour>
      <point x="568" y="678" type="line"/>
      <point x="322" y="678" type="line" smooth="yes"/>
      <point x="245" y="678"/>
      <point x="158" y="599"/>
      <point x="146" y="536" type="qcurve" smooth="yes"/>
      <point x="141" y="512"/>
      <point x="138" y="482"/>
      <point x="138" y="469" type="qcurve" smooth="yes"/>
      <point x="138" y="415"/>
      <point x="197" y="342"/>
      <point x="269" y="342" type="qcurve" smooth="yes"/>
      <point x="500" y="342" type="line"/>
    </contour>
    <contour>
      <point x="432" y="0" type="line"/>
      <point x="496" y="322" type="line"/>
      <point x="286" y="322" type="line"/>
      <point x="64" y="19" type="line" smooth="yes"/>
      <point x="56" y="8"/>
      <point x="39" y="0"/>
      <point x="25" y="0" type="qcurve" smooth="yes"/>
      <point x="-24" y="0" type="line"/>
      <point x="-20" y="20" type="line"/>
      <point x="39" y="20" type="line"/>
      <point x="236" y="289" type="line" smooth="yes"/>
      <point x="249" y="307"/>
      <point x="262" y="317"/>
      <point x="271" y="319" type="qcurve"/>
      <point x="272" y="322" type="line"/>
      <point x="266" y="322" type="line" smooth="yes"/>
      <point x="189" y="322"/>
      <point x="116" y="405"/>
      <point x="116" y="469" type="qcurve" smooth="yes"/>
      <point x="116" y="578"/>
      <point x="226" y="698"/>
      <point x="324" y="698" type="qcurve" smooth="yes"/>
      <point x="594" y="698" type="line"/>
      <point x="454" y="0" type="line"/>
    </contour>
  </outline>
</glyph>
<glyph name="vecyr" format="2">
  <advance width="509"/>
  <unicode hex="0432"/>
  <outline>
    <contour>
      <point x="273" y="19" type="line" smooth="yes"/>
      <point x="379" y="19"/>
      <point x="398" y="117" type="qcurve" smooth="yes"/>
      <point x="404" y="149" type="line"/>
      <point x="404" y="165" type="line" smooth="yes"/>
      <point x="404" y="250"/>
      <point x="311" y="250" type="qcurve" smooth="yes"/>
      <point x="124" y="250" type="line"/>
      <point x="78" y="19" type="line"/>
    </contour>
    <contour>
      <point x="304" y="269" type="line" smooth="yes"/>
      <point x="351" y="269"/>
      <point x="382" y="294" type="qcurve" smooth="yes"/>
      <point x="428" y="330"/>
      <point x="428" y="407" type="qcurve" smooth="yes"/>
      <point x="428" y="487"/>
      <point x="340" y="487" type="qcurve" smooth="yes"/>
      <point x="171" y="487" type="line"/>
      <point x="128" y="269" type="line"/>
    </contour>
    <contour>
      <point x="53" y="0" type="line"/>
      <point x="154" y="506" type="line"/>
      <point x="340" y="506" type="line"/>
      <point x="449" y="503"/>
      <point x="449" y="407" type="qcurve" smooth="yes"/>
      <point x="449" y="347"/>
      <point x="396" y="273"/>
      <point x="350" y="262" type="qcurve"/>
      <point x="350" y="260" type="line"/>
      <point x="425" y="242"/>
      <point x="425" y="165" type="qcurve" smooth="yes"/>
      <point x="425" y="85"/>
      <point x="346" y="0"/>
      <point x="273" y="0" type="qcurve" smooth="yes"/>
    </contour>
  </outline>
</glyph>
<glyph name="gecyr" format="2">
  <advance width="416"/>
  <unicode hex="0433"/>
  <outline>
    <contour>
      <point x="53" y="0" type="line"/>
      <point x="154" y="506" type="line"/>
      <point x="430" y="506" type="line"/>
      <point x="426" y="487" type="line"/>
      <point x="171" y="487" type="line"/>
      <point x="74" y="0" type="line"/>
    </contour>
  </outline>
</glyph>
<glyph name="afii10077" format="2">
  <advance width="525"/>
  <unicode hex="043B"/>
  <outline>
    <contour>
      <point x="350" y="0" type="line"/>
      <point x="447" y="487" type="line"/>
      <point x="213" y="487" type="line"/>
      <point x="187" y="356" type="line" smooth="yes"/>
      <point x="135" y="113"/>
      <point x="39" y="18" type="qcurve" smooth="yes"/>
      <point x="28" y="7"/>
      <point x="10" y="0"/>
      <point x="-6" y="0" type="qcurve" smooth="yes"/>
      <point x="-48" y="0" type="line"/>
      <point x="-44" y="19" type="line"/>
      <point x="13" y="19" type="line"/>
      <point x="116" y="117"/>
      <point x="166" y="356" type="qcurve" smooth="yes"/>
      <point x="196" y="506" type="line"/>
      <point x="472" y="506" type="line"/>
      <point x="371" y="0" type="line"/>
    </contour>
  </outline>
</glyph>
<glyph name="ucyr" format="2">
  <advance width="460"/>
  <unicode hex="0443"/>
  <outline>
    <contour>
      <point x="-24" y="-200" type="line"/>
      <point x="-20" y="-181" type="line"/>
      <point x="64" y="-181" type="line"/>
      <point x="164" y="-3" type="line"/>
      <point x="73" y="506" type="line"/>
      <point x="93" y="506" type="line"/>
      <point x="178" y="24" type="line"/>
      <point x="181" y="24" type="line"/>
      <point x="454" y="506" type="line"/>
      <point x="477" y="506" type="line"/>
      <point x="89" y="-175" type="line" smooth="yes"/>
      <point x="81" y="-189"/>
      <point x="65" y="-200"/>
      <point x="51" y="-200" type="qcurve" smooth="yes"/>
    </contour>
  </outline>
</glyph>
<glyph name="afii10088" format="2">
  <advance width="568"/>
  <unicode hex="0446"/>
  <outline>
    <contour>
      <point x="423" y="-140" type="line"/>
      <point x="451" y="0" type="line"/>
      <point x="394" y="0" type="line" smooth="yes"/>
      <point x="371" y="0"/>
      <point x="371" y="19" type="qcurve" smooth="yes"/>
      <point x="371" y="25"/>
      <point x="387" y="105" type="qcurve"/>
      <point x="384" y="105" type="line"/>
      <point x="355" y="48"/>
      <point x="269" y="-12"/>
      <point x="206" y="-12" type="qcurve" smooth="yes"/>
      <point x="142" y="-12"/>
      <point x="74" y="57"/>
      <point x="74" y="120" type="qcurve" smooth="yes"/>
      <point x="74" y="150"/>
      <point x="81" y="185" type="qcurve" smooth="yes"/>
      <point x="145" y="506" type="line"/>
      <point x="166" y="506" type="line"/>
      <point x="102" y="186" type="line"/>
      <point x="95" y="145"/>
      <point x="95" y="123" type="qcurve" smooth="yes"/>
      <point x="95" y="7"/>
      <point x="209" y="7" type="qcurve" smooth="yes"/>
      <point x="288" y="7"/>
      <point x="342" y="69" type="qcurve" smooth="yes"/>
      <point x="389" y="122"/>
      <point x="405" y="194" type="qcurve"/>
      <point x="467" y="506" type="line"/>
      <point x="488" y="506" type="line"/>
      <point x="391" y="19" type="line"/>
      <point x="476" y="19" type="line"/>
      <point x="444" y="-140" type="line"/>
    </contour>
  </outline>
</glyph>
<glyph name="afii10089" format="2">
  <advance width="504"/>
  <unicode hex="0447"/>
  <outline>
    <contour>
      <point x="329" y="0" type="line"/>
      <point x="386" y="288" type="line"/>
      <point x="383" y="288" type="line"/>
      <point x="323" y="195"/>
      <point x="209" y="195" type="qcurve" smooth="yes"/>
      <point x="142" y="195"/>
      <point x="74" y="255"/>
      <point x="74" y="303" type="qcurve" smooth="yes"/>
      <point x="74" y="338"/>
      <point x="81" y="370" type="qcurve" smooth="yes"/>
      <point x="108" y="506" type="line"/>
      <point x="129" y="506" type="line"/>
      <point x="102" y="371" type="line" smooth="yes"/>
      <point x="95" y="333"/>
      <point x="95" y="303" type="qcurve"/>
      <point x="98" y="214"/>
      <point x="212" y="214" type="qcurve" smooth="yes"/>
      <point x="300" y="214"/>
      <point x="352" y="271" type="qcurve"/>
      <point x="395" y="323"/>
      <point x="403" y="371" type="qcurve"/>
      <point x="430" y="506" type="line"/>
      <point x="451" y="506" type="line"/>
      <point x="350" y="0" type="line"/>
    </contour>
  </outline>
</glyph>
<glyph name="afii10093" format="2">
  <advance width="651"/>
  <unicode hex="044B"/>
  <outline>
    <contour>
      <point x="53" y="0" type="line"/>
      <point x="154" y="506" type="line"/>
      <point x="175" y="506" type="line"/>
      <point x="133" y="293" type="line"/>
      <point x="263" y="293" type="line" smooth="yes"/>
      <point x="338" y="293"/>
      <point x="401" y="236"/>
      <point x="401" y="182" type="qcurve" smooth="yes"/>
      <point x="401" y="112"/>
      <point x="367" y="63" type="qcurve" smooth="yes"/>
      <point x="323" y="0"/>
      <point x="222" y="0" type="qcurve" smooth="yes"/>
    </contour>
    <contour>
      <point x="476" y="0" type="line"/>
      <point x="577" y="506" type="line"/>
      <point x="598" y="506" type="line"/>
      <point x="497" y="0" type="line"/>
    </contour>
    <contour>
      <point x="224" y="19" type="line" smooth="yes"/>
      <point x="291" y="19"/>
      <point x="330" y="52" type="qcurve" smooth="yes"/>
      <point x="380" y="94"/>
      <point x="380" y="182" type="qcurve" smooth="yes"/>
      <point x="380" y="229"/>
      <point x="328" y="274"/>
      <point x="261" y="274" type="qcurve" smooth="yes"/>
      <point x="129" y="274" type="line"/>
      <point x="78" y="19" type="line"/>
    </contour>
  </outline>
</glyph>
<glyph name="yucyr" format="2">
  <advance width="725"/>
  <unicode hex="044E"/>
  <outline>
    <contour>
      <point x="418" y="7" type="qcurve" smooth="yes"/>
      <point x="503" y="7"/>
      <point x="612" y="122"/>
      <point x="632" y="225" type="qcurve" smooth="yes"/>
      <point x="640" y="265" type="line"/>
      <point x="645" y="297"/>
      <point x="645" y="337" type="qcurve" smooth="yes"/>
      <point x="645" y="403"/>
      <point x="610" y="451" type="qcurve"/>
      <point x="571" y="499"/>
      <point x="498" y="499" type="qcurve" smooth="yes"/>
      <point x="413" y="499"/>
      <point x="305" y="384"/>
      <point x="284" y="281" type="qcurve" smooth="yes"/>
      <point x="276" y="241" type="line"/>
      <point x="271" y="210"/>
      <point x="271" y="169" type="qcurve" smooth="yes"/>
      <point x="271" y="103"/>
      <point x="306" y="55" type="qcurve"/>
      <point x="345" y="7"/>
    </contour>
    <contour>
      <point x="416" y="-12" type="qcurve" smooth="yes"/>
      <point x="337" y="-12"/>
      <point x="250" y="93"/>
      <point x="250" y="169" type="qcurve" smooth="yes"/>
      <point x="250" y="216"/>
      <point x="257" y="256" type="qcurve"/>
      <point x="125" y="256" type="line"/>
      <point x="74" y="0" type="line"/>
      <point x="53" y="0" type="line"/>
      <point x="154" y="506" type="line"/>
      <point x="175" y="506" type="line"/>
      <point x="129" y="275" type="line"/>
      <point x="260" y="275" type="line"/>
      <point x="280" y="381"/>
      <point x="404" y="518"/>
      <point x="500" y="518" type="qcurve" smooth="yes"/>
      <point x="580" y="518"/>
      <point x="666" y="411"/>
      <point x="666" y="337" type="qcurve" smooth="yes"/>
      <point x="666" y="267"/>
      <point x="635" y="141"/>
      <point x="572" y="44"/>
      <point x="478" y="-12"/>
    </contour>
  </outline>
</glyph>
<glyph name="iocyr" format="2">
  <advance width="505"/>
  <unicode hex="0451"/>
  <outline>
    <contour>
      <point x="87" y="252" type="line"/>
      <point x="305" y="258"/>
      <point x="378" y="300" type="qcurve"/>
      <point x="444" y="335"/>
      <point x="444" y="395" type="qcurve" smooth="yes"/>
      <point x="444" y="441"/>
      <point x="379" y="499"/>
      <point x="306" y="499" type="qcurve" smooth="yes"/>
      <point x="222" y="499"/>
      <point x="109" y="371"/>
      <point x="90" y="269" type="qcurve" smooth="yes"/>
    </contour>
    <contour>
      <point x="237" y="-12" type="qcurve" smooth="yes"/>
      <point x="61" y="-12"/>
      <point x="61" y="187" type="qcurve" smooth="yes"/>
      <point x="61" y="325"/>
      <point x="130" y="422" type="qcurve" smooth="yes"/>
      <point x="163" y="467"/>
      <point x="253" y="518"/>
      <point x="308" y="518" type="qcurve" smooth="yes"/>
      <point x="380" y="518"/>
      <point x="466" y="452"/>
      <point x="466" y="395" type="qcurve" smooth="yes"/>
      <point x="466" y="332"/>
      <point x="403" y="293" type="qcurve" smooth="yes"/>
      <point x="317" y="239"/>
      <point x="85" y="233" type="qcurve"/>
      <point x="82" y="201"/>
      <point x="82" y="189" type="qcurve" smooth="yes"/>
      <point x="82" y="92"/>
      <point x="159" y="7"/>
      <point x="237" y="7" type="qcurve" smooth="yes"/>
      <point x="362" y="7"/>
      <point x="426" y="132" type="qcurve"/>
      <point x="445" y="124" type="line"/>
      <point x="371" y="-12"/>
    </contour>
    <contour>
      <point x="248" y="642" type="qcurve" smooth="yes"/>
      <point x="228" y="642"/>
      <point x="228" y="659" type="qcurve" smooth="yes"/>
      <point x="228" y="665"/>
      <point x="233" y="680"/>
      <point x="242" y="691"/>
      <point x="254" y="691" type="qcurve" smooth="yes"/>
      <point x="274" y="691"/>
      <point x="274" y="674" type="qcurve" smooth="yes"/>
      <point x="274" y="642"/>
    </contour>
    <contour>
      <point x="430" y="642" type="qcurve" smooth="yes"/>
      <point x="410" y="642"/>
      <point x="410" y="659" type="qcurve" smooth="yes"/>
      <point x="410" y="665"/>
      <point x="415" y="680"/>
      <point x="424" y="691"/>
      <point x="436" y="691" type="qcurve" smooth="yes"/>
      <point x="456" y="691"/>
      <point x="456" y="674" type="qcurve" smooth="yes"/>
      <point x="456" y="642"/>
    </contour>
  </outline>
</glyph>
<glyph name="u0452" format="2">
  <advance width="555"/>
  <unicode hex="0452"/>
  <outline>
    <contour>
      <point x="254" y="-200" type="line"/>
      <point x="258" y="-181" type="line"/>
      <point x="343" y="-181" type="line"/>
      <point x="443" y="320" type="line"/>
      <point x="450" y="361"/>
      <point x="450" y="383" type="qcurve" smooth="yes"/>
      <point x="450" y="499"/>
      <point x="336" y="499" type="qcurve" smooth="yes"/>
      <point x="257" y="499"/>
      <point x="203" y="437" type="qcurve" smooth="yes"/>
      <point x="156" y="384"/>
      <point x="140" y="312" type="qcurve"/>
      <point x="78" y="0" type="line"/>
      <point x="57" y="0" type="line"/>
      <point x="182" y="629" type="line"/>
      <point x="115" y="629" type="line"/>
      <point x="119" y="647" type="line"/>
      <point x="186" y="647" type="line"/>
      <point x="204" y="740" type="line"/>
      <point x="225" y="740" type="line"/>
      <point x="207" y="647" type="line"/>
      <point x="369" y="647" type="line"/>
      <point x="365" y="629" type="line"/>
      <point x="203" y="629" type="line"/>
      <point x="158" y="401" type="line"/>
      <point x="161" y="401" type="line"/>
      <point x="191" y="458"/>
      <point x="276" y="518"/>
      <point x="339" y="518" type="qcurve" smooth="yes"/>
      <point x="403" y="518"/>
      <point x="471" y="449"/>
      <point x="471" y="386" type="qcurve" smooth="yes"/>
      <point x="471" y="356"/>
      <point x="464" y="321" type="qcurve" smooth="yes"/>
      <point x="367" y="-167" type="line"/>
      <point x="364" y="-187"/>
      <point x="347" y="-200"/>
      <point x="326" y="-200" type="qcurve" smooth="yes"/>
    </contour>
  </outline>
</glyph>
<glyph name="eukrcyr" format="2">
  <advance width="489"/>
  <unicode hex="0454"/>
  <outline>
    <contour>
      <point x="223" y="-12" type="qcurve" smooth="yes"/>
      <point x="144" y="-12"/>
      <point x="61" y="101"/>
      <point x="61" y="186" type="qcurve" smooth="yes"/>
      <point x="61" y="326"/>
      <point x="123" y="422" type="qcurve" smooth="yes"/>
      <point x="153" y="467"/>
      <point x="243" y="518"/>
      <point x="301" y="518" type="qcurve" smooth="yes"/>
      <point x="361" y="518"/>
      <point x="439" y="455"/>
      <point x="451" y="403" type="qcurve"/>
      <point x="432" y="398" type="line"/>
      <point x="420" y="447"/>
      <point x="350" y="499"/>
      <point x="299" y="499" type="qcurve" smooth="yes"/>
      <point x="222" y="499"/>
      <point x="114" y="392"/>
      <point x="96" y="297" type="qcurve" smooth="yes"/>
      <point x="90" y="265" type="line"/>
      <point x="352" y="265" type="line"/>
      <point x="348" y="246" type="line"/>
      <point x="87" y="246" type="line"/>
      <point x="82" y="216"/>
      <point x="82" y="186" type="qcurve" smooth="yes"/>
      <point x="82" y="113"/>
      <point x="115" y="60" type="qcurve"/>
      <point x="151" y="7"/>
      <point x="223" y="7" type="qcurve" smooth="yes"/>
      <point x="282" y="7"/>
      <point x="370" y="69"/>
      <point x="405" y="123" type="qcurve"/>
      <point x="422" y="114" type="line"/>
      <point x="386" y="56"/>
      <point x="289" y="-12"/>
    </contour>
  </outline>
</glyph>
<glyph name="u0459" format="2">
  <advance width="735"/>
  <unicode hex="0459"/>
  <outline>
    <contour>
      <point x="488" y="19" type="line" smooth="yes"/>
      <point x="555" y="19"/>
      <point x="594" y="52" type="qcurve" smooth="yes"/>
      <point x="644" y="94"/>
      <point x="644" y="182" type="qcurve" smooth="yes"/>
      <point x="644" y="229"/>
      <point x="592" y="274"/>
      <point x="525" y="274" type="qcurve" smooth="yes"/>
      <point x="393" y="274" type="line"/>
      <point x="342" y="19" type="line"/>
    </contour>
    <contour>
      <point x="317" y="0" type="line"/>
      <point x="414" y="487" type="line"/>
      <point x="213" y="487" type="line"/>
      <point x="187" y="356" type="line" smooth="yes"/>
      <point x="135" y="113"/>
      <point x="39" y="18" type="qcurve" smooth="yes"/>
      <point x="28" y="7"/>
      <point x="10" y="0"/>
      <point x="-6" y="0" type="qcurve" smooth="yes"/>
      <point x="-48" y="0" type="line"/>
      <point x="-44" y="19" type="line"/>
      <point x="13" y="19" type="line"/>
      <point x="116" y="117"/>
      <point x="166" y="356" type="qcurve" smooth="yes"/>
      <point x="196" y="506" type="line"/>
      <point x="439" y="506" type="line"/>
      <point x="397" y="293" type="line"/>
      <point x="527" y="293" type="line" smooth="yes"/>
      <point x="602" y="293"/>
      <point x="665" y="236"/>
      <point x="665" y="182" type="qcurve" smooth="yes"/>
      <point x="665" y="112"/>
      <point x="631" y="63" type="qcurve" smooth="yes"/>
      <point x="587" y="0"/>
      <point x="486" y="0" type="qcurve" smooth="yes"/>
    </contour>
  </outline>
</glyph>
<glyph name="afii10108" format="2">
  <advance width="552"/>
  <unicode hex="045B"/>
  <outline>
    <contour>
      <point x="407" y="0" type="line" smooth="yes"/>
      <point x="384" y="0"/>
      <point x="384" y="19" type="qcurve" smooth="yes"/>
      <point x="384" y="25"/>
      <point x="443" y="320" type="qcurve"/>
      <point x="450" y="361"/>
      <point x="450" y="383" type="qcurve" smooth="yes"/>
      <point x="450" y="499"/>
      <point x="336" y="499" type="qcurve" smooth="yes"/>
      <point x="257" y="499"/>
      <point x="203" y="437" type="qcurve" smooth="yes"/>
      <point x="156" y="384"/>
      <point x="140" y="312" type="qcurve"/>
      <point x="78" y="0" type="line"/>
      <point x="57" y="0" type="line"/>
      <point x="182" y="629" type="line"/>
      <point x="115" y="629" type="line"/>
      <point x="119" y="647" type="line"/>
      <point x="186" y="647" type="line"/>
      <point x="204" y="740" type="line"/>
      <point x="225" y="740" type="line"/>
      <point x="207" y="647" type="line"/>
      <point x="369" y="647" type="line"/>
      <point x="365" y="629" type="line"/>
      <point x="203" y="629" type="line"/>
      <point x="158" y="401" type="line"/>
      <point x="161" y="401" type="line"/>
      <point x="191" y="458"/>
      <point x="276" y="518"/>
      <point x="339" y="518" type="qcurve" smooth="yes"/>
      <point x="403" y="518"/>
      <point x="471" y="449"/>
      <point x="471" y="386" type="qcurve" smooth="yes"/>
      <point x="471" y="356"/>
      <point x="464" y="321" type="qcurve" smooth="yes"/>
      <point x="404" y="19" type="line"/>
      <point x="489" y="19" type="line"/>
      <point x="485" y="0" type="line"/>
    </contour>
  </outline>
</glyph>
<glyph name="ushortcyr" format="2">
  <advance width="460"/>
  <unicode hex="045E"/>
  <outline>
    <contour>
      <point x="-24" y="-200" type="line"/>
      <point x="-20" y="-181" type="line"/>
      <point x="64" y="-181" type="line"/>
      <point x="164" y="-3" type="line"/>
      <point x="73" y="506" type="line"/>
      <point x="93" y="506" type="line"/>
      <point x="178" y="24" type="line"/>
      <point x="181" y="24" type="line"/>
      <point x="454" y="506" type="line"/>
      <point x="477" y="506" type="line"/>
      <point x="89" y="-175" type="line" smooth="yes"/>
      <point x="81" y="-189"/>
      <point x="65" y="-200"/>
      <point x="51" y="-200" type="qcurve" smooth="yes"/>
    </contour>
    <contour>
      <point x="290" y="606" type="qcurve" smooth="yes"/>
      <point x="252" y="606"/>
      <point x="210" y="642"/>
      <point x="199" y="675" type="qcurve" smooth="yes"/>
      <point x="183" y="720" type="line"/>
      <point x="199" y="727" type="line"/>
      <point x="222" y="662" type="line"/>
      <point x="234" y="642"/>
      <point x="265" y="624"/>
      <point x="291" y="624" type="qcurve" smooth="yes"/>
      <point x="317" y="624"/>
      <point x="356" y="642"/>
      <point x="378" y="662" type="qcurve"/>
      <point x="425" y="727" type="line"/>
      <point x="440" y="719" type="line"/>
      <point x="407" y="675" type="line" smooth="yes"/>
      <point x="383" y="642"/>
      <point x="328" y="606"/>
    </contour>
  </outline>
</glyph>
<glyph name="Zetailcyr" format="2">
  <advance width="556"/>
  <unicode hex="0498"/>
  <outline>
    <contour>
      <point x="200" y="-150" type="line"/>
      <point x="228" y="-12" type="line"/>
      <point x="83" y="-9"/>
      <point x="22" y="95" type="qcurve"/>
      <point x="40" y="107" type="line"/>
      <point x="69" y="56"/>
      <point x="166" y="8"/>
      <point x="241" y="8" type="qcurve" smooth="yes"/>
      <point x="325" y="8"/>
      <point x="383" y="47" type="qcurve" smooth="yes"/>
      <point x="459" y="98"/>
      <point x="459" y="205" type="qcurve" smooth="yes"/>
      <point x="459" y="267"/>
      <point x="381" y="344"/>
      <point x="302" y="344" type="qcurve" smooth="yes"/>
      <point x="192" y="344" type="line"/>
      <point x="196" y="364" type="line"/>
      <point x="305" y="364" type="line" smooth="yes"/>
      <point x="386" y="364"/>
      <point x="490" y="441"/>
      <point x="505" y="510" type="qcurve" smooth="yes"/>
      <point x="511" y="541"/>
      <point x="511" y="557" type="qcurve" smooth="yes"/>
      <point x="511" y="619"/>
      <point x="427" y="690"/>
      <point x="355" y="690" type="qcurve" smooth="yes"/>
      <point x="281" y="690"/>
      <point x="187" y="643"/>
      <point x="157" y="590" type="qcurve"/>
      <point x="139" y="599" type="line"/>
      <point x="198" y="710"/>
      <point x="358" y="710" type="qcurve" smooth="yes"/>
      <point x="432" y="710"/>
      <point x="533" y="629"/>
      <point x="533" y="557" type="qcurve" smooth="yes"/>
      <point x="533" y="473"/>
      <point x="436" y="366"/>
      <point x="362" y="354" type="qcurve"/>
      <point x="361" y="351" type="line"/>
      <point x="414" y="344"/>
      <point x="481" y="266"/>
      <point x="481" y="205" type="qcurve" smooth="yes"/>
      <point x="481" y="103"/>
      <point x="354" y="-9"/>
      <point x="250" y="-12" type="qcurve"/>
      <point x="222" y="-150" type="line"/>
    </contour>
  </outline>
</glyph>
<glyph name="zedescendercyrillic" format="2">
  <advance width="470"/>
  <unicode hex="0499"/>
  <outline>
    <contour>
      <point x="166" y="-140" type="line"/>
      <point x="192" y="-12" type="line"/>
      <point x="123" y="-8"/>
      <point x="38" y="62"/>
      <point x="26" y="118" type="qcurve"/>
      <point x="45" y="123" type="line"/>
      <point x="73" y="7"/>
      <point x="203" y="7" type="qcurve" smooth="yes"/>
      <point x="262" y="7"/>
      <point x="347" y="58"/>
      <point x="361" y="115" type="qcurve" smooth="yes"/>
      <point x="365" y="132"/>
      <point x="365" y="151" type="qcurve"/>
      <point x="360" y="251"/>
      <point x="234" y="251" type="qcurve" smooth="yes"/>
      <point x="142" y="251" type="line"/>
      <point x="146" y="270" type="line"/>
      <point x="236" y="270" type="line" smooth="yes"/>
      <point x="297" y="270"/>
      <point x="340" y="293" type="qcurve" smooth="yes"/>
      <point x="400" y="326"/>
      <point x="400" y="405" type="qcurve" smooth="yes"/>
      <point x="400" y="445"/>
      <point x="340" y="499"/>
      <point x="271" y="499" type="qcurve" smooth="yes"/>
      <point x="157" y="499"/>
      <point x="106" y="409" type="qcurve"/>
      <point x="89" y="418" type="line"/>
      <point x="118" y="466"/>
      <point x="205" y="518"/>
      <point x="273" y="518" type="qcurve" smooth="yes"/>
      <point x="347" y="518"/>
      <point x="421" y="456"/>
      <point x="421" y="405" type="qcurve" smooth="yes"/>
      <point x="421" y="343"/>
      <point x="352" y="270"/>
      <point x="291" y="261" type="qcurve"/>
      <point x="291" y="259" type="line"/>
      <point x="386" y="240"/>
      <point x="386" y="151" type="qcurve" smooth="yes"/>
      <point x="386" y="80"/>
      <point x="295" y="-7"/>
      <point x="213" y="-12" type="qcurve"/>
      <point x="187" y="-140" type="line"/>
    </contour>
  </outline>
</glyph>
<glyph name="u04AE" format="2">
  <advance width="540"/>
  <unicode hex="04AE"/>
  <outline>
    <contour>
      <point x="208" y="0" type="line"/>
      <point x="267" y="294" type="line"/>
      <point x="109" y="698" type="line"/>
      <point x="132" y="698" type="line"/>
      <point x="280" y="320" type="line"/>
      <point x="283" y="320" type="line"/>
      <point x="583" y="698" type="line"/>
      <point x="609" y="698" type="line"/>
      <point x="289" y="294" type="line"/>
      <point x="230" y="0" type="line"/>
    </contour>
  </outline>
</glyph>
<glyph name="Cheverticalstrokecyrillic" format="2">
  <advance width="607"/>
  <unicode hex="04B8"/>
  <outline>
    <contour>
      <point x="429" y="0" type="line"/>
      <point x="491" y="306" type="line"/>
      <point x="489" y="306" type="line"/>
      <point x="418" y="277"/>
      <point x="304" y="277" type="qcurve"/>
      <point x="273" y="118" type="line"/>
      <point x="252" y="118" type="line"/>
      <point x="283" y="278" type="line"/>
      <point x="110" y="288"/>
      <point x="110" y="450" type="qcurve" smooth="yes"/>
      <point x="110" y="479"/>
      <point x="119" y="534"/>
      <point x="152" y="698" type="qcurve"/>
      <point x="174" y="698" type="line"/>
      <point x="151" y="583" type="line"/>
      <point x="132" y="504"/>
      <point x="132" y="450" type="qcurve" smooth="yes"/>
      <point x="132" y="308"/>
      <point x="287" y="298" type="qcurve"/>
      <point x="324" y="482" type="line"/>
      <point x="345" y="482" type="line"/>
      <point x="308" y="297" type="line"/>
      <point x="421" y="297"/>
      <point x="495" y="326" type="qcurve"/>
      <point x="569" y="698" type="line"/>
      <point x="591" y="698" type="line"/>
      <point x="451" y="0" type="line"/>
    </contour>
  </outline>
</glyph>
<glyph name="u04BA" format="2">
  <advance width="607"/>
  <unicode hex="04BA"/>
  <outline>
    <contour>
      <point x="471" y="0" type="line"/>
      <point x="494" y="115" type="line"/>
      <point x="513" y="194"/>
      <point x="513" y="248" type="qcurve" smooth="yes"/>
      <point x="513" y="323"/>
      <point x="427" y="401"/>
      <point x="328" y="401" type="qcurve" smooth="yes"/>
      <point x="228" y="401"/>
      <point x="150" y="372" type="qcurve"/>
      <point x="76" y="0" type="line"/>
      <point x="54" y="0" type="line"/>
      <point x="194" y="698" type="line"/>
      <point x="216" y="698" type="line"/>
      <point x="154" y="392" type="line"/>
      <point x="156" y="392" type="line"/>
      <point x="232" y="421"/>
      <point x="332" y="421" type="qcurve" smooth="yes"/>
      <point x="535" y="421"/>
      <point x="535" y="248" type="qcurve" smooth="yes"/>
      <point x="535" y="219"/>
      <point x="526" y="164"/>
      <point x="493" y="0" type="qcurve"/>
    </contour>
  </outline>
</glyph>
<glyph name="shhacyrillic" format="2">
  <advance width="549"/>
  <unicode hex="04BB"/>
  <outline>
    <contour>
      <point x="404" y="0" type="line" smooth="yes"/>
      <point x="381" y="0"/>
      <point x="381" y="19" type="qcurve" smooth="yes"/>
      <point x="381" y="25"/>
      <point x="440" y="320" type="qcurve"/>
      <point x="447" y="361"/>
      <point x="447" y="383" type="qcurve" smooth="yes"/>
      <point x="447" y="499"/>
      <point x="333" y="499" type="qcurve" smooth="yes"/>
      <point x="254" y="499"/>
      <point x="200" y="437" type="qcurve" smooth="yes"/>
      <point x="153" y="384"/>
      <point x="137" y="312" type="qcurve"/>
      <point x="75" y="0" type="line"/>
      <point x="54" y="0" type="line"/>
      <point x="201" y="740" type="line"/>
      <point x="222" y="740" type="line"/>
      <point x="155" y="401" type="line"/>
      <point x="158" y="401" type="line"/>
      <point x="188" y="458"/>
      <point x="273" y="518"/>
      <point x="336" y="518" type="qcurve" smooth="yes"/>
      <point x="400" y="518"/>
      <point x="468" y="449"/>
      <point x="468" y="386" type="qcurve" smooth="yes"/>
      <point x="468" y="356"/>
      <point x="461" y="321" type="qcurve" smooth="yes"/>
      <point x="401" y="19" type="line"/>
      <point x="486" y="19" type="line"/>
      <point x="482" y="0" type="line"/>
    </contour>
  </outline>
</glyph>
<glyph name="u04C0" format="2">
  <advance width="232"/>
  <unicode hex="04C0"/>
  <outline>
    <contour>
      <point x="54" y="0" type="line"/>
      <point x="194" y="698" type="line"/>
      <point x="216" y="698" type="line"/>
      <point x="76" y="0" type="line"/>
    </contour>
  </outline>
</glyph>
<glyph name="uni04CF" format="2">
  <advance width="228"/>
  <unicode hex="04CF"/>
  <outline>
    <contour>
      <point x="53" y="0" type="line"/>
      <point x="200" y="740" type="line"/>
      <point x="221" y="740" type="line"/>
      <point x="74" y="0" type="line"/>
    </contour>
  </outline>
</glyph>
<glyph name="u04D0" format="2">
  <advance width="594"/>
  <unicode hex="04D0"/>
  <outline>
    <contour>
      <point x="367" y="673" type="line"/>
      <point x="364" y="673" type="line"/>
      <point x="144" y="253" type="line"/>
      <point x="448" y="253" type="line"/>
    </contour>
    <contour>
      <point x="497" y="0" type="line"/>
      <point x="452" y="234" type="line"/>
      <point x="134" y="234" type="line"/>
      <point x="12" y="0" type="line"/>
      <point x="-12" y="0" type="line"/>
      <point x="354" y="698" type="line"/>
      <point x="384" y="698" type="line"/>
      <point x="519" y="0" type="line"/>
    </contour>
    <contour>
      <point x="387" y="786" type="qcurve" smooth="yes"/>
      <point x="349" y="786"/>
      <point x="307" y="822"/>
      <point x="296" y="855" type="qcurve" smooth="yes"/>
      <point x="280" y="900" type="line"/>
      <point x="296" y="907" type="line"/>
      <point x="319" y="842" type="line"/>
      <point x="331" y="822"/>
      <point x="362" y="804"/>
      <point x="388" y="804" type="qcurve" smooth="yes"/>
      <point x="414" y="804"/>
      <point x="453" y="822"/>
      <point x="475" y="842" type="qcurve"/>
      <point x="522" y="907" type="line"/>
      <point x="537" y="899" type="line"/>
      <point x="504" y="855" type="line" smooth="yes"/>
      <point x="480" y="822"/>
      <point x="425" y="786"/>
    </contour>
  </outline>
</glyph>
<glyph name="u04DE" format="2">
  <advance width="556"/>
  <unicode hex="04DE"/>
  <outline>
    <contour>
      <point x="240" y="-12" type="qcurve" smooth="yes"/>
      <point x="84" y="-12"/>
      <point x="22" y="95" type="qcurve"/>
      <point x="40" y="107" type="line"/>
      <point x="69" y="56"/>
      <point x="166" y="8"/>
      <point x="241" y="8" type="qcurve" smooth="yes"/>
      <point x="325" y="8"/>
      <point x="383" y="47" type="qcurve" smooth="yes"/>
      <point x="459" y="98"/>
      <point x="459" y="205" type="qcurve" smooth="yes"/>
      <point x="459" y="267"/>
      <point x="381" y="344"/>
      <point x="302" y="344" type="qcurve" smooth="yes"/>
      <point x="192" y="344" type="line"/>
      <point x="196" y="364" type="line"/>
      <point x="305" y="364" type="line" smooth="yes"/>
      <point x="386" y="364"/>
      <point x="490" y="441"/>
      <point x="505" y="510" type="qcurve" smooth="yes"/>
      <point x="511" y="541"/>
      <point x="511" y="557" type="qcurve" smooth="yes"/>
      <point x="511" y="619"/>
      <point x="427" y="690"/>
      <point x="355" y="690" type="qcurve" smooth="yes"/>
      <point x="281" y="690"/>
      <point x="187" y="643"/>
      <point x="157" y="590" type="qcurve"/>
      <point x="139" y="599" type="line"/>
      <point x="198" y="710"/>
      <point x="358" y="710" type="qcurve" smooth="yes"/>
      <point x="432" y="710"/>
      <point x="533" y="629"/>
      <point x="533" y="557" type="qcurve" smooth="yes"/>
      <point x="533" y="473"/>
      <point x="436" y="366"/>
      <point x="362" y="354" type="qcurve"/>
      <point x="361" y="351" type="line"/>
      <point x="414" y="344"/>
      <point x="481" y="266"/>
      <point x="481" y="205" type="qcurve" smooth="yes"/>
      <point x="481" y="99"/>
      <point x="347" y="-12"/>
    </contour>
    <contour>
      <point x="292" y="819" type="qcurve" smooth="yes"/>
      <point x="272" y="819"/>
      <point x="272" y="836" type="qcurve" smooth="yes"/>
      <point x="272" y="842"/>
      <point x="277" y="857"/>
      <point x="286" y="868"/>
      <point x="298" y="868" type="qcurve" smooth="yes"/>
      <point x="318" y="868"/>
      <point x="318" y="851" type="qcurve" smooth="yes"/>
      <point x="318" y="819"/>
    </contour>
    <contour>
      <point x="474" y="819" type="qcurve" smooth="yes"/>
      <point x="454" y="819"/>
      <point x="454" y="836" type="qcurve" smooth="yes"/>
      <point x="454" y="842"/>
      <point x="459" y="857"/>
      <point x="468" y="868"/>
      <point x="480" y="868" type="qcurve" smooth="yes"/>
      <point x="500" y="868"/>
      <point x="500" y="851" type="qcurve" smooth="yes"/>
      <point x="500" y="819"/>
    </contour>
  </outline>
</glyph>
<glyph name="u04F1" format="2">
  <advance width="460"/>
  <unicode hex="04F1"/>
  <outline>
    <contour>
      <point x="-24" y="-200" type="line"/>
      <point x="-20" y="-181" type="line"/>
      <point x="64" y="-181" type="line"/>
      <point x="164" y="-3" type="line"/>
      <point x="73" y="506" type="line"/>
      <point x="93" y="506" type="line"/>
      <point x="178" y="24" type="line"/>
      <point x="181" y="24" type="line"/>
      <point x="454" y="506" type="line"/>
      <point x="477" y="506" type="line"/>
      <point x="89" y="-175" type="line" smooth="yes"/>
      <point x="81" y="-189"/>
      <point x="65" y="-200"/>
      <point x="51" y="-200" type="qcurve" smooth="yes"/>
    </contour>
    <contour>
      <point x="207" y="642" type="qcurve" smooth="yes"/>
      <point x="187" y="642"/>
      <point x="187" y="659" type="qcurve" smooth="yes"/>
      <point x="187" y="665"/>
      <point x="192" y="680"/>
      <point x="201" y="691"/>
      <point x="213" y="691" type="qcurve" smooth="yes"/>
      <point x="233" y="691"/>
      <point x="233" y="674" type="qcurve" smooth="yes"/>
      <point x="233" y="642"/>
    </contour>
    <contour>
      <point x="389" y="642" type="qcurve" smooth="yes"/>
      <point x="369" y="642"/>
      <point x="369" y="659" type="qcurve" smooth="yes"/>
      <point x="369" y="665"/>
      <point x="374" y="680"/>
      <point x="383" y="691"/>
      <point x="395" y="691" type="qcurve" smooth="yes"/>
      <point x="415" y="691"/>
      <point x="415" y="674" type="qcurve" smooth="yes"/>
      <point x="415" y="642"/>
    </contour>
  </outline>
</glyph>
<glyph name="Uhungarumlautcyrillic" format="2">
  <advance width="556"/>
  <unicode hex="04F2"/>
  <outline>
    <contour>
      <point x="266" y="778" type="line"/>
      <point x="409" y="931" type="line"/>
      <point x="426" y="918" type="line"/>
      <point x="279" y="767" type="line"/>
    </contour>
    <contour>
      <point x="426" y="778" type="line"/>
      <point x="569" y="931" type="line"/>
      <point x="586" y="918" type="line"/>
      <point x="439" y="767" type="line"/>
    </contour>
    <contour>
      <point x="92" y="0" type="line"/>
      <point x="96" y="19" type="line"/>
      <point x="187" y="19" type="line"/>
      <point x="266" y="150" type="line"/>
      <point x="116" y="698" type="line"/>
      <point x="138" y="698" type="line"/>
      <point x="280" y="177" type="line"/>
      <point x="282" y="177" type="line"/>
      <point x="594" y="698" type="line"/>
      <point x="617" y="698" type="line"/>
      <point x="212" y="22" type="line" smooth="yes"/>
      <point x="204" y="9"/>
      <point x="186" y="0"/>
      <point x="172" y="0" type="qcurve" smooth="yes"/>
    </contour>
  </outline>
</glyph>
<glyph name="u0E3F" format="2">
  <advance width="595"/>
  <unicode hex="0E3F"/>
  <outline>
    <contour>
      <point x="305" y="40" type="line" smooth="yes"/>
      <point x="454" y="40"/>
      <point x="478" y="154" type="qcurve"/>
      <point x="488" y="196"/>
      <point x="488" y="226" type="qcurve" smooth="yes"/>
      <point x="488" y="276"/>
      <point x="457" y="316" type="qcurve"/>
      <point x="423" y="356"/>
      <point x="354" y="356" type="qcurve" smooth="yes"/>
      <point x="315" y="356" type="line"/>
      <point x="252" y="40" type="line"/>
    </contour>
    <contour>
      <point x="355" y="657" type="line"/>
      <point x="208" y="657" type="line"/>
      <point x="151" y="376" type="line"/>
      <point x="299" y="376" type="line"/>
    </contour>
    <contour>
      <point x="332" y="376" type="line" smooth="yes"/>
      <point x="411" y="376"/>
      <point x="503" y="435"/>
      <point x="513" y="486" type="qcurve" smooth="yes"/>
      <point x="519" y="518"/>
      <point x="522" y="544"/>
      <point x="522" y="551" type="qcurve" smooth="yes"/>
      <point x="522" y="608"/>
      <point x="446" y="657"/>
      <point x="386" y="657" type="qcurve" smooth="yes"/>
      <point x="375" y="657" type="line"/>
      <point x="319" y="376" type="line"/>
    </contour>
    <contour>
      <point x="295" y="356" type="line"/>
      <point x="147" y="356" type="line"/>
      <point x="85" y="40" type="line"/>
      <point x="232" y="40" type="line"/>
    </contour>
    <contour>
      <point x="208" y="-82" type="line"/>
      <point x="228" y="20" type="line"/>
      <point x="59" y="20" type="line"/>
      <point x="190" y="677" type="line"/>
      <point x="359" y="677" type="line"/>
      <point x="380" y="780" type="line"/>
      <point x="400" y="780" type="line"/>
      <point x="379" y="677" type="line"/>
      <point x="393" y="677" type="line" smooth="yes"/>
      <point x="460" y="677"/>
      <point x="544" y="612"/>
      <point x="544" y="551" type="qcurve" smooth="yes"/>
      <point x="544" y="484"/>
      <point x="513" y="432" type="qcurve"/>
      <point x="481" y="383"/>
      <point x="402" y="368" type="qcurve"/>
      <point x="402" y="365" type="line"/>
      <point x="458" y="353"/>
      <point x="510" y="277"/>
      <point x="510" y="226" type="qcurve" smooth="yes"/>
      <point x="510" y="129"/>
      <point x="464" y="78" type="qcurve" smooth="yes"/>
      <point x="412" y="20"/>
      <point x="297" y="20" type="qcurve" smooth="yes"/>
      <point x="248" y="20" type="line"/>
      <point x="228" y="-82" type="line"/>
    </contour>
  </outline>
</glyph>
<glyph name="Germandbls" format="2">
  <advance width="692"/>
  <unicode hex="1E9E"/>
  <outline>
    <contour>
      <point x="372" y="-12" type="qcurve" smooth="yes"/>
      <point x="294" y="-12"/>
      <point x="207" y="43"/>
      <point x="182" y="89" type="qcurve"/>
      <point x="200" y="102" type="line"/>
      <point x="223" y="58"/>
      <point x="300" y="8"/>
      <point x="372" y="8" type="qcurve" smooth="yes"/>
      <point x="446" y="8"/>
      <point x="560" y="94"/>
      <point x="576" y="159" type="qcurve"/>
      <point x="583" y="195" type="line" smooth="yes"/>
      <point x="589" y="226"/>
      <point x="589" y="246" type="qcurve" smooth="yes"/>
      <point x="589" y="309"/>
      <point x="500" y="379"/>
      <point x="422" y="379" type="qcurve" smooth="yes"/>
      <point x="377" y="379" type="line"/>
      <point x="381" y="399" type="line"/>
      <point x="632" y="678" type="line"/>
      <point x="212" y="678" type="line"/>
      <point x="76" y="0" type="line"/>
      <point x="54" y="0" type="line"/>
      <point x="194" y="698" type="line"/>
      <point x="660" y="698" type="line"/>
      <point x="656" y="676" type="line"/>
      <point x="409" y="402" type="line"/>
      <point x="408" y="398" type="line"/>
      <point x="426" y="398" type="line" smooth="yes"/>
      <point x="506" y="398"/>
      <point x="611" y="323"/>
      <point x="611" y="246" type="qcurve" smooth="yes"/>
      <point x="611" y="128"/>
      <point x="541" y="57" type="qcurve"/>
      <point x="470" y="-12"/>
    </contour>
  </outline>
</glyph>
<glyph name="u1EA2" format="2">
  <advance width="594"/>
  <unicode hex="1EA2"/>
  <outline>
    <contour>
      <point x="367" y="673" type="line"/>
      <point x="364" y="673" type="line"/>
      <point x="144" y="253" type="line"/>
      <point x="448" y="253" type="line"/>
    </contour>
    <contour>
      <point x="497" y="0" type="line"/>
      <point x="452" y="234" type="line"/>
      <point x="134" y="234" type="line"/>
      <point x="12" y="0" type="line"/>
      <point x="-12" y="0" type="line"/>
      <point x="354" y="698" type="line"/>
      <point x="384" y="698" type="line"/>
      <point x="519" y="0" type="line"/>
    </contour>
    <contour>
      <point x="360" y="774" type="line"/>
      <point x="462" y="899" type="line"/>
      <point x="322" y="899" type="line"/>
      <point x="325" y="917" type="line"/>
      <point x="458" y="917" type="line" smooth="yes"/>
      <point x="482" y="917"/>
      <point x="482" y="902" type="qcurve" smooth="yes"/>
      <point x="482" y="896"/>
      <point x="470" y="877"/>
      <point x="455" y="859" type="qcurve" smooth="yes"/>
      <point x="375" y="765" type="line"/>
    </contour>
  </outline>
</glyph>
<glyph name="acircumflexacute" format="2">
  <advance width="567"/>
  <unicode hex="1EA5"/>
  <outline>
    <contour>
      <point x="460" y="708" type="line"/>
      <point x="603" y="861" type="line"/>
      <point x="620" y="848" type="line"/>
      <point x="473" y="697" type="line"/>
    </contour>
    <contour>
      <point x="366" y="718" type="line"/>
      <point x="218" y="591" type="line"/>
      <point x="205" y="603" type="line"/>
      <point x="355" y="735" type="line"/>
      <point x="379" y="735" type="line"/>
      <point x="485" y="601" type="line"/>
      <point x="470" y="591" type="line"/>
    </contour>
    <contour>
      <point x="223" y="-12" type="qcurve" smooth="yes"/>
      <point x="145" y="-12"/>
      <point x="60" y="97"/>
      <point x="60" y="176" type="qcurve" smooth="yes"/>
      <point x="60" y="314"/>
      <point x="125" y="416" type="qcurve" smooth="yes"/>
      <point x="192" y="518"/>
      <point x="309" y="518" type="qcurve" smooth="yes"/>
      <point x="373" y="518"/>
      <point x="451" y="461"/>
      <point x="465" y="413" type="qcurve"/>
      <point x="468" y="413" type="line"/>
      <point x="486" y="506" type="line"/>
      <point x="507" y="506" type="line"/>
      <point x="410" y="19" type="line"/>
      <point x="495" y="19" type="line"/>
      <point x="491" y="0" type="line"/>
      <point x="413" y="0" type="line" smooth="yes"/>
      <point x="390" y="0"/>
      <point x="390" y="19" type="qcurve" smooth="yes"/>
      <point x="390" y="24"/>
      <point x="392" y="32"/>
      <point x="392" y="35" type="qcurve"/>
      <point x="407" y="111" type="line"/>
      <point x="404" y="111" type="line"/>
      <point x="372" y="54"/>
      <point x="287" y="-12"/>
    </contour>
    <contour>
      <point x="223" y="7" type="qcurve" smooth="yes"/>
      <point x="288" y="7"/>
      <point x="333" y="47" type="qcurve"/>
      <point x="398" y="96"/>
      <point x="426" y="204" type="qcurve"/>
      <point x="454" y="346" type="line"/>
      <point x="457" y="359"/>
      <point x="457" y="372" type="qcurve" smooth="yes"/>
      <point x="457" y="411"/>
      <point x="431" y="448" type="qcurve"/>
      <point x="393" y="499"/>
      <point x="309" y="499" type="qcurve" smooth="yes"/>
      <point x="223" y="499"/>
      <point x="113" y="382"/>
      <point x="94" y="282" type="qcurve" smooth="yes"/>
      <point x="87" y="247" type="line" smooth="yes"/>
      <point x="81" y="218"/>
      <point x="81" y="176" type="qcurve" smooth="yes"/>
      <point x="81" y="106"/>
      <point x="153" y="7"/>
    </contour>
  </outline>
</glyph>
<glyph name="Acircumflexhoi" format="2">
  <advance width="594"/>
  <unicode hex="1EA8"/>
  <outline>
    <contour>
      <point x="367" y="673" type="line"/>
      <point x="364" y="673" type="line"/>
      <point x="144" y="253" type="line"/>
      <point x="448" y="253" type="line"/>
    </contour>
    <contour>
      <point x="497" y="0" type="line"/>
      <point x="452" y="234" type="line"/>
      <point x="134" y="234" type="line"/>
      <point x="12" y="0" type="line"/>
      <point x="-12" y="0" type="line"/>
      <point x="354" y="698" type="line"/>
      <point x="384" y="698" type="line"/>
      <point x="519" y="0" type="line"/>
    </contour>
    <contour>
      <point x="499" y="884" type="line"/>
      <point x="601" y="1009" type="line"/>
      <point x="461" y="1009" type="line"/>
      <point x="464" y="1027" type="line"/>
      <point x="597" y="1027" type="line" smooth="yes"/>
      <point x="621" y="1027"/>
      <point x="621" y="1012" type="qcurve" smooth="yes"/>
      <point x="621" y="1006"/>
      <point x="609" y="987"/>
      <point x="594" y="969" type="qcurve" smooth="yes"/>
      <point x="514" y="875" type="line"/>
    </contour>
    <contour>
      <point x="409" y="898" type="line"/>
      <point x="261" y="771" type="line"/>
      <point x="248" y="783" type="line"/>
      <point x="398" y="915" type="line"/>
      <point x="422" y="915" type="line"/>
      <point x="528" y="781" type="line"/>
      <point x="513" y="771" type="line"/>
    </contour>
  </outline>
</glyph>
<glyph name="Acircumflextilde" format="2">
  <advance width="594"/>
  <unicode hex="1EAA"/>
  <outline>
    <contour>
      <point x="485" y="952" type="qcurve" smooth="yes"/>
      <point x="465" y="952"/>
      <point x="436" y="967"/>
      <point x="413" y="983" type="qcurve" smooth="yes"/>
      <point x="395" y="996"/>
      <point x="366" y="1008"/>
      <point x="349" y="1008" type="qcurve" smooth="yes"/>
      <point x="318" y="1008"/>
      <point x="280" y="975" type="qcurve"/>
      <point x="269" y="987" type="line"/>
      <point x="312" y="1026"/>
      <point x="354" y="1026" type="qcurve" smooth="yes"/>
      <point x="374" y="1026"/>
      <point x="404" y="1012"/>
      <point x="426" y="996" type="qcurve" smooth="yes"/>
      <point x="444" y="983"/>
      <point x="473" y="970"/>
      <point x="490" y="970" type="qcurve" smooth="yes"/>
      <point x="525" y="970"/>
      <point x="559" y="1003" type="qcurve"/>
      <point x="570" y="991" type="line"/>
      <point x="527" y="952"/>
    </contour>
    <contour>
      <point x="409" y="897" type="line"/>
      <point x="261" y="770" type="line"/>
      <point x="248" y="782" type="line"/>
      <point x="398" y="914" type="line"/>
      <point x="422" y="914" type="line"/>
      <point x="528" y="780" type="line"/>
      <point x="513" y="770" type="line"/>
    </contour>
    <contour>
      <point x="497" y="0" type="line"/>
      <point x="452" y="234" type="line"/>
      <point x="134" y="234" type="line"/>
      <point x="12" y="0" type="line"/>
      <point x="-12" y="0" type="line"/>
      <point x="354" y="698" type="line"/>
      <point x="384" y="698" type="line"/>
      <point x="519" y="0" type="line"/>
    </contour>
    <contour>
      <point x="367" y="673" type="line"/>
      <point x="364" y="673" type="line"/>
      <point x="144" y="253" type="line"/>
      <point x="448" y="253" type="line"/>
    </contour>
  </outline>
</glyph>
<glyph name="Abrevegrave" format="2">
  <advance width="594"/>
  <unicode hex="1EB0"/>
  <outline>
    <contour>
      <point x="367" y="673" type="line"/>
      <point x="364" y="673" type="line"/>
      <point x="144" y="253" type="line"/>
      <point x="448" y="253" type="line"/>
    </contour>
    <contour>
      <point x="497" y="0" type="line"/>
      <point x="452" y="234" type="line"/>
      <point x="134" y="234" type="line"/>
      <point x="12" y="0" type="line"/>
      <point x="-12" y="0" type="line"/>
      <point x="354" y="698" type="line"/>
      <point x="384" y="698" type="line"/>
      <point x="519" y="0" type="line"/>
    </contour>
    <contour>
      <point x="316" y="1030" type="line"/>
      <point x="335" y="1041" type="line"/>
      <point x="416" y="886" type="line"/>
      <point x="400" y="877" type="line"/>
    </contour>
    <contour>
      <point x="387" y="776" type="qcurve" smooth="yes"/>
      <point x="337" y="776"/>
      <point x="288" y="832"/>
      <point x="272" y="883" type="qcurve"/>
      <point x="288" y="890" type="line"/>
      <point x="303" y="855" type="line"/>
      <point x="326" y="795"/>
      <point x="387" y="795" type="qcurve" smooth="yes"/>
      <point x="422" y="795"/>
      <point x="468" y="820"/>
      <point x="493" y="854" type="qcurve" smooth="yes"/>
      <point x="519" y="890" type="line"/>
      <point x="535" y="883" type="line"/>
      <point x="503" y="831"/>
      <point x="440" y="776"/>
    </contour>
  </outline>
</glyph>
<glyph name="abrevegrave" format="2">
  <advance width="567"/>
  <unicode hex="1EB1"/>
  <outline>
    <contour>
      <point x="275" y="850" type="line"/>
      <point x="294" y="861" type="line"/>
      <point x="375" y="706" type="line"/>
      <point x="359" y="697" type="line"/>
    </contour>
    <contour>
      <point x="343" y="594" type="qcurve" smooth="yes"/>
      <point x="293" y="594"/>
      <point x="244" y="650"/>
      <point x="228" y="701" type="qcurve"/>
      <point x="244" y="708" type="line"/>
      <point x="259" y="673" type="line"/>
      <point x="282" y="613"/>
      <point x="343" y="613" type="qcurve" smooth="yes"/>
      <point x="378" y="613"/>
      <point x="424" y="638"/>
      <point x="449" y="672" type="qcurve" smooth="yes"/>
      <point x="475" y="708" type="line"/>
      <point x="491" y="701" type="line"/>
      <point x="459" y="649"/>
      <point x="396" y="594"/>
    </contour>
    <contour>
      <point x="223" y="-12" type="qcurve" smooth="yes"/>
      <point x="145" y="-12"/>
      <point x="60" y="97"/>
      <point x="60" y="176" type="qcurve" smooth="yes"/>
      <point x="60" y="314"/>
      <point x="125" y="416" type="qcurve" smooth="yes"/>
      <point x="192" y="518"/>
      <point x="309" y="518" type="qcurve" smooth="yes"/>
      <point x="373" y="518"/>
      <point x="451" y="461"/>
      <point x="465" y="413" type="qcurve"/>
      <point x="468" y="413" type="line"/>
      <point x="486" y="506" type="line"/>
      <point x="507" y="506" type="line"/>
      <point x="410" y="19" type="line"/>
      <point x="495" y="19" type="line"/>
      <point x="491" y="0" type="line"/>
      <point x="413" y="0" type="line" smooth="yes"/>
      <point x="390" y="0"/>
      <point x="390" y="19" type="qcurve" smooth="yes"/>
      <point x="390" y="24"/>
      <point x="392" y="32"/>
      <point x="392" y="35" type="qcurve"/>
      <point x="407" y="111" type="line"/>
      <point x="404" y="111" type="line"/>
      <point x="372" y="54"/>
      <point x="287" y="-12"/>
    </contour>
    <contour>
      <point x="223" y="7" type="qcurve" smooth="yes"/>
      <point x="288" y="7"/>
      <point x="333" y="47" type="qcurve"/>
      <point x="398" y="96"/>
      <point x="426" y="204" type="qcurve"/>
      <point x="454" y="346" type="line"/>
      <point x="457" y="359"/>
      <point x="457" y="372" type="qcurve" smooth="yes"/>
      <point x="457" y="411"/>
      <point x="431" y="448" type="qcurve"/>
      <point x="393" y="499"/>
      <point x="309" y="499" type="qcurve" smooth="yes"/>
      <point x="223" y="499"/>
      <point x="113" y="382"/>
      <point x="94" y="282" type="qcurve" smooth="yes"/>
      <point x="87" y="247" type="line" smooth="yes"/>
      <point x="81" y="218"/>
      <point x="81" y="176" type="qcurve" smooth="yes"/>
      <point x="81" y="106"/>
      <point x="153" y="7"/>
    </contour>
  </outline>
</glyph>
<glyph name="Abrevetilde" format="2">
  <advance width="594"/>
  <unicode hex="1EB4"/>
  <outline>
    <contour>
      <point x="367" y="673" type="line"/>
      <point x="364" y="673" type="line"/>
      <point x="144" y="253" type="line"/>
      <point x="448" y="253" type="line"/>
    </contour>
    <contour>
      <point x="497" y="0" type="line"/>
      <point x="452" y="234" type="line"/>
      <point x="134" y="234" type="line"/>
      <point x="12" y="0" type="line"/>
      <point x="-12" y="0" type="line"/>
      <point x="354" y="698" type="line"/>
      <point x="384" y="698" type="line"/>
      <point x="519" y="0" type="line"/>
    </contour>
    <contour>
      <point x="486" y="943" type="qcurve" smooth="yes"/>
      <point x="466" y="943"/>
      <point x="437" y="958"/>
      <point x="414" y="974" type="qcurve" smooth="yes"/>
      <point x="396" y="987"/>
      <point x="367" y="999"/>
      <point x="350" y="999" type="qcurve" smooth="yes"/>
      <point x="319" y="999"/>
      <point x="281" y="966" type="qcurve"/>
      <point x="270" y="978" type="line"/>
      <point x="313" y="1017"/>
      <point x="355" y="1017" type="qcurve" smooth="yes"/>
      <point x="375" y="1017"/>
      <point x="405" y="1003"/>
      <point x="427" y="987" type="qcurve" smooth="yes"/>
      <point x="445" y="974"/>
      <point x="474" y="961"/>
      <point x="491" y="961" type="qcurve" smooth="yes"/>
      <point x="526" y="961"/>
      <point x="560" y="994" type="qcurve"/>
      <point x="571" y="982" type="line"/>
      <point x="528" y="943"/>
    </contour>
    <contour>
      <point x="387" y="776" type="qcurve" smooth="yes"/>
      <point x="337" y="776"/>
      <point x="288" y="832"/>
      <point x="272" y="883" type="qcurve"/>
      <point x="288" y="890" type="line"/>
      <point x="303" y="855" type="line"/>
      <point x="326" y="795"/>
      <point x="387" y="795" type="qcurve" smooth="yes"/>
      <point x="422" y="795"/>
      <point x="468" y="820"/>
      <point x="493" y="854" type="qcurve" smooth="yes"/>
      <point x="519" y="890" type="line"/>
      <point x="535" y="883" type="line"/>
      <point x="503" y="831"/>
      <point x="440" y="776"/>
    </contour>
  </outline>
</glyph>
<glyph name="Abrevedotbelow" format="2">
  <advance width="594"/>
  <unicode hex="1EB6"/>
  <outline>
    <contour>
      <point x="387" y="786" type="qcurve" smooth="yes"/>
      <point x="338" y="786"/>
      <point x="289" y="847"/>
      <point x="272" y="903" type="qcurve"/>
      <point x="288" y="910" type="line"/>
      <point x="303" y="873" type="line"/>
      <point x="326" y="805"/>
      <point x="387" y="805" type="qcurve" smooth="yes"/>
      <point x="421" y="805"/>
      <point x="468" y="836"/>
      <point x="494" y="874" type="qcurve" smooth="yes"/>
      <point x="519" y="910" type="line"/>
      <point x="535" y="903" type="line"/>
      <point x="532" y="899" type="line"/>
      <point x="500" y="847"/>
      <point x="440" y="786"/>
    </contour>
    <contour>
      <point x="497" y="0" type="line"/>
      <point x="452" y="234" type="line"/>
      <point x="134" y="234" type="line"/>
      <point x="12" y="0" type="line"/>
      <point x="-12" y="0" type="line"/>
      <point x="354" y="698" type="line"/>
      <point x="384" y="698" type="line"/>
      <point x="519" y="0" type="line"/>
    </contour>
    <contour>
      <point x="367" y="673" type="line"/>
      <point x="364" y="673" type="line"/>
      <point x="144" y="253" type="line"/>
      <point x="448" y="253" type="line"/>
    </contour>
    <contour>
      <point x="230" y="-134" type="qcurve" smooth="yes"/>
      <point x="210" y="-134"/>
      <point x="210" y="-117" type="qcurve" smooth="yes"/>
      <point x="210" y="-111"/>
      <point x="215" y="-96"/>
      <point x="224" y="-85"/>
      <point x="236" y="-85" type="qcurve" smooth="yes"/>
      <point x="256" y="-85"/>
      <point x="256" y="-102" type="qcurve" smooth="yes"/>
      <point x="256" y="-134"/>
    </contour>
  </outline>
</glyph>
